<svg width="67" height="67" viewBox="0 0 67 67" fill="none" xmlns="http://www.w3.org/2000/svg">
<path fill-rule="evenodd" clip-rule="evenodd" d="M12.9196 41.0119H6.93031V36.6155H12.9196C14.5336 36.6155 15.6239 37.5973 15.6239 38.8137C15.6239 40.0284 14.5336 41.0119 12.9196 41.0119ZM17.0443 34.9006C18.4658 34.3114 19.6426 32.9866 19.6426 30.7867C19.6426 27.5109 16.8333 25.5237 13.4448 25.5237H2.97508C2.87253 25.5237 2.78931 25.6077 2.78931 25.7086V28.6886C2.78931 28.7886 2.87253 28.8743 2.97508 28.8743H12.7177C14.2905 28.8743 15.3539 29.8335 15.3539 31.0154C15.3539 32.2006 14.2905 33.1589 12.7177 33.1589H6.93014V30.9498C6.93014 30.8472 6.84607 30.7657 6.74352 30.7657H2.97508C2.87253 30.7657 2.78931 30.8472 2.78931 30.9498V44.091C2.78931 44.1944 2.87253 44.2793 2.97508 44.2793H13.2918C17.1485 44.2793 19.9116 42.4796 19.9116 38.8137C19.9116 37.0106 18.8483 35.5185 17.0443 34.9006ZM60.3268 28.8739H61.9046C62.0046 28.8739 62.0878 28.7882 62.0878 28.6881V25.7082C62.0878 25.6073 62.0046 25.5241 61.9046 25.5241H59.6862C57.1232 25.5241 55.7656 26.342 54.9889 28.0846L50.1689 39.89C49.878 40.5962 49.456 40.9299 48.6255 40.9299V25.7082C48.6255 25.6073 48.5415 25.5241 48.4389 25.5241H44.8983C44.7949 25.5241 44.7117 25.6073 44.7117 25.7082V43.951C44.7117 44.1301 44.8588 44.2788 45.0412 44.2788H49.013C51.576 44.2788 52.7445 43.4601 53.5212 41.72L58.2774 30.0625C58.659 29.2337 59.2104 28.8739 60.3268 28.8739ZM57.918 36.2978L63.9922 44.0617C64.0662 44.1592 64.0116 44.2794 63.888 44.2794H59.611C59.2932 44.2794 59.0797 44.1844 58.8939 43.9356L56.2385 40.3765C56.2225 40.3554 56.2225 40.3277 56.2326 40.3042L57.8667 36.3062C57.8768 36.2785 57.902 36.2735 57.918 36.2978ZM26.5596 30.7656H23.0164C22.9113 30.7656 22.8298 30.8479 22.8298 30.9505V44.0917C22.8298 44.1951 22.9113 44.2792 23.0164 44.2792H26.5596C26.663 44.2792 26.7479 44.1951 26.7479 44.0917V30.9505C26.7479 30.8479 26.663 30.7656 26.5596 30.7656ZM37.6011 25.5237H41.1434C41.2451 25.5237 41.33 25.6078 41.33 25.7087V43.9507C41.33 44.1306 41.1812 44.2794 41.0005 44.2794H37.0286C34.4648 44.2794 33.2955 43.4598 32.5196 41.7205L27.7643 30.0622C27.3818 29.2333 26.8338 28.8736 25.7149 28.8736H23.0166C22.9115 28.8736 22.8291 28.7887 22.8291 28.6886V25.7087C22.8291 25.6078 22.9115 25.5237 23.0166 25.5237H26.3521C28.9151 25.5237 30.276 26.3425 31.0511 28.0842L35.8703 39.8905C36.162 40.5967 36.5823 40.9295 37.4145 40.9295V25.7087C37.4145 25.6078 37.4977 25.5237 37.6011 25.5237Z" fill="#D61920"/>
</svg>
