<svg width="68" height="67" viewBox="0 0 68 67" fill="none" xmlns="http://www.w3.org/2000/svg">
<path fill-rule="evenodd" clip-rule="evenodd" d="M3.56079 63.7614H64.5033V2.81769H3.56079V63.7614Z" fill="url(#paint0_linear_5_12)"/>
<path fill-rule="evenodd" clip-rule="evenodd" d="M8.26083 3.90369C7.11315 3.93845 6.36648 4.92456 6.1856 6.29882C6.1856 6.29882 4.66394 14.2998 4.66394 31.282C4.66394 48.2752 6.1856 59.389 6.1856 59.389C6.32528 60.7324 7.14147 61.7861 8.32263 61.7861H61.0691C62.247 61.7861 63.1842 60.854 63.2087 59.389C63.2087 59.389 62.621 46.3731 62.621 33.6572C62.621 20.9329 63.2087 6.29882 63.2087 6.29882C63.2093 6.27887 63.2093 6.25956 63.2093 6.24025V6.23832C63.2061 4.98571 62.2625 3.93909 61.129 3.90369H8.26083Z" fill="url(#paint1_linear_5_12)"/>
<path fill-rule="evenodd" clip-rule="evenodd" d="M50.8844 19.2854C47.115 21.4926 45.966 21.667 41.8741 24.1285L42.0756 23.6689C44.2236 21.3278 45.1524 20.3449 46.5666 18.2723C42.7914 18.4789 37.3098 18.9308 33.3923 19.7914L33.597 19.3742C37.1527 17.6447 43.7505 15.926 47.115 15.4826C46.2936 14.3252 39.6116 10.7142 37.9457 10.0164L38.1408 9.59222C43.2072 10.1625 49.9208 12.5326 52.8482 14.3252C54.0835 13.9384 55.3502 13.8991 57.6424 13.7034C57.6424 13.7034 57.3012 15.0841 54.8031 16.7995C55.4217 18.4583 53.9348 27.6526 52.7041 30.0903C52.6474 26.2404 52.3101 21.3903 50.8844 19.2854Z" fill="#009A7B"/>
<path fill-rule="evenodd" clip-rule="evenodd" d="M23.3515 52.2324L23.5433 51.7947C21.5408 51.0268 19.5377 50.4088 17.9207 48.893C18.428 47.4692 19.0124 46.3588 19.9638 44.9556L20.1633 44.5217C18.444 44.7824 16.8863 45.4152 15.3936 45.7061C14.2234 43.645 13.769 40.8277 13.18 38.1422L12.985 38.5619C12.6516 41.6348 12.5196 43.824 12.9541 46.2655C11.7144 46.6137 10.631 46.6613 9.63398 47.092L9.44409 47.5052C11.0295 48.4797 12.3259 49.2283 14.1237 50.0761C15.0827 52.1307 16.0766 53.5301 17.6877 55.118L17.8828 54.6842C17.5957 53.5243 17.221 52.5523 17.3627 51.2694C19.3568 51.8468 21.0716 52.1539 23.3515 52.2324Z" fill="#009A7B"/>
<path fill-rule="evenodd" clip-rule="evenodd" d="M28.9073 21.6263C28.9073 21.6263 28.1014 23.0488 27.4564 24.9438H27.3013C31.997 25.5785 36.4293 27.4786 37.5391 28.1352L37.3421 28.5581C32.4739 27.6975 29.9076 27.7966 28.0943 27.9562C26.2824 28.1352 25.9122 28.3579 25.9122 28.3579C24.8708 30.6436 24.2573 34.3731 24.0089 35.7493L23.8126 36.1761C22.9211 34.0313 21.6382 29.7598 21.6382 29.7598C19.1845 31.0742 13.5259 36.3853 13.5259 36.3853C16.6432 30.1641 19.7992 27.3287 19.7992 27.3287C18.7088 26.2318 15.8669 25.6763 13.7853 25.5894L13.9822 25.1646C15.2831 24.7842 17.9705 24.6226 19.7683 24.5389C21.9002 24.4733 23.1856 24.5969 23.1856 24.5969C25.0832 23.0862 27.9128 21.7627 28.9073 21.6263Z" fill="#009A7B"/>
<path fill-rule="evenodd" clip-rule="evenodd" d="M34.8778 48.3641C33.8917 49.6901 33.0542 50.7515 31.9703 51.9713C30.3643 52.4141 28.441 52.2165 26.9592 52.2635L26.7661 52.6838C27.881 53.2625 28.9727 53.6075 30.1409 53.8489C29.1934 54.7101 27.928 55.366 27.0435 55.9698L26.8466 56.3882C28.7512 55.9306 31.2564 55.1298 33.1212 54.031C34.0931 54.0697 35.0046 54.0008 35.6657 53.8708C35.6657 53.8708 35.8639 53.4395 35.8639 53.4498C35.7461 53.025 35.3657 52.7585 35.2531 52.1541C37.0006 50.7972 38.2681 49.5613 39.735 48.0854L39.9352 47.665C38.4895 48.6647 36.7361 50.0299 35.0458 50.8262C34.9743 50.0055 34.9222 49.2929 34.8778 48.3641Z" fill="#009A7B"/>
<path fill-rule="evenodd" clip-rule="evenodd" d="M51.0788 18.8574C47.3171 21.0717 46.163 21.2538 42.0775 23.7017C44.4591 21.1206 45.2843 20.0147 46.7609 17.8571C42.9903 18.0541 37.5093 18.5085 33.5977 19.3743C37.0034 17.5559 43.7569 15.5315 47.3171 15.0526C46.4912 13.9126 39.8034 10.2887 38.1401 9.5929C43.4376 10.0081 49.9085 11.9816 53.0446 13.9004C54.2811 13.5161 55.5639 13.4962 57.8632 13.2928C57.2742 14.2982 57.2491 14.8795 54.9975 16.3715C55.6193 18.0412 54.1304 27.2291 52.8984 29.6597C52.8527 25.8182 52.5167 20.9642 51.0788 18.8574Z" fill="white"/>
<path fill-rule="evenodd" clip-rule="evenodd" d="M23.5429 51.7942C21.3776 51.0012 19.8237 50.0679 18.1103 48.4632C18.6246 47.0522 19.2039 45.9464 20.1617 44.5225C18.407 44.7839 17.1106 44.9879 15.5992 45.2769C14.3647 43.1154 13.8066 41.0396 13.179 38.1417C12.843 41.2134 12.7143 43.4064 13.1481 45.8447C11.7571 46.2302 10.7749 46.5656 9.63232 47.0908C11.2338 48.0628 12.5282 48.8204 14.3151 49.6533C15.2761 51.7118 16.2732 53.0989 17.8817 54.683C17.5065 53.3365 17.408 52.2641 17.5599 50.8364C19.5592 51.4279 21.2701 51.7388 23.5429 51.7942Z" fill="white"/>
<path fill-rule="evenodd" clip-rule="evenodd" d="M29.1698 21.2563C28.4978 22.1318 27.7151 23.7622 27.504 24.5192C33.0693 25.2716 37.539 28.1347 37.539 28.1347C32.6702 27.2722 30.1038 27.3823 28.2854 27.5419C26.4799 27.7099 26.1124 27.9255 26.1124 27.9255C24.7973 30.8041 24.0101 35.7488 24.0101 35.7488C23.1205 33.6092 21.8428 29.3339 21.8428 29.3339C19.3859 30.6489 13.7299 35.958 13.7299 35.958C16.8369 29.7362 19.9916 26.9066 19.9916 26.9066C18.9083 25.8078 16.06 25.2594 13.9815 25.1641C15.0578 24.7251 17.832 24.2115 19.9626 24.1136C22.0964 24.0486 23.3825 24.169 23.3825 24.169C25.2846 22.6679 28.1728 21.4025 29.1698 21.2563Z" fill="white"/>
<path fill-rule="evenodd" clip-rule="evenodd" d="M35.0747 47.9498C34.0944 49.277 33.2486 50.3249 32.1563 51.5396C30.2806 52.0693 28.784 52.2637 26.9598 52.2637C28.0805 52.8372 29.1696 53.1829 30.3359 53.4288C29.1696 54.4954 28.1803 55.2407 27.0435 55.97C28.9482 55.5162 31.4476 54.7097 33.313 53.6051C34.2869 53.6412 35.2015 53.5839 35.8652 53.4507C35.6914 52.8836 35.5845 52.469 35.4442 51.7391C37.1976 50.3694 38.4753 49.1489 39.9352 47.6659C38.3813 48.7479 37.0386 49.5577 35.2453 50.406C35.1603 49.5789 35.1191 48.8857 35.0747 47.9498Z" fill="white"/>
<defs>
<linearGradient id="paint0_linear_5_12" x1="3.56079" y1="2.81769" x2="3.56079" y2="63.7614" gradientUnits="userSpaceOnUse">
<stop stop-color="#049C7D"/>
<stop offset="0.351536" stop-color="#61BAA8"/>
<stop offset="0.668127" stop-color="#61BAA8"/>
<stop offset="1" stop-color="#00A184"/>
</linearGradient>
<linearGradient id="paint1_linear_5_12" x1="4.71259" y1="3.99988" x2="4.71259" y2="61.7861" gradientUnits="userSpaceOnUse">
<stop offset="0.000554265" stop-color="#6ADBC4"/>
<stop offset="0.821791" stop-color="#026D58"/>
<stop offset="1" stop-color="#00A184"/>
</linearGradient>
</defs>
</svg>
