<svg width="67" height="68" viewBox="0 0 67 68" fill="none" xmlns="http://www.w3.org/2000/svg">
<path fill-rule="evenodd" clip-rule="evenodd" d="M35.3425 3.33215L20.8987 12.7685C17.4479 16.9976 21.3223 19.6115 28.3238 22.7352C27.3285 22.253 27.9278 20.8135 28.7405 20.3761C35.5147 16.3123 38.69 14.2321 38.9517 11.3875C39.2479 7.56128 37.9633 4.58574 35.3425 3.33215ZM34.5017 43.0784L45.5842 48.2719C49.8462 44.0782 44.6236 41.63 39.9038 39.4175L39.9035 39.4174C39.3947 39.1788 38.8917 38.943 38.4071 38.7081C39.4747 39.3383 38.6895 40.2234 38.135 40.585L34.5017 43.0784ZM21.0983 52.06L15.4158 55.8793C11.0282 58.8204 18.9734 66.614 24.0325 63.2183L32.7421 57.5049L21.0983 52.06Z" fill="#60B1DC"/>
<path fill-rule="evenodd" clip-rule="evenodd" d="M46.8897 15.0345L33.9957 23.2311L45.4019 28.5967C48.3465 27.1881 50.5884 25.1321 50.7296 21.7571C50.7985 18.4612 49.5725 16.1056 46.8897 15.0345ZM31.8775 37.544L20.6021 32.3368C17.6365 37.191 21.6344 39.0113 25.3541 40.705C26.0707 41.0313 26.7769 41.3528 27.4211 41.6905C26.7251 41.2976 27.2617 40.923 27.7507 40.5817C27.8618 40.5041 27.9705 40.4282 28.0616 40.3543L31.8775 37.544Z" fill="#A4C7A2"/>
<path fill-rule="evenodd" clip-rule="evenodd" d="M20.8535 12.8098C17.8745 14.6282 15.2434 17.924 15.3605 22.6009C15.5017 26.2445 17.754 29.1856 23.1471 31.6652L39.8777 39.4141C45.9114 42.1726 49.4001 44.4938 45.5291 48.2718C49.531 46.4018 51.9865 43.2471 51.3115 37.668C50.8879 34.2654 48.3084 31.9132 44.3066 30.1293L28.3647 22.7352C21.1325 19.3911 17.5818 17.2008 20.8535 12.8098Z" fill="#008BBC"/>
<path fill-rule="evenodd" clip-rule="evenodd" d="M20.561 32.3369C17.2445 34.1242 14.8648 37.2892 15.1919 41.8731C15.4571 45.6097 17.4856 48.537 21.3496 50.2728C30.879 54.5535 40.3532 58.8998 49.235 64.2929C52.0349 60.4667 52.09 53.2896 45.86 50.3692L27.4798 41.6905C20.499 38.3913 18.1296 37.5888 20.561 32.3369Z" fill="#56A954"/>
</svg>
