<svg width="68" height="68" viewBox="0 0 68 68" fill="none" xmlns="http://www.w3.org/2000/svg">
<path fill-rule="evenodd" clip-rule="evenodd" d="M55.7542 32.0697C51.5305 32.9194 49.9795 35.3517 48.8675 34.7868C47.8963 33.9955 48.9581 29.4928 49.1872 27.6814C49.4831 25.3075 46.2879 23.8579 45.1974 26.771C44.2954 29.6795 44.7201 39.9711 44.9206 41.7894C45.133 43.7409 48.5501 43.6638 48.9104 41.9692C49.0178 41.437 49.2946 40.3212 50.0892 38.762C53.4992 32.3335 60.9563 35.1626 60.2237 39.6746C58.9614 46.5839 46.1423 46.4369 44.4529 44.964C41.9234 43.1643 33.9127 37.8493 26.1717 32.8097C26.1813 32.4525 26.1956 32.0697 26.2123 31.7126C36.9815 25.4195 47.8294 19.0494 49.1872 17.8566C51.3277 15.9543 48.9581 12.5673 46.2116 14.7405C44.3789 16.211 35.681 21.8738 26.4962 27.6907C27.1214 20.6624 28.2334 16.6218 28.7226 14.7661C29.6318 11.3091 24.6827 10.0137 23.8403 13.501C22.4444 19.2502 21.6712 24.6913 21.2894 29.6585C16.0635 26.3089 11.5845 23.4798 9.89978 22.5858C5.02226 19.9761 4.51398 24.7659 6.4564 25.6693C7.38704 26.1151 12.3147 29.0889 18.3591 32.805C12.2789 36.6121 6.84775 39.9244 4.1107 41.4953C2.29237 42.9822 3.85776 44.964 5.73098 43.8599C8.74005 41.9692 14.5745 38.5402 21.0174 34.7588C20.7692 44.8379 22.1819 52.1347 23.2891 54.4059C24.7352 57.326 27.1167 56.0516 26.7349 53.3135C26.2194 47.2632 26.0309 42.0345 26.0524 37.5505C35.3898 43.3207 44.6915 49.1329 45.5625 49.6745C47.7268 51.0213 49.7265 49.4854 49.9126 48.4C57.4437 47.6974 62.6744 46.3855 64.3567 40.4286C66.0867 34.3386 60.238 31.1711 55.7542 32.0697Z" fill="#FCB813"/>
</svg>
