<svg width="68" height="68" viewBox="0 0 68 68" fill="none" xmlns="http://www.w3.org/2000/svg">
<path fill-rule="evenodd" clip-rule="evenodd" d="M17.913 3.99605C16.2628 4.82005 15.0335 6.23774 14.4525 7.98792L3.40414 41.1926C2.81872 42.9372 2.95568 44.815 3.78631 46.4723C4.61197 48.111 6.03077 49.3436 7.77487 49.9268L44.0071 62.0913C45.7639 62.6745 47.6394 62.5414 49.2874 61.7141C50.9371 60.8807 52.1692 59.4708 52.743 57.7156L63.7963 24.5209C65.0064 20.9052 63.0386 16.9818 59.4229 15.7773L23.1939 3.61608C21.4338 3.03563 19.5704 3.16211 17.913 3.99605Z" fill="#FEFEFE"/>
<path fill-rule="evenodd" clip-rule="evenodd" d="M18.5924 42.5323H21.0893V25.2836H18.5924V42.5323ZM35.6237 35.8856C33.6559 38.0814 31.2022 39.8531 28.3579 40.9516L26.7226 41.5851V26.2008L28.3381 26.8265C31.1862 27.914 33.646 29.6862 35.6237 31.8716C37.0315 29.6061 37.9057 26.9778 38.0852 24.1193C38.5326 16.7441 33.9133 9.97651 27.5682 7.62104L22.3337 5.87915C19.9716 5.09216 17.4571 6.39498 16.6778 8.75045L5.59798 41.9739C4.81099 44.3387 6.13645 46.9041 8.50131 47.6817L33.646 56.0769C36.2097 53.3508 37.8726 49.7389 38.1156 45.71C38.3376 42.1153 37.4004 38.7259 35.6237 35.8856Z" fill="#198FCA"/>
<path fill-rule="evenodd" clip-rule="evenodd" d="M34.1733 33.8787C32.7694 32.2329 31.0723 30.85 29.1128 29.8371V37.9445C31.0723 36.9295 32.7788 35.53 34.1733 33.8787Z" fill="#E95705"/>
<path fill-rule="evenodd" clip-rule="evenodd" d="M52.5058 42.4775L49.3887 42.4863L42.9762 33.8602L49.4898 25.237L52.6339 25.2248L46.1054 33.873L52.5058 42.4775ZM58.6185 17.9938L35.5432 10.2823C38.6426 13.6749 40.5391 18.1826 40.548 23.1195C40.5529 27.0219 39.3363 30.7547 37.2188 33.8789C39.344 36.9938 40.5678 40.7239 40.5783 44.6263C40.58 49.2875 38.9049 53.582 36.1159 56.9073L44.7817 59.7996C47.1516 60.5877 49.6534 59.2849 50.4415 56.9222L61.5268 23.7021C62.3116 21.3411 60.985 18.778 58.6185 17.9938Z" fill="#015198"/>
</svg>
