<svg width="68" height="67" viewBox="0 0 68 67" fill="none" xmlns="http://www.w3.org/2000/svg">
<path fill-rule="evenodd" clip-rule="evenodd" d="M32.9662 7.94024L19.9677 0.998962L32.7905 25.5604L45.6134 1.17694L32.9662 7.94024ZM42.8048 9.89779L59.3164 3.13449V15.4152L49.831 19.6868C55.4519 24.3143 59.1407 31.2556 59.1407 38.9088C59.1407 52.7913 47.1961 64.1822 32.6167 64.1822C17.8617 64.1822 6.09277 52.9693 6.09277 38.9088C6.09277 31.0776 9.78154 24.1363 15.7538 19.3308L6.26843 15.0593V2.77853L22.6044 9.71981L25.2392 14.5253L31.2115 25.9161C24.5366 26.806 19.4426 32.3235 19.4426 38.9088C19.4426 46.028 25.5905 51.9014 33.1437 51.9014C40.6969 51.9014 46.8448 46.206 46.8448 38.9088C46.8448 32.1455 41.3995 26.4501 34.3733 25.9161L39.9943 14.8813H40.1699L42.8048 9.89779Z" fill="#FFDC00"/>
</svg>
