<svg width="68" height="68" viewBox="0 0 68 68" fill="none" xmlns="http://www.w3.org/2000/svg">
<path fill-rule="evenodd" clip-rule="evenodd" d="M33.9508 11.4142C15.4778 11.4142 3.30347 21.1088 3.30347 33.0717C3.30347 45.0318 15.4778 54.7278 33.9508 54.7278C52.4266 54.7278 64.6037 45.0318 64.6037 33.0717C64.6037 21.1088 52.4266 11.4142 33.9508 11.4142Z" fill="#FEFEFE"/>
<path fill-rule="evenodd" clip-rule="evenodd" d="M39.4123 41.1644C44.6748 40.2509 62.4443 36.5941 60.255 26.454C59.467 22.8169 55.7256 18.8161 50.081 16.0348C45.5699 14.0048 40.0636 12.8262 33.8791 12.8262C16.7285 12.8262 4.80225 21.8893 4.80225 33.0712C4.80225 40.8585 10.592 47.6195 19.9018 51.0029C21.8768 45.8038 29.743 42.842 39.4123 41.1644Z" fill="#0075C1"/>
<path fill-rule="evenodd" clip-rule="evenodd" d="M33.9883 44.751C26.2982 45.7167 22.7697 48.2006 20.5015 51.2174C24.4205 52.5581 28.9302 53.3137 33.8783 53.3137C51.0304 53.3137 62.9566 44.2534 62.9566 33.0715C62.9566 32.0805 62.8621 31.1064 62.6789 30.1534C62.1108 43.2821 42.4029 43.7064 33.9883 44.751Z" fill="url(#paint0_linear_5_20)"/>
<path fill-rule="evenodd" clip-rule="evenodd" d="M41.0824 38.5893C40.9964 37.6391 40.9612 36.9907 40.9612 36.4324V30.7597H38.2291L38.3165 30.9345C38.3193 30.9387 38.5942 31.4829 38.5942 32.6727L38.5942 32.6829C38.5947 32.9068 38.6014 36.6374 38.4941 37.539C37.8344 37.7082 36.9519 37.7688 36.3796 37.7688C32.0447 37.7688 29.8441 35.2793 29.8441 30.3748C29.8441 26.6306 32.321 23.8351 35.865 23.5786C37.7301 23.4461 39.5246 23.9536 40.6552 24.9347L40.8526 25.1067V22.8145L40.7582 22.7962C39.6318 22.5791 38.3095 22.3507 37.0153 22.3507C30.7745 22.3507 27.0458 25.6368 27.0458 31.1389C27.0458 37.0005 31.5978 39.0883 35.8594 39.0883C37.6652 39.0883 39.5331 38.9544 40.9837 38.7161L41.0923 38.6978L41.0824 38.5893ZM14.3237 23.9497C14.655 23.9215 15.67 23.8482 16.4045 23.8482C20.7957 23.8482 22.8441 25.9769 22.8441 30.5486C22.8441 35.2725 21.0241 37.5718 17.2841 37.5718C14.5464 37.5718 14.3237 37.4393 14.3237 35.8167V23.9497ZM17.3291 22.5005H11.5774L11.6451 22.6655C11.9002 23.2857 11.8847 24.4163 11.8678 25.4172C11.8607 25.6527 11.8579 38.6954 11.8579 38.6954L11.9721 38.6982C11.9989 38.701 14.5928 38.7941 17.0513 38.7941C22.1884 38.7941 25.6408 35.3121 25.6408 30.1299C25.6408 25.4948 22.3787 22.5005 17.3291 22.5005ZM47.9276 23.7716H46.3205L46.3121 29.3216H47.3609C50.2086 29.3216 51.5351 28.3715 51.5351 26.3302C51.5351 24.537 50.4595 23.7716 47.9276 23.7716ZM47.5808 30.5929H46.3121V35.9287C46.3121 37.11 46.8111 37.571 48.0869 37.571C50.7189 37.571 51.9989 36.4066 51.9989 34.0129C51.9989 31.7432 50.5159 30.5929 47.5808 30.5929ZM53.8892 26.0002C53.8892 28.0104 52.3949 29.3877 50.833 29.8036C53.1886 30.3083 54.7915 31.9309 54.7915 33.8678C54.7915 36.9974 52.4203 38.7934 48.2856 38.7934C46.1113 38.7934 44.3218 38.8254 44.0227 38.8307C43.9954 38.8312 43.9806 38.8314 43.9789 38.8314L43.8577 38.8343V24.7906C43.8577 23.2977 43.7153 22.6521 43.7125 22.645L43.6801 22.4998H48.6C51.9142 22.4998 53.8892 23.8067 53.8892 26.0002Z" fill="#FEFEFE"/>
<defs>
<linearGradient id="paint0_linear_5_20" x1="65.2235" y1="36.8971" x2="22.1956" y2="39.7164" gradientUnits="userSpaceOnUse">
<stop stop-color="#6AB935"/>
<stop offset="0.305922" stop-color="#00A5A9"/>
<stop offset="0.669783" stop-color="#008AD5"/>
<stop offset="1" stop-color="#0075C1"/>
</linearGradient>
</defs>
</svg>
