<svg width="68" height="68" viewBox="0 0 68 68" fill="none" xmlns="http://www.w3.org/2000/svg">
<path fill-rule="evenodd" clip-rule="evenodd" d="M41.7739 22.2976C41.9956 22.2342 42.2231 22.1708 42.4541 22.1064C43.5126 21.8115 44.6479 21.4951 45.6648 21.0594C42.1276 19.4684 37.5301 17.8766 33.4621 16.9928C32.7555 17.1693 30.8101 17.7001 29.5719 18.0537C29.9525 18.1963 30.5632 18.3772 31.3731 18.6172L31.3731 18.6172C33.5749 19.2696 37.249 20.3582 41.7739 22.2976ZM25.6815 19.4685C29.926 20.5294 35.938 22.8285 37.7063 23.7123C37.0824 23.9799 36.3236 24.2924 35.566 24.6044L35.566 24.6044C34.8208 24.9113 34.0767 25.2177 33.4632 25.4806C28.6885 23.005 23.0294 21.4132 21.4377 21.0596C22.6751 20.7059 24.444 19.9986 25.6815 19.4685ZM64.2319 30.9622C56.628 33.9686 43.1886 41.9261 33.4622 50.2379C32.4451 49.3336 31.3556 48.5014 30.2397 47.6492L30.2397 47.6491C29.6101 47.1682 28.972 46.6809 28.3339 46.1706C38.414 38.2124 49.7315 31.1394 59.2808 27.9565C61.2262 29.194 62.9945 30.2549 64.2319 30.9622ZM20.8931 40.8014C20.2878 40.3838 19.6993 39.9777 19.1387 39.6274C32.2244 29.3709 43.3648 24.7734 50.0848 23.0052C50.7044 23.3148 51.2588 23.6028 51.7862 23.8767C52.764 24.3845 53.6487 24.844 54.6823 25.3035C43.7191 28.8407 33.8162 34.8528 23.7361 42.6338C22.7757 42.1003 21.8149 41.4374 20.8931 40.8014Z" fill="#E31837"/>
<path fill-rule="evenodd" clip-rule="evenodd" d="M3.04639 31.1397C6.22924 29.0171 11.8877 25.6571 17.1931 23.1815C17.689 23.38 18.3523 23.5784 19.1202 23.8082C19.7208 23.9878 20.3854 24.1867 21.084 24.4196C18.9614 25.3034 13.6566 28.1326 6.75937 32.7308C6.06057 32.4201 5.46402 32.1777 4.92483 31.9586C4.23635 31.6788 3.64137 31.437 3.04639 31.1397ZM24.7977 25.8339C26.0351 26.3648 27.6269 27.0721 29.0415 27.7794C23.9132 30.4321 19.3158 33.6149 14.5411 36.975C13.5419 36.4749 12.5427 35.887 11.6054 35.3357C11.2158 35.1065 10.8369 34.8836 10.4731 34.6759C16.4866 30.4321 21.084 27.6029 24.7977 25.8339Z" fill="#012169"/>
</svg>
