<svg width="68" height="68" viewBox="0 0 68 68" fill="none" xmlns="http://www.w3.org/2000/svg">
<path fill-rule="evenodd" clip-rule="evenodd" d="M41.9549 35.1656L42.0194 35.1023L43.3095 34.5001L43.3462 34.4706L43.3921 34.4807L43.4553 34.412L43.4996 34.3985L43.4937 34.3627L44.2034 33.9336L44.2877 33.8932V33.8683L44.3332 33.8776L44.353 33.8439L44.4179 33.8392L44.415 33.8161L44.5077 33.8089L46.8186 32.5121L46.8624 32.5226L46.9277 32.4505L46.9715 32.459L47.0141 32.4067L47.0575 32.4185L47.0967 32.3624L47.1443 32.3726L47.1616 32.3342L47.2253 32.3287V32.3093L47.2746 32.3169L47.294 32.2815L47.3799 32.2756L47.3993 32.2428L47.4874 32.2406V32.2141L47.5258 32.2272V32.2057L47.656 32.1896V32.1703L47.723 32.1808V32.1585H47.8111V32.1424L47.8743 32.1475V32.1281L47.9131 32.1387V32.1176L48.0416 32.121V32.0999L48.0871 32.1129V32.0898L48.1752 32.1075V32.0843L48.2629 32.1037V32.0826L48.327 32.0927V32.075L48.4289 32.0927V32.075L48.5448 32.0927V32.075L49.4931 32.2141V32.2318L49.8421 32.3148V32.3342L49.9441 32.3549V32.378L50.0532 32.3957V32.4168L50.1413 32.4311V32.4505L50.2062 32.4606V32.4817L50.3575 32.531V32.5538L50.4035 32.5576V32.5787L50.4684 32.5875V32.6086L50.5105 32.6208V32.6381L50.5775 32.6495V32.6701L50.6193 32.6811V32.6967L50.7309 32.7418V32.7582L50.8612 32.8214V32.8425L50.8974 32.8475V32.8724L51.0298 32.9339V32.9516L51.0989 32.9866L51.1195 33.0271L51.2042 33.0646L51.2514 33.1333L51.2902 33.14L51.3201 33.1851L51.3606 33.1965L51.3994 33.2635L51.7054 33.5552L51.7521 33.5644V33.6028L51.7972 33.6121L51.8145 33.677L51.9662 33.8266V33.862L52.0573 33.9387V33.9787L52.1454 34.0554V34.0934L52.1913 34.122L52.2136 34.1831L52.233 34.1924V34.2295L52.2777 34.2573L52.2971 34.3437L52.3426 34.3703V34.4086L52.3852 34.46V34.4967L52.429 34.5304V34.5641L52.4572 34.597L52.3797 34.5603V34.5233L51.9447 34.2805V34.2362L51.6346 34.1026V34.0816L51.5456 34.0677V34.0445L51.4769 34.0306V34.015L51.4116 34.0028V33.9787L51.3239 33.9602L51.302 33.9193L51.2144 33.902V33.8826L51.0824 33.8582V33.8392L50.9699 33.8161V33.7946L50.8169 33.7705V33.7457L50.6479 33.7157V33.6909L50.5973 33.6875V33.6664L50.5316 33.6559L50.4916 33.5872L50.4262 33.5767L50.4191 33.5535L50.331 33.5202V33.4768L50.1148 33.3739V33.3356L49.8488 33.2264V33.1851L49.7376 33.1645V33.1261L49.2508 32.9748V32.9356L48.665 32.8003L48.6152 32.8176L48.2667 32.751L48.2439 32.7864L48.0416 32.751L48.0222 32.7864L47.7866 32.7616L47.7597 32.7965L47.6775 32.781V32.8003L47.6349 32.7965V32.8176L47.5645 32.8003L47.3694 32.8269V32.8707L47.1494 32.888V32.9255L46.9543 32.9516L46.8451 33.0098V33.0503L46.7819 33.0608L46.757 33.0941L46.7166 33.0895L46.6706 33.14L46.6268 33.135V33.1738L46.5809 33.1645L46.5897 33.2049L46.5261 33.2559L46.4527 33.2403V33.2808L46.4123 33.2736L46.3048 33.4127L46.2622 33.406V33.4498L46.2184 33.441L46.1531 33.5729L46.1092 33.5628L45.9352 33.8316L45.8913 33.8266V33.8826L45.8471 33.8759L45.7889 34.0904L45.743 34.0799L45.7219 34.219L45.6781 34.2274V34.3087L45.6359 34.3193V34.4251L45.6128 34.4196V34.4967H45.593L45.5748 34.6923L45.5323 34.6813V34.9123L45.4867 34.9177L45.4952 35.5508L45.5424 35.5756V35.794L45.5866 35.8273L45.593 35.9684L45.6128 35.9701V36.0123L45.6359 36.0156L45.657 36.2217L45.7008 36.2247V36.3309L45.7489 36.3587V36.4207L45.7729 36.424V36.5066L45.7944 36.5104L45.8138 36.5943L45.8593 36.6019L45.8876 36.7473L45.928 36.7776V36.8375L45.9529 36.8425L45.9794 37.3285L46.0001 37.3323L46.0039 37.4941L46.0233 37.4975L46.0266 37.6016L46.046 37.6045L46.0498 37.7276L46.0726 37.7293V37.8089L46.0936 37.814V37.8545L46.1147 37.8595L46.143 37.9868L46.1602 37.9906L46.164 38.0711L46.1851 38.0749V38.1343L46.2095 38.1377V38.2001L46.2306 38.2026V38.2629L46.2521 38.2667L46.2749 38.3914L46.2943 38.3986V38.4352L46.3398 38.469L46.5261 38.8841L46.5669 38.8929L46.7271 39.2217L46.7621 39.2326L46.8131 39.2803V39.3186L46.8624 39.3468V39.3894L46.8974 39.4193V39.4577L47.0318 39.5829V39.6242L47.0575 39.6301L47.1688 39.7902L47.2092 39.7957L47.2813 39.9116L47.3184 39.9175L47.3694 39.9879L47.4748 40.1105L47.5207 40.1194L47.5856 40.2113L47.6349 40.2197L47.656 40.2639L47.723 40.2934V40.3377L48.0066 40.5295L48.0981 40.6685L48.1192 40.6723L48.1419 40.7777L48.2073 40.8308L48.2279 40.913L48.2566 40.9189L48.3126 41.0065L48.2317 41.0807L48.1681 41.1085V41.152L48.1082 41.1768V41.2181L47.7019 41.4798V41.5203L47.621 41.5448V41.5603L47.5755 41.5557L47.5557 41.5907L47.5312 41.5831L47.5085 41.6244L47.4646 41.6134L47.4238 41.6666L47.3799 41.6594L47.3622 41.6914L47.294 41.6998V41.7226L47.2552 41.7125L47.232 41.7508L47.1688 41.7563V41.7757H47.079L47.0634 41.8495L46.9715 41.8516L46.803 41.962V41.9987L46.7376 41.997V42.0345L46.6546 42.0783V42.1171L46.5459 42.1803V42.2157L46.4561 42.2452V42.2823L46.4367 42.2768L46.3537 42.3636L46.3099 42.3535V42.3915L46.2677 42.4037V42.4264L46.2306 42.4163L46.143 42.5006L46.0991 42.4968L46.0123 42.5799L45.9453 42.5849L45.9246 42.6241L45.8787 42.6131L45.8593 42.6486L45.8138 42.6435L45.7999 42.6785L45.7489 42.6658L45.7329 42.7328L45.689 42.7295L45.6676 42.7645L45.5866 42.8083L45.5217 42.9035L45.4564 42.9297V42.9701L45.4176 42.9811V43.0232L45.3683 43.0371L45.3721 43.078L45.3266 43.0864V43.1075L45.2807 43.1185V43.1568L45.1782 43.2167V43.2576L45.0324 43.3469L45.008 43.4051L44.9439 43.4316V43.4544L44.9001 43.4434L44.7526 43.5745L44.7087 43.5707L44.6244 43.655L44.5802 43.6449L44.5136 43.7098L44.4677 43.706L44.4479 43.7397L44.3825 43.7464V43.7641L44.3391 43.7608L44.3231 43.7941L44.2721 43.7856L44.2582 43.8219L44.2085 43.8135L44.1912 43.8518L44.1592 43.8451V43.8097L44.3176 43.7608L44.3121 43.6988L44.3762 43.655L44.4643 43.6095V43.588L44.5077 43.5935L44.5026 43.5353L44.5292 43.537L44.5747 43.5281L44.7416 43.2327L44.7909 43.2415L44.895 42.9195L44.941 42.928L44.9603 42.7695L44.997 42.7611V42.638L45.0198 42.6435V42.4989L45.043 42.5027L45.0354 42.1803L45.0585 42.1841L44.9848 41.468L44.9439 41.4571L44.9161 41.251L44.8756 41.2405L44.844 41.0946L44.8036 41.0892L44.7597 40.9189L44.7142 40.913L44.67 40.741L44.6244 40.7145L44.6013 40.5261L44.5557 40.4979V40.3748L44.5347 40.3731V40.3343L44.5136 40.3272L44.4887 40.1194L44.4428 40.1126L44.4179 40.009L44.399 40.0073V39.9209L44.353 39.896L44.3332 39.767L44.2847 39.7413V39.6811L44.2405 39.6528V39.609L44.1962 39.5829L44.1714 39.4754L44.1524 39.4716L44.1263 39.4105L44.082 39.4V39.3418L44.0395 39.3296L43.9746 39.1795L43.9324 39.1762V39.129L43.8869 39.1235L43.8144 38.9671L43.7723 38.9616V38.9161L43.7301 38.9102L43.6631 38.7994L43.6193 38.7926L43.6155 38.7484L43.5716 38.7399L43.5046 38.6274L43.4591 38.6203V38.5798L43.3095 38.4917V38.4491L43.2652 38.4407V38.4003L43.13 38.2962L43.084 38.286L43.0419 38.1765L42.9976 38.1714L42.9504 38.0606L42.9327 38.0555L42.8817 37.927L42.8413 37.9181V37.8595L42.7974 37.8545V37.8089L42.7532 37.8035L42.5968 37.5502L42.553 37.5396V37.5042L42.5104 37.4941V37.4549L42.4649 37.4431L42.354 37.3285L42.3503 37.283L42.3064 37.2775V37.2353L42.2626 37.2261V37.1877L42.153 37.1262V37.0857L42.0687 37.052V37.0115L41.9309 36.9488L41.8437 36.8484L41.7539 36.6668L41.7063 36.6596L41.5971 36.4169L41.5567 36.4097V36.373L41.5111 36.3587L41.4618 36.2517L41.4176 36.2445L41.3105 36.065L41.2663 36.0544L41.2629 36.0156L41.2203 36.0051V35.9684L41.1765 35.9575V35.917L41.1293 35.9082V35.8694L40.9548 35.7341V35.6953L40.8634 35.6389V35.5929V35.5912L40.9653 35.56L40.9902 35.5263L41.0303 35.5301L41.0534 35.4977L41.0956 35.5053L41.1183 35.4682L41.1626 35.4787L41.1853 35.442L41.2275 35.4509L41.2435 35.4155L41.3316 35.41L41.3544 35.3767L41.4829 35.3607L41.4791 35.3384L41.5267 35.3468V35.3236L41.6532 35.3101V35.2907L41.7168 35.303V35.2802L41.7627 35.2907V35.2697L41.8049 35.2781L41.8298 35.2431L41.8702 35.2503L41.914 35.2166L41.9103 35.1812L41.9549 35.1656ZM50.703 43.245L50.6537 43.2344L50.5728 43.1202L50.529 43.1164L50.3258 42.8787L50.2015 42.754V42.7186L50.1151 42.6431L50.1117 42.601L50.0869 42.5938L50.0434 42.5289L50.0009 42.518L49.9777 42.4758L49.869 42.4353V42.416L49.7842 42.3843V42.3633L49.6945 42.3228L49.6734 42.2824L49.5487 42.2158V42.1976L49.4783 42.1715L49.4555 42.1222L49.3742 42.0868L49.3464 42.0447L49.3072 42.0345L49.2827 41.9916L49.2178 41.9583L49.1773 41.8934L49.1259 41.8811L49.1124 41.8369L49.061 41.8306L48.9746 41.7138L48.9363 41.7083L48.7584 41.4955L48.7201 41.4904V41.4694L48.6547 41.4167V41.3779L48.4807 41.2034L48.4752 41.1663L48.4293 41.133L48.3589 41.0399H48.366L48.3589 40.9994L48.4752 40.8797L48.5169 40.8886L48.5612 40.8372L48.605 40.8448L48.6299 40.806L48.6931 40.8005V40.7778L48.7357 40.7883L48.7584 40.7512L48.7955 40.755L48.8237 40.723L48.8604 40.7301L48.8836 40.693L48.9557 40.6863L49.0134 40.6159L49.0577 40.6264L49.0821 40.5873L49.1259 40.6003L49.2515 40.4819L49.3236 40.4714L49.3181 40.4326L49.45 40.3344L49.5356 40.2897L49.5588 40.2324L49.6224 40.2075V40.1633L49.6898 40.135V40.0946L49.7354 40.0828V40.0419L49.7775 40.0297V39.9909L49.8197 39.977L49.8424 39.9205L49.8601 39.9243L49.885 39.8484L49.925 39.8358L49.9516 39.7591L50.0165 39.7553L50.0763 39.6849L50.1206 39.6954L50.1648 39.6369L50.2065 39.6478L50.2297 39.609L50.2702 39.6196L50.3583 39.5315L50.4093 39.542L50.5568 39.4101L50.5977 39.4173L50.62 39.3806L50.6874 39.3524V39.3132L50.7085 39.317L50.7966 39.2323L50.8383 39.2415V39.1985L50.8826 39.1463L50.9631 39.1025V39.0633L51.0301 39.03V38.9946L51.0992 38.9672V38.9246L51.1447 38.9141L51.1397 38.8504L51.1869 38.8631L51.1839 38.7994L51.3769 38.6747V38.6342L51.5514 38.5862V38.5461L51.6833 38.5078V38.469L51.8802 38.3843V38.3455L51.9227 38.3493L52.0812 38.1592L52.1191 38.1677V38.1259L52.1638 38.1306L52.1583 38.0935L52.2059 38.1011L52.2923 37.997V37.9354L52.3594 37.9055L52.3977 37.7926L52.447 37.8035L52.4854 37.6682L52.5296 37.6767V37.5979L52.5705 37.6029V37.5254L52.616 37.5287L52.6354 37.4322L52.6548 37.4394L52.6809 37.3003L52.702 37.3054V37.2653L52.7197 37.267V37.1878L52.7408 37.1895V37.1528L52.7618 37.1557V37.0542L52.8057 37.0411V36.897L52.8482 36.8881L52.8449 36.7069L52.887 36.6968V36.3482L52.9098 36.3533V36.2686L52.9309 36.2816L52.8815 36.0047L52.8761 35.6579L52.8343 35.6389V35.4543L52.7901 35.4261L52.7846 35.2803L52.7408 35.2533V35.1517L52.7197 35.1479V35.1091H52.6965V35.0227L52.6759 35.0194V34.9578L52.6472 34.9511V34.9174L52.6316 34.9123V34.8276L52.6055 34.8255L52.5844 34.7222L52.5402 34.7113V34.6978L52.544 34.7012L52.5844 34.7113L52.6105 34.7551L52.6472 34.7627L52.6965 34.8331L52.7408 34.8386L52.7564 34.8841L52.8006 34.8875L52.887 35.0055L52.9309 35.0164L53.1104 35.2284L53.2423 35.3291L53.3076 35.4417L53.3515 35.4509L53.3725 35.5121L53.4804 35.6145V35.6549L53.5913 35.7552V35.7906L53.6351 35.8218V35.864L53.7 35.9099V35.9516L53.7422 35.9786L53.7497 36.0203L53.7898 36.0452L53.8092 36.1088L53.8302 36.1177L55.1658 37.5979L55.2097 37.6202V37.664L55.2539 37.6927L55.2754 37.7525L55.2961 37.758L55.6004 38.1112L55.6446 38.1243L55.6868 38.187L55.7327 38.1976L55.8031 38.2857L55.8419 38.2962L55.9118 38.3877L55.9472 38.3965L56.0863 38.5605L56.3649 38.8504L56.4509 38.9672L56.8272 39.3541L56.85 39.3962L56.936 39.4312L56.9575 39.4754L57.0401 39.5142L57.067 39.5564L57.9163 40.3921L57.9605 40.3976L58.0254 40.5122L58.0465 40.5156V40.5523L58.0908 40.5839V40.6003L58.135 40.6298V40.6686L58.1751 40.7002L58.1839 40.7373L58.2454 40.7883L58.5974 41.1541L58.6361 41.1613L58.6589 41.2034L58.7019 41.2144L58.7436 41.2793L58.7879 41.2894L58.83 41.3547L58.8759 41.3653L58.9408 41.4571L58.9847 41.4605L59.1587 41.6746L59.2047 41.6822V41.6999L59.2683 41.7564V41.7947L59.4651 41.9916L59.7538 42.2613V42.2824L59.7956 42.2874V42.3102L59.8331 42.3334L59.9212 42.3742L60.0337 42.4509L60.0531 42.4969L60.1235 42.55L60.1656 42.5601L60.2339 42.6044L60.2478 42.6537L60.3135 42.7009L60.3595 42.7097L60.4016 42.7611L60.4244 42.8071L60.7729 43.1468L61.2778 43.6567L61.3217 43.706L61.3587 43.7098L61.3887 43.7516L62.4971 44.7799V44.7972L62.5641 44.8465L63.2191 45.5642L63.2612 45.5731L63.3493 45.6915L63.391 45.6962L63.4125 45.7438L63.5461 45.8656L63.6325 45.9638L63.7429 46.0995L63.8331 46.2171L63.8947 46.309L63.9368 46.3756L64.0089 46.5058L64.0902 46.6204L64.1336 46.7102L64.1585 46.754L64.2255 46.8864V46.9298V46.9475L64.2483 46.9492L64.2693 47.0305L64.2904 47.0356V47.0828V47.0958L64.3132 47.1005V47.143L64.3347 47.1464V47.2063L64.3562 47.2079L64.3646 47.2716L64.3789 47.2733L64.3857 47.3348L64.4 47.3382L64.542 47.9371V48.1777L64.5652 48.1815L64.5458 48.6953L64.5302 48.6915V48.8289L64.5108 48.8255V48.9241H64.4898V49.0223L64.4653 49.0189L64.47 49.0982L64.4506 49.0931V49.1719L64.4274 49.1702V49.2322L64.405 49.2246L64.3857 49.3603L64.3646 49.357V49.3974L64.3397 49.3936V49.4501H64.317L64.3241 49.4872L64.3031 49.4851V49.5449L64.2803 49.5399L64.2415 49.6507L64.2154 49.6469V49.6878L64.1939 49.6789V49.7228L64.1728 49.7173V49.7616L64.148 49.7544L64.1126 49.8657L64.0902 49.8635L64.067 49.9179L64.0228 49.9284L64.0021 50.0064L63.9579 50.0165V50.0532L63.8947 50.0819V50.1257L63.8331 50.1522V50.1944L63.7522 50.2365V50.2787L63.5571 50.395L63.386 50.5484L63.3451 50.5412L63.2789 50.6062L63.233 50.599L63.1963 50.6538L63.1449 50.6449L63.1048 50.6904L63.0652 50.6854L63.0425 50.7204L62.9797 50.7296V50.7503L62.8916 50.7537L62.8684 50.7874L62.7386 50.8047L62.7175 50.8388L62.5275 50.8632V50.8826L62.4394 50.8864V50.9092L62.3724 50.8965V50.9176L62.337 50.9092V50.9269L62.2653 50.9176V50.9357L62.1996 50.9269V50.9425L62.1384 50.9319V50.9492L62.0748 50.9387V50.9598L61.9867 50.9425V50.9631L61.8986 50.9458V50.9686L61.795 50.9458V50.9686C61.795 50.9686 61.1476 50.8843 60.8905 50.8215C60.6305 50.7537 59.9722 50.5075 59.9722 50.5075L59.8786 50.478L59.847 50.4671V50.4443L59.7366 50.4055V50.3862L59.6552 50.3545V50.3314L59.5848 50.3212V50.2998L59.4963 50.2665V50.242L59.4087 50.207L59.3872 50.1628L59.2557 50.0996V50.0819L58.6294 49.6861V49.6642L58.5434 49.6507V49.6292L58.4777 49.6157V49.593L58.4128 49.5858V49.5643L58.3457 49.5344L57.3482 48.8478L57.3022 48.8449L57.2141 48.7231L57.1686 48.7176L56.5596 48.2519V48.2287L56.4804 48.1916V48.1739L56.4083 48.1638V48.1389L56.2831 48.074V48.058L56.2376 48.0509V48.0285L56.15 47.9931L56.123 47.9472L55.9982 47.884L55.97 47.8414L55.9329 47.8363V47.8098L55.868 47.7849L55.8448 47.7356L55.8031 47.7327L55.7534 47.6618L55.7167 47.6534L55.6922 47.6146L55.6518 47.6041L55.5565 47.4853L55.5144 47.481L54.7996 46.8914V46.8703L54.6677 46.8046V46.7835L54.626 46.7772V46.7578L54.5817 46.7452V46.7279L54.4519 46.6676L54.4325 46.6204L54.3427 46.5888L54.3196 46.5391L54.2348 46.5058L54.1944 46.432L54.1468 46.4287L54.1257 46.3886L54.0802 46.3772L54.0342 46.309C54.0342 46.309 53.2971 45.7244 53.0118 45.4627C52.8652 45.3225 52.5371 45.0245 52.2495 44.7634L52.2494 44.7633C52.0052 44.5416 51.7904 44.3465 51.7411 44.2973L51.6623 44.2215V44.1777L51.5514 44.079L51.5299 44.0175L51.4878 43.9488L50.703 43.245ZM35.0331 38.532V38.5691L35.2093 38.6871V38.7238L35.3888 38.8367V38.8776L35.452 38.8928V38.91L35.4752 38.9564L35.5397 39.0268L35.5844 39.0356V39.0972L35.6316 39.1039L35.6775 39.2152L35.7003 39.2185V39.259L35.7428 39.2889V39.3454L35.7846 39.3559V39.3947L35.8288 39.4027L35.8781 39.5144L35.9199 39.5228V39.5599L35.9662 39.5721L36.0716 39.7551L36.1188 39.7589V39.7993L36.2933 39.9329L36.2983 39.9751L36.3422 39.9839V40.0244L36.4551 40.0842V40.123L36.4994 40.1335V40.174L36.6507 40.2638L36.6738 40.308L36.7387 40.324L36.7615 40.3641L36.8036 40.3729V40.3923L36.8757 40.4273V40.4665L36.955 40.4838V40.5242L37.0709 40.5858L37.381 40.9642V41.0047L37.427 41.014L37.6638 41.2795V41.3195L37.7132 41.325V41.3676L37.784 41.3781V41.4219L37.8223 41.4304V41.4696L38.1097 41.6664L38.1991 41.7418V41.7616L38.245 41.7705L38.2484 41.7878L38.2906 41.7983L38.3083 41.8371L38.3803 41.8514L38.3997 41.8986L38.465 41.9091V41.9319L38.5514 41.9686V42.0061L38.6619 42.071V42.1097L38.7116 42.1169V42.1557L38.7478 42.1645L38.822 42.2387V42.2771L38.8625 42.2859V42.3285L38.9063 42.3335L39.0226 42.4549V42.4966L39.0648 42.5025L39.4137 42.8153V42.854L39.4841 42.8646V42.9088L39.5929 42.9653V42.9826L39.6582 43.002V43.0214L39.7458 43.0547V43.0972L39.8411 43.1128V43.1533L39.9928 43.2026L40.0118 43.2452L40.0995 43.2641V43.2999L40.2086 43.3223L40.2318 43.3699L40.3477 43.3859V43.4066L40.4113 43.4213V43.442L40.4973 43.458V43.4753L40.6507 43.5094L40.6739 43.5494L40.9183 43.5988L40.9394 43.6447L41.1552 43.6797V43.6991L41.2205 43.7096V43.7324L41.3318 43.7517V43.7732L41.3811 43.7838L41.4018 43.8276L41.5779 43.8765V43.9174L42.3665 44.1479L42.6518 44.1985V44.1778L42.6923 44.1884V44.1673L43.1146 44.2023V44.1635L43.5053 44.1353V44.0969L43.5664 44.0986L43.5491 44.1087V44.1488L43.4399 44.2116L43.3148 44.3043V44.3414L43.2477 44.3519L43.104 44.4859L43.0581 44.4767L42.9928 44.5437L42.9506 44.5314L42.8819 44.6018L42.8415 44.593L42.7976 44.6423L42.7534 44.6385L42.7327 44.6718L42.6729 44.6827V44.7021L42.6274 44.6933L42.6063 44.7283L42.5401 44.7392V44.7569L42.4158 44.7708L42.3892 44.8096H42.3011V44.829L42.2628 44.8218V44.8463L42.2202 44.8341V44.8568L42.09 44.8728V44.8922L42.0306 44.8779V44.8956L42.0196 44.9516L41.9741 44.9415L41.8704 45.0435L41.7676 45.0296V45.0701L41.6433 45.1455L41.4528 45.309L41.4018 45.3023L41.2315 45.4093L40.9761 45.5295L40.9129 45.5362V45.5573L40.869 45.5472L40.8459 45.5851L40.7599 45.5889L40.7443 45.6226L40.6933 45.6188L40.6541 45.6487L40.6115 45.6382V45.6593L40.5677 45.6508V45.6732L40.5255 45.6631V45.6841L40.4834 45.6749V45.6964L40.4396 45.6879V45.7069L40.3936 45.7018V45.7157L40.2634 45.7351V45.7545L40.1985 45.7436V45.7613L40.1614 45.7545V45.7756L40.0965 45.7613V45.779L40.0345 45.8021V45.8232L39.9696 45.8123V45.8283L39.9064 45.8194V45.8371L39.6055 45.9606L39.5191 46.0411L39.4749 46.0377L39.3885 46.1241L39.3434 46.1115L39.3046 46.1612L39.2641 46.1557L39.2165 46.2051L39.1744 46.1996L39.1529 46.2316L39.0648 46.2379L39.042 46.2754L38.9784 46.2843V46.3037L38.8907 46.3049L38.8751 46.3441L38.7415 46.3559V46.377L38.7011 46.369V46.3901L38.6568 46.3808V46.4019L38.6125 46.3964V46.4162L38.4827 46.4284V46.4512L38.4229 46.4318V46.455L38.3803 46.4512V46.4689L38.3083 46.455L38.312 46.4782L38.2691 46.4689V46.4916L38.2042 46.4782L38.2096 46.4954L38.1447 46.4832V46.5043L37.7292 46.6678L37.6887 46.6628L37.6061 46.7433L37.5623 46.7331L37.518 46.7892L37.4742 46.7787L37.4295 46.8292L37.3861 46.8208L37.3701 46.8596L37.3279 46.8503L37.2803 46.9034L37.196 46.9051L37.175 46.9439L37.0902 46.9477L37.0709 46.9814L36.9406 46.997L36.92 47.0307L36.8546 47.0218L36.8285 47.0581L36.1226 47.1833L36.0366 47.1689V47.1871L35.9468 47.1727V47.1938L35.8604 47.1782V47.1938L35.7757 47.1782V47.1989L35.6703 47.1782V47.1989L35.5629 47.1782V47.1989L35.3888 47.1689V47.1871L34.5864 47.0581V47.0408L34.331 46.9894V46.9704L34.1552 46.935L34.1497 46.9211L34.0262 46.8967V46.8735L33.9386 46.8596V46.8402L33.8298 46.8191V46.798L33.5883 46.7146V46.6956L33.5234 46.6838V46.6628L33.3721 46.6172V46.5979L33.3262 46.5886V46.5675L33.263 46.5553V46.5338L33.2204 46.5292V46.5081L33.1593 46.4954V46.4782L33.0729 46.4406V46.4196L33.0076 46.409V46.3901L32.874 46.3264V46.3037L32.8335 46.2931V46.2754L32.7454 46.2417L32.7244 46.1975L32.5924 46.1326L32.5697 46.087L32.4829 46.0559V46.031L32.418 46.0011L32.3969 45.9585L32.3531 45.9501L32.3303 45.902L32.2877 45.897L32.2439 45.8283L32.2017 45.8232L32.1575 45.7545L32.1137 45.7474L32.0698 45.677L32.0041 45.6458L31.8106 45.4093L31.7634 45.4043L31.605 45.1965L31.5683 45.186L31.4591 45.0469V45.0064L31.4149 44.9803V44.9609L31.3723 44.931V44.8922L31.3074 44.8412V44.8008L31.2446 44.7514V44.7055L31.1966 44.6827L31.1759 44.6174L31.1494 44.6124V44.5736L31.1072 44.5437L31.0878 44.4859L31.063 44.4783L31.0368 44.3924L30.9964 44.3624V44.3258L30.9504 44.2765V44.2411L30.9315 44.236V44.1939L30.9083 44.1901V44.1513L30.8872 44.1479L30.8434 44.0177H30.8219L30.8008 43.9119L30.7793 43.9064V43.8643H30.7549V43.8049L30.7309 43.7998L30.7111 43.7151H30.6866L30.6424 43.5094L30.6213 43.5056V43.442H30.5985V43.3821L30.5753 43.3733L30.5505 43.2308L30.5315 43.2275L30.5281 43.1482L30.5071 43.1415L30.4839 42.8996L30.5281 41.2192H30.5505V41.1648L30.5703 41.1665V41.1084L30.5935 41.1117L30.6529 40.8618L30.6816 40.8673V40.8268L30.6971 40.8357V40.7741L30.7182 40.7775L30.741 40.7004L30.7549 40.7055V40.6477L30.7831 40.6511L30.8063 40.5718L30.8274 40.5786V40.5171L30.8674 40.5031V40.4682L30.9083 40.4378V40.3961L30.9315 40.3978V40.3586L30.9471 40.3624V40.324L30.9926 40.3114L31.012 40.2355L31.0575 40.225V40.1828L31.098 40.1689L31.1211 40.0985L31.1603 40.0842V40.0421L31.2231 40.0189V39.9751L31.2885 39.9464V39.9064L31.3938 39.8486V39.8111L31.4785 39.7656V39.7235L31.5262 39.6956L31.5894 39.6864V39.6476L31.6349 39.6337L31.672 39.5827L31.779 39.5418V39.5056L31.825 39.4706L31.8654 39.4807L31.9308 39.4103L31.9784 39.4192L32.0559 39.3349L32.1031 39.3433L32.1453 39.2906L32.1912 39.3012L32.2317 39.2502L32.2772 39.2556L32.297 39.2219L32.3813 39.2185L32.4024 39.1794L32.4673 39.176V39.1536L32.5554 39.1503L32.5781 39.1128L32.6139 39.1233L32.6573 39.0896L32.7083 39.0972V39.0761L32.7454 39.0862V39.0685L32.7935 39.074L32.8108 39.0386L32.874 39.0512V39.0285L32.9616 39.023V39.0057L33.0287 39.0162V38.9998L33.11 38.9948V38.9737L33.177 38.988V38.9669L33.2204 38.9737V38.9564L33.5019 38.9488V38.9269L33.5673 38.9387V38.9159L33.6326 38.9315V38.91L33.8893 38.9159L33.9141 38.8839L33.9546 38.8928L33.9934 38.8384L34.0393 38.8506L34.0793 38.7925L34.1236 38.8034L34.167 38.7486L34.2096 38.7613L34.2328 38.7238L34.3187 38.7221L34.3419 38.6871L34.3803 38.6926L34.4072 38.6538L34.4435 38.6639L34.4667 38.6277L34.5105 38.6378L34.5564 38.6062L34.5969 38.6129V38.5977L34.6424 38.6007V38.5834L34.6846 38.5902L34.9964 38.5092L35.0331 38.532Z" fill="#ADCB53"/>
<path fill-rule="evenodd" clip-rule="evenodd" d="M15.0278 32.8004L15.0733 32.7106L15.0927 32.7123L15.1138 32.6381L15.1386 32.6419L15.1336 32.5998L15.1547 32.607V32.5437L15.1757 32.5484L15.2179 32.438L15.2406 32.443V32.4013L15.2638 32.4063V32.3676L15.2845 32.3726L15.2794 32.3326L15.3038 32.3343V32.2955L15.3308 32.3022V32.2601L15.3658 32.2285V32.188L15.4092 32.1775L15.4273 32.0999L15.4762 32.0894L15.491 32.0123L15.542 32.0013L15.5344 31.9647L15.5559 31.9663V31.9259L15.6014 31.9149V31.8749L15.6402 31.8639V31.8239L15.6895 31.8112L15.6811 31.7695L15.7266 31.7565V31.7168L15.7932 31.6916V31.6511L15.8568 31.6229V31.5794L15.9672 31.523V31.4842L16.0081 31.4737V31.4526L16.0465 31.4399V31.3999L16.5821 30.7433L16.6045 30.745L16.6588 30.6784L16.6786 30.6838V30.6215L16.7018 30.6236L16.698 30.5903L16.7191 30.5937V30.53L16.7457 30.5355L16.784 30.4225H16.8055V30.3897L16.8266 30.3926V30.3543L16.8489 30.3576V30.3172H16.8649V30.2805L16.8915 30.2839V30.2434L16.9109 30.2506V30.208L16.9303 30.2131V30.1714L16.9758 30.141V30.0989L17.0167 30.0883L17.0394 30.0129L17.0778 30.0023L17.1064 29.9269L17.1414 29.9122V29.8759L17.1658 29.8772V29.8409L17.2295 29.8106L17.2455 29.7297L17.3172 29.7086L17.3121 29.666L17.377 29.6416L17.4883 29.5202V29.4781L17.53 29.4886L17.5688 29.4199H17.5898V29.3832L17.6109 29.3849L17.6783 29.3196L17.7205 29.3091V29.2648L17.7382 29.2686L17.8048 29.2016L17.8452 29.2117L18.4117 28.5947L18.4066 28.5593L18.4349 28.5643L18.4521 28.4851L18.4732 28.4906V28.4522L18.4964 28.4556V28.413L18.5158 28.4168V28.3797L18.539 28.3835V28.3414L18.5617 28.3494V28.3115H18.5811V28.2672L18.5988 28.2765V28.2373L18.6249 28.239L18.6195 28.2002L18.6637 28.1648V28.1281L18.7059 28.118L18.7286 28.04L18.7918 28.0139L18.81 27.938L18.8538 27.9275V27.8854L18.8749 27.8892V27.85L18.9187 27.8382L18.9398 27.7796L19.0068 27.7535V27.7164L19.0721 27.6864L19.0894 27.6123L19.1985 27.5507V27.5103L19.301 27.4508V27.4121L19.6208 27.0492L19.6381 27.0564V27.0176L19.6613 27.0231L19.6862 26.8857L19.7085 26.8928L19.7034 26.8486L19.73 26.8524L19.7473 26.7394L19.7684 26.7432V26.7028L19.7915 26.7099V26.6497L19.8113 26.6513L19.8307 26.5776H19.8514V26.5198L19.8725 26.5266L19.9184 26.4145L19.9374 26.417V26.377L19.9589 26.382V26.342L19.9816 26.3441V26.3015L20.001 26.3104V26.2699L20.0204 26.2733V26.2349L20.0431 26.2362V26.1974L20.0621 26.2029V26.1624L20.1085 26.1308V26.0904L20.1489 26.0798L20.1949 25.9652L20.2336 25.9551V25.9142L20.2985 25.8898L20.3196 25.8122L20.3635 25.8V25.7612L20.4284 25.7342V25.6942L20.4431 25.6963L20.4638 25.6382L20.5118 25.6272V25.5872L20.5995 25.5467V25.5058L20.7015 25.4481V25.4076L20.8304 25.3313V25.2913L21.0816 24.9006L21.1099 24.9023L21.1027 24.8635L21.1276 24.8711L21.1676 24.6962L21.1904 24.7017V24.6629L21.2118 24.665V24.6068L21.2325 24.6119L21.2523 24.5365L21.2784 24.5381V24.4766L21.2923 24.48L21.3336 24.3713L21.3577 24.3742V24.3375L21.3804 24.343V24.3004H21.4053L21.3986 24.2617L21.4285 24.2688L21.4192 24.2288L21.4479 24.2339L21.4424 24.1879L21.4685 24.1947L21.4613 24.1559L21.4841 24.1597V24.1158L21.5288 24.0876V24.0488L21.5739 24.0345L21.5954 23.9607L21.632 23.9464L21.6531 23.8727L21.6986 23.8621V23.8217L21.7416 23.8094V23.7707L21.785 23.7589V23.7197L21.8221 23.7075V23.6615L21.8731 23.6548L21.8571 23.5928L21.9136 23.5595V23.5245L22.0033 23.4807L22.0244 23.4221L22.2162 23.16V23.063L22.2373 23.0668V23.0074L22.2604 23.012L22.2516 22.9526L22.2794 22.956V22.8768L22.2967 22.8822V22.8186L22.3519 22.8291V22.771L22.3768 22.7765L22.3725 22.7162H22.3953V22.6778L22.4168 22.6833L22.4374 22.5691L22.4606 22.572L22.4547 22.5303L22.48 22.5354V22.4755L22.5028 22.481L22.5201 22.4035L22.5466 22.4106L22.5411 22.3664L22.5626 22.3719V22.3154L22.5871 22.3209L22.6279 22.21H22.6503V22.1696L22.6718 22.1725L22.6663 22.1358L22.6929 22.1375L22.7312 22.0254L22.7776 22.0107V21.9512L22.8176 21.939L22.8404 21.8686L22.8787 21.856V21.8122L22.9213 21.805V21.7616L22.9668 21.7502V21.7102L23.0081 21.6992V21.6625L23.0549 21.6469V21.6094L23.0764 21.6115L23.092 21.5551L23.1413 21.5466V21.5058L23.2007 21.4779V21.4354L23.3082 21.3789V21.3405L23.6251 20.8795V20.823H23.6462V20.7648L23.6639 20.7703V20.686L23.6904 20.6894L23.685 20.654L23.7081 20.6586V20.5979L23.7305 20.6017V20.5625L23.7494 20.5642V20.501L23.7709 20.5099V20.4673L23.7958 20.4744V20.4129L23.8114 20.4167L23.8329 20.3408L23.8548 20.348V20.3076H23.8763V20.2477L23.9201 20.2372V20.1807L23.9399 20.1841V20.144L23.961 20.1457L23.9576 20.1065L24.0074 20.0947L24.0015 20.0543L24.0453 20.0243V19.9818L24.0664 19.9856V19.9464L24.0879 19.9539V19.9114L24.1317 19.9008L24.1524 19.8254L24.1966 19.8161V19.7744L24.2358 19.7605V19.723L24.2843 19.7091L24.2775 19.669L24.3218 19.6577V19.6176L24.3656 19.605V19.5649L24.4322 19.535V19.5013L24.4904 19.4676V19.4288L24.7685 19.0402L24.7909 19.0491V18.9892L24.814 18.9926V18.9311L24.8296 18.9365V18.8771L24.8511 18.8784V18.8046L24.8722 18.8063V18.7642L24.8954 18.7654L24.9392 18.599L24.9586 18.6006V18.5615L24.9809 18.5652L24.9776 18.5054L24.9986 18.5109L25.0193 18.4367L25.0408 18.4388L25.0636 18.3469L25.0846 18.349L25.1238 18.2361L25.1449 18.2378V18.1973L25.1706 18.2045L25.1681 18.1674L25.1938 18.1695L25.1904 18.1303L25.2098 18.132V18.0932L25.2557 18.0599V18.0195L25.2962 18.0089L25.3152 17.9318L25.3577 17.9229L25.3805 17.8475L25.4209 17.8298L25.4458 17.756L25.5086 17.7312L25.5057 17.6903L25.5478 17.6781V17.6376L25.5916 17.6275L25.611 17.5689L25.6764 17.5445V17.5023L25.7236 17.4922L25.7181 17.4703L25.7606 17.4619V17.4197L25.847 17.3755V17.3384L26.4185 16.5675V16.5275L26.44 16.5342V16.4942L26.486 16.4794V16.4428L26.5281 16.4091V16.369L26.5454 16.3724V16.3353L26.5897 16.3231L26.6103 16.2455L26.6318 16.2502L26.6546 16.1967L26.695 16.1802L26.7178 16.1052L26.7797 16.0786V16.0403L26.8219 16.0276V15.9817L26.8872 15.9589V15.9185L26.9698 15.8785V15.8321L27.0575 15.7899V15.755L27.253 15.6302L27.2475 15.5893L27.2969 15.5788L27.3339 15.5244L27.3799 15.535L27.5539 15.387L27.5961 15.3938L27.658 15.3272L27.6998 15.336L27.7857 15.2513L27.8245 15.2585L27.8705 15.2092L27.9147 15.2142L27.9413 15.1788L27.999 15.1725V15.1493L28.0416 15.1616L28.0643 15.1266L28.1098 15.135L28.1313 15.0966L28.1979 15.0865V15.0667L28.3265 15.0528L28.3425 15.0191L28.388 15.0263L28.4285 14.9909L28.4744 14.9997V14.9824L28.5166 14.9875V14.9719L28.5642 14.977L28.5836 14.9399L28.6417 14.9521V14.9327L28.7298 14.926V14.9099L28.7947 14.9209V14.9011L28.8828 14.896V14.8788L28.9477 14.8872V14.8695L28.9915 14.8788V14.8594L29.0569 14.8695V14.8522L29.094 14.8594V14.8345L29.4648 14.7696L29.5023 14.778L29.5251 14.738L29.6128 14.7359L29.6338 14.6992L29.7219 14.6954V14.6743L29.7645 14.6832V14.6642L29.8897 14.6461V14.6305L29.9546 14.6351V14.6196L30.0443 14.6145V14.5968L30.1071 14.609V14.5863L30.1535 14.5968V14.574L30.2766 14.5812L30.2812 14.5618L30.3436 14.5719V14.5492L30.4085 14.5635V14.5458L30.4734 14.5563V14.5353L30.5598 14.5492V14.5315L30.6462 14.5458V14.5298L30.7545 14.5458V14.5298L32.4618 14.926V14.9475L32.5288 14.9593V14.977L32.5925 14.9875V15.0086L32.6574 15.0225V15.0419L32.7244 15.0528V15.0735L32.7686 15.0827V15.1L32.8336 15.1101V15.135L32.9195 15.1687V15.1881L32.9844 15.1986V15.2239L33.1151 15.2867V15.304L33.2015 15.339L33.2242 15.3832L33.3123 15.4207L33.3334 15.4625L33.3772 15.4717L33.4 15.5156L33.4421 15.5244L33.4653 15.5678L33.5058 15.5771L33.5281 15.6193L33.5724 15.6264L33.5972 15.6719L33.639 15.6791L33.703 15.7706L33.7485 15.7794L33.8328 15.894L33.8792 15.9029V15.9185L33.9226 15.9514V15.9906L34.2711 16.3918L34.3348 16.4466V16.4832L34.4069 16.5363V16.5747L34.4431 16.5996L34.4667 16.6704H34.4916V16.7121L34.5316 16.7386L34.5598 16.8019L34.5754 16.809V16.8474L34.6247 16.8971V16.9338L34.6479 16.9355V16.9776L34.669 16.9852V17.0231H34.6897V17.064L34.7111 17.0729V17.1112L34.7255 17.1137L34.7761 17.2419L34.7971 17.249V17.3034L34.822 17.3106V17.3493L34.8431 17.3548V17.4142L34.8629 17.418V17.4619H34.8907V17.5213L34.9067 17.5272V17.5845L34.9328 17.5883L34.9573 17.7329L34.9771 17.7346L35.2021 18.4101L35.2177 18.4194L35.2481 18.4999L35.267 18.5054L35.2902 18.6289L35.3134 18.6318V18.6727L35.3345 18.6744L35.4049 18.9471L35.4188 18.9505V19.0137L35.4487 19.0154V19.0773L35.4698 19.079V19.1544L35.4908 19.1637L35.5347 19.4676V21.1189L35.4946 21.3899L35.4753 21.3844V21.4459L35.4521 21.443V21.5024L35.267 22.5388L35.251 22.5354L35.2586 22.7765H35.2283L35.2354 22.9505L35.2127 22.9471V23.0647L35.1916 23.063V23.1794L35.1663 23.1777V23.2763L35.1474 23.2729V23.3484H35.1334L34.9012 24.0838L34.8818 24.0775L34.8591 24.1559L34.838 24.1508V24.2107L34.8152 24.2052L34.7938 24.2806L34.7727 24.2756V24.3165L34.7499 24.3106L34.7571 24.3713L34.7111 24.3847V24.4235L34.669 24.4534L34.433 24.9693L34.4174 25.0203L34.3959 24.9693L34.331 24.9179L34.3082 24.8302L34.2433 24.7839V24.7421L34.1991 24.7139V24.6701L34.1342 24.6191L34.0849 24.5508L34.0638 24.5453V24.5065L33.977 24.4311L33.8661 24.2688L33.8244 24.2617L33.8012 24.1947H33.778V24.1335L33.7536 24.126V24.0644L33.7325 24.0632V24.0012L33.7064 23.9978V23.9363L33.6866 23.9329V23.8744L33.6659 23.8727V23.8094L33.6427 23.8073L33.6006 23.6742H33.5724V23.6333L33.5568 23.6278V23.5899L33.5281 23.5844V23.5456L33.5058 23.5401V23.498L33.4864 23.4963V23.4558L33.4421 23.4082V23.3661L33.4 23.3395L33.3562 23.2114L33.2854 23.1583V23.1145L33.1977 23.0424L33.177 22.9771L33.1307 22.9471V22.9067L33.0641 22.8553V22.8152L33.0009 22.7642V22.7238L32.8437 22.572L32.8209 22.5105L32.7788 22.5004V22.4616L32.6907 22.4035L32.5815 22.2623L32.5322 22.2543V22.2366L32.4218 22.1514V22.1148L32.3636 22.0781V22.0621L32.2932 22.0322L32.2722 21.9845L32.1398 21.9226L32.1175 21.8737L32.0522 21.8459V21.8244L32.0117 21.8189L31.9603 21.7679L31.9198 21.7616V21.7397L31.8794 21.7312L31.8516 21.6874L31.8107 21.6836V21.6625L31.7635 21.6537L31.7192 21.6044L31.6754 21.5955L31.6543 21.5521L31.4588 21.4531V21.4337L31.4149 21.4265V21.4055L31.2847 21.3633L30.7794 21.1273L30.5404 21.0607V21.0447L29.8404 20.8917L28.5322 20.9128L28.4618 20.8993V20.9182L28.337 20.9393V20.9532L28.251 20.9621L28.2279 20.9937L28.1861 20.9869V21.0063L28.1419 20.9992V21.0219L28.0976 21.0127L28.0534 21.0447L28.0117 21.0346L27.9885 21.0729L27.8599 21.0906L27.8144 21.1399L27.7246 21.1471L27.7107 21.1804L27.6387 21.1909V21.2065L27.575 21.2175L27.5801 21.2558L27.4642 21.2984V21.3157L27.4271 21.3085L27.3184 21.4109L27.232 21.4337V21.4779L27.167 21.4813V21.5197L27.1224 21.5327V21.5551L27.0785 21.5466L26.9698 21.6432V21.6874L26.9538 21.6836L26.9116 21.7578L26.8661 21.7468L26.8446 21.8016L26.8219 21.7995L26.8012 21.856L26.7532 21.8686L26.7355 21.9437L26.6756 21.9723L26.6267 22.0781L26.5804 22.0958L26.5897 22.1375L26.5454 22.1696V22.21H26.5243V22.2484L26.502 22.245V22.2821L26.4805 22.2749V22.3209L26.4594 22.3154V22.3542L26.4346 22.3491L26.3907 22.4616H26.3696L26.1585 23.0824L26.1248 23.4769L26.0991 23.4714L26.0881 23.9329H26.1037L26.1286 24.343L26.153 24.3481L26.1796 24.5925L26.1969 24.5963L26.2023 24.6755L26.2234 24.6785V24.7581L26.2428 24.7653L26.25 24.8424L26.2677 24.8479L26.2748 24.9073L26.2938 24.9149V24.9744L26.3149 24.9798V25.0397H26.3342V25.1025L26.3608 25.1063V25.1682L26.3802 25.1699V25.2319L26.4029 25.2386V25.2964L26.424 25.3001L26.475 25.4304L26.4944 25.4325V25.4725H26.5121L26.5155 25.5147L26.5399 25.5218V25.5623L26.5614 25.564V25.6082L26.5804 25.6116V25.6483L26.6267 25.6993V25.738L26.6756 25.7675L26.7178 25.8944L26.7797 25.9458L26.8059 26.0318L26.8518 26.0621L26.8712 26.1254L26.8923 26.1287L26.9167 26.1941L26.9576 26.2029V26.2379L27.0225 26.2927V26.331L27.0718 26.3614V26.4035L27.1367 26.4562V26.4773L27.1772 26.4811L27.2265 26.5316L27.2475 26.5936L27.3339 26.6707V26.7331L27.3567 26.7394V26.7959L27.3799 26.8031L27.3849 26.8591L27.406 26.8667V26.9261L27.4271 26.9295V26.97L27.4486 26.9738L27.4709 27.0985L27.4941 27.1036L27.5434 27.2325L27.5645 27.2359V27.2768L27.586 27.2814V27.3206L27.5995 27.3223V27.3649L27.6277 27.3712V27.4066L27.6736 27.4597V27.498L27.7141 27.5229L27.7596 27.6548L27.8245 27.7096L27.8511 27.7901L27.8949 27.8188L27.9147 27.8854L28.0045 27.9591V28.0034L28.1158 28.1033V28.1403L28.2721 28.2921L28.2932 28.3532L28.337 28.3641L28.4036 28.5171L28.4462 28.7055L28.4744 28.7089V28.7498L28.4934 28.7548V28.8147L28.5166 28.8164L28.5642 28.9428L28.5836 28.95V28.9887L28.6046 28.9942V29.0359L28.6274 29.0414V29.0802L28.6464 29.084V29.1434L28.6923 29.1733L28.7189 29.2559L28.7648 29.2842L28.8048 29.4127L28.8491 29.4405V29.4831L28.8933 29.5109L28.9195 29.5956L28.9587 29.6222V29.6643L29.0463 29.7364V29.7807L29.1395 29.8544V29.8982L29.2048 29.9514L29.2313 29.9918L29.2752 30.0007V30.0217L29.3123 30.0517V30.0921L29.3827 30.1204L29.4071 30.1869L29.4476 30.1941L29.4707 30.2401L29.4914 30.2417V30.2839L29.5356 30.3142L29.5567 30.4339L29.5828 30.4419V30.4824L29.6077 30.4862V30.5443L29.6271 30.5477L29.6726 30.6784L29.692 30.6838V30.7239L29.7152 30.7277V30.7698L29.7375 30.7715V30.8099L29.7607 30.812V30.8558L29.7818 30.8579V30.9017L29.8239 30.9489L29.8273 30.9894L29.8753 31.0193L29.912 31.1479L29.9824 31.1972L30.0039 31.2625H30.0266V31.3025L30.0915 31.359V31.3999L30.1834 31.4753V31.5158L30.2694 31.59V31.6338L30.4258 31.7868L30.4451 31.8483L30.4894 31.8517V31.8943L30.5543 31.9259V31.9453L30.6685 32.0506V32.0894L30.7111 32.1155V32.1547L30.7338 32.1585V32.2024L30.7545 32.2057V32.2652L30.7794 32.2706L30.843 32.4329H30.8325L30.8169 32.5458L30.7958 32.5437V32.5838L30.7726 32.5787V32.6381L30.7499 32.6335V32.6967L30.7309 32.6929V32.7317L30.7111 32.725V32.7865L30.6862 32.781L30.6685 32.8569L30.6462 32.8497V32.9129L30.6268 32.9096L30.5804 33.0204L30.5598 33.0154V33.0592L30.5438 33.0503V33.1102L30.502 33.1258V33.1629L30.4789 33.1599V33.221L30.435 33.2311V33.2716L30.4152 33.2665V33.3036L30.3748 33.3407V33.3778L30.3309 33.3896L30.2888 33.5005L30.2441 33.5169V33.5536L30.1834 33.5818L30.164 33.656L30.0987 33.6872V33.7259L30.0545 33.7369L30.0317 33.7946L30.0089 33.7879V33.8296L29.944 33.8583V33.8983L29.8404 33.9957L29.5968 34.3223L29.5618 34.3847L29.5411 34.3809V34.4369L29.5213 34.4302V34.5111L29.4981 34.5094V34.5705L29.4813 34.5642L29.4476 34.6198L29.4265 34.6131V34.6763L29.4071 34.6708V34.729L29.3827 34.7256V34.7644L29.3616 34.7606V34.8226L29.3401 34.8154V34.858L29.319 34.8504L29.2625 34.9595L29.2469 34.9579L29.2204 35.0354L29.2048 35.0266V35.067L29.182 35.0636V35.1273L29.1605 35.1235L29.1171 35.1374L29.1289 35.1412L29.1344 35.1812L29.1041 35.1766L29.0691 35.2887L29.0253 35.2992L28.981 35.4118L28.9355 35.4261L28.8984 35.5302L28.8563 35.5508V35.5829L28.8086 35.5951V35.6389L28.7686 35.6499V35.6899H28.7437L28.7222 35.7447L28.6805 35.7553V35.7907L28.619 35.8218V35.8644L28.5777 35.8733V35.9137L28.5322 35.928L28.573 35.9521L28.522 35.9609V36.0052L28.4407 36.1426V36.1826L28.2932 36.2686V36.3145L28.2072 36.3537L27.7596 36.929L27.7385 36.9256L27.7141 37.0011L27.6998 36.9973V37.0403L27.6736 37.0352V37.0925L27.658 37.0892L27.6121 37.2013L27.5893 37.2V37.235L27.57 37.2316V37.2738L27.5468 37.2674L27.5539 37.3075L27.5308 37.3054V37.3441L27.4869 37.3728V37.4145L27.4431 37.4284V37.4849L27.4216 37.4799L27.3988 37.5397L27.3567 37.5469L27.3339 37.6261L27.2969 37.6396V37.6784L27.2724 37.6737V37.7159L27.232 37.7277V37.7669L27.167 37.793L27.1434 37.8706L27.0785 37.8971V37.9371L27.0187 37.9679V38.0063L26.977 38.0168V38.0556L26.8872 38.1011V38.1378L26.7797 38.2001V38.2402L26.4594 38.6342L26.4346 38.6325V38.7118L26.4139 38.7046V38.7484L26.3907 38.7447L26.3149 38.9103L26.2938 38.9031L26.2748 39.0022L26.25 38.9984V39.0359L26.2344 39.0283V39.0898L26.2133 39.0865L26.1674 39.199L26.148 39.1939V39.2327L26.1248 39.2289V39.2694L26.1037 39.2677V39.3258L26.0599 39.3419V39.3962L26.0224 39.4106V39.4506L26 39.4439V39.4843L25.9769 39.4809V39.5227L25.9579 39.5176V39.5564L25.9141 39.5897V39.6301L25.8728 39.6424L25.8521 39.7165L25.81 39.7271L25.7868 39.8063L25.7236 39.8333L25.6987 39.9062L25.6431 39.9332L25.6203 39.9913L25.576 40.0073L25.5516 40.0807L25.4859 40.1055V40.1481L25.3839 40.2075V40.2463L25.2747 40.3028V40.3466L24.916 40.755L24.8954 40.8111L24.8722 40.806V40.8886L24.8511 40.8814L24.8296 40.9573L24.814 40.9518L24.7909 41.0703L24.7685 41.066L24.7487 41.1651L24.726 41.1579L24.7053 41.23L24.6821 41.2262V41.2688L24.6577 41.2637V41.3252L24.6379 41.3198L24.5999 41.434L24.5785 41.4306V41.4694L24.557 41.4677L24.5114 41.5731L24.4672 41.5832V41.6291L24.4322 41.6595V41.6965L24.4099 41.6915V41.7349L24.3884 41.7332V41.7703L24.35 41.7842L24.3268 41.858L24.2843 41.8706V41.909L24.2358 41.922V41.9621L24.1966 41.9709V42.0101L24.1524 42.0257V42.0636L24.1102 42.0767V42.1167L24.0453 42.1429L24.0491 42.1842L24.0074 42.196V42.239L23.9201 42.2824V42.3211L23.8114 42.3806V42.416L23.7305 42.464V42.4864L23.685 42.4969L23.3132 42.9618L23.2926 42.9967L23.2483 43.1093L23.2294 43.1076L23.2121 43.1834L23.1906 43.1801V43.2344L23.1674 43.2328V43.2753L23.1472 43.2698V43.3297L23.1223 43.328L23.0481 43.4317L23.0266 43.4245V43.4684L23.0081 43.4633V43.521L22.9668 43.5354V43.5741L22.9213 43.6041V43.6462L22.9019 43.6445V43.6795L22.8787 43.6761V43.7149L22.837 43.7499V43.7887L22.7969 43.8L22.7721 43.8751L22.7312 43.8894V43.9277L22.6895 43.9404V43.9775L22.6452 43.9893L22.6242 44.0685L22.5555 44.0972L22.5411 44.1705L22.4762 44.1987L22.3658 44.3184V44.3589L22.3304 44.3484L22.2853 44.4221L22.2638 44.4187V44.4537L22.2208 44.4681V44.4887L22.1749 44.4997V44.5435L21.9456 44.6982V44.734L21.8997 44.7462L21.7956 44.8465L21.7517 44.841L21.7235 44.8731L21.0424 45.5065L21.0218 45.4994L21.0285 45.5381L21.0062 45.5364V45.5735L20.9636 45.6085V45.6486L20.9181 45.6595L20.8953 45.735L20.8549 45.7476L20.8304 45.823L20.7668 45.8496L20.7508 45.9255L20.6859 45.9554L20.6644 46.0312L20.6033 46.0557V46.0961L20.5379 46.1273V46.1648L20.4494 46.207L20.4338 46.2647L20.4094 46.2609V46.3001L20.3672 46.2896L19.9374 46.6925L19.8939 46.6824L19.8725 46.7148L19.7034 46.805V46.8455L19.6824 46.8404L19.5947 46.8843V46.9053L19.5576 46.8965V46.9336L19.4662 46.9601V46.9812L19.4261 46.9707L19.4046 47.0061L19.3815 47.004L19.3587 47.0411L18.9292 47.4579L18.8921 47.4705L18.8677 47.546L18.8272 47.5535V47.5991L18.7813 47.6096V47.6496L18.7396 47.6606V47.6994L18.7004 47.715V47.7504L18.6561 47.7643V47.8047L18.5912 47.8292V47.8734L18.5491 47.884V47.9227L18.5107 47.9312V47.9527L18.4665 47.9683V48.0053L18.3805 48.0513V48.0917L18.2326 48.1815V48.2199L18.0813 48.3134L18.0581 48.3682L18.0214 48.3627L17.9999 48.4171L17.9333 48.4277L17.7382 48.5473L17.1814 49.0982L17.1009 49.2057V49.2444L17.0554 49.2562L17.036 49.3325L16.9918 49.3447L16.9956 49.3852L16.9513 49.3974L16.9109 49.4501V49.4872L16.8649 49.4994L16.8333 49.5032L16.7895 49.5116V49.5504L16.7457 49.5643V49.6031L16.6786 49.6347L16.5745 49.7531V49.7915L16.5341 49.781L16.5096 49.8391L16.4464 49.8657V49.9078L16.3373 49.9672L15.9322 50.2703V50.3069L15.8956 50.339L15.8458 50.3318L15.8075 50.3832L15.5892 50.4831L15.5963 50.5202L15.531 50.5303L15.3991 50.5851L15.3548 50.6361L15.3131 50.6293L15.2491 50.6576L15.2271 50.6942L15.2141 50.7225L15.1985 50.7592L15.0472 50.7929V50.8333L14.9646 50.8371V50.8565L14.9203 50.8472L14.8992 50.8826L14.8516 50.8738V50.897L14.8112 50.8843L14.7673 50.8982L13.4595 51.7504L13.4229 51.7411L13.3508 51.8115L13.3141 51.8031V51.8191L13.2488 51.8524L13.2261 51.8857L13.1801 51.8769L13.1658 51.9173L13.1165 51.9034L13.0722 51.9561L13.0305 51.9494L12.99 52.0003L12.8982 52.0037L12.8615 52.0568L12.8177 52.0509L12.7995 52.083L12.7081 52.0884L12.6849 52.1234L12.6044 52.1285L12.5833 52.1618L12.5378 52.155L12.4953 52.1921L12.4535 52.1795V52.1989L12.4093 52.1921L12.3878 52.2292L12.298 52.2322L12.3052 52.252L12.2613 52.2448V52.2604L12.1311 52.2798V52.3042L12.0662 52.2848V52.308L12.022 52.3042V52.319L11.8951 52.3346V52.3556L11.767 52.3485V52.3695L11.7193 52.3611V52.3839L11.5255 52.3877V52.4033L11.4833 52.3978V52.4172L11.4011 52.4033V52.4189L11.3358 52.4083V52.4315L11.2705 52.4172V52.4403L11.2039 52.4294V52.4454L11.1226 52.4315L10.7584 52.461L10.5418 52.442V52.461L9.24497 52.2798V52.257L8.78558 52.155L7.9178 51.8364V51.8136L7.63668 51.7045V51.6855L7.59791 51.6762V51.6535L7.53258 51.6446V51.6236L7.39856 51.5797V51.5603L7.35304 51.5528V51.5355L7.28814 51.5178V51.5005L7.20511 51.463V51.4457L7.16339 51.4369V51.4158L7.09637 51.4057V51.388L7.00871 51.3471V51.3277L6.96783 51.321V51.3049L6.89913 51.2889L6.87974 51.2455L6.82875 51.24V51.2173L6.79166 51.2101V51.1886L6.74614 51.1836V51.1608L6.704 51.152L6.66016 51.1077L6.6176 51.0972L6.59652 51.055L6.46461 50.988L6.44143 50.9463L6.35545 50.913L6.31288 50.8443L6.26905 50.835L6.24081 50.7916L6.20246 50.7823L6.19698 50.7608L6.13714 50.7318L6.11606 50.6858L6.07223 50.6787L6.02966 50.6116L5.98541 50.6028L5.96434 50.5606L5.91756 50.5501L5.87457 50.4848L5.83284 50.478L5.74476 50.36L5.70261 50.3546L5.59135 50.2138L5.54794 50.2054L5.26598 49.8762L5.09192 49.7021V49.6617L4.93556 49.5116V49.4746L4.85211 49.3974V49.3603L4.76613 49.2807L4.75939 49.2444L4.71471 49.2141V49.1757L4.65192 49.1243V49.086L4.60429 49.0573L4.58322 48.9945L4.56383 48.989V48.9486L4.51789 48.9203V48.8837L4.47575 48.8478V48.8129L4.43739 48.7829L4.38977 48.6548L4.34383 48.6304L4.30169 48.5035L4.25575 48.4736L4.2313 48.3927L4.21023 48.3872V48.3471L4.18916 48.3417V48.3025L4.16471 48.2991V48.2586L4.1487 48.2553L4.14153 48.2127L4.12214 48.2081V48.1516L4.07663 48.1229V48.0673L4.05555 48.058L4.03406 47.9775L4.01257 47.9754V47.9122H3.99023L3.96915 47.8258L3.94766 47.8207L3.92111 47.6994L3.89666 47.6918V47.6534L3.87559 47.6496V47.5691L3.85452 47.5637V47.5266L3.83682 47.5232V47.4457L3.81069 47.4389V47.377L3.78961 47.3732V47.312L3.76812 47.3104L3.7403 47.1675L3.7264 47.1641L3.69984 46.9812L3.67498 46.9778V46.8965L3.65896 46.8931V46.8088H3.63283V46.6925L3.61007 46.6853L3.58689 46.4017L3.56413 46.3966L3.50977 45.633L3.53295 45.6384L3.56413 44.9081L3.58689 44.9135V44.7917L3.61007 44.7972V44.6775L3.63283 44.6826L3.64716 44.5051L3.66992 44.5106L3.66486 44.412L3.68931 44.4158L3.68594 44.3378H3.71038L3.73145 44.2025L3.75084 44.2114V44.149L3.77191 44.1515V44.0896L3.79509 44.0972V44.0175H3.81574L3.81069 43.9787L3.83682 43.9825L3.87559 43.8097L3.89666 43.8135L3.92111 43.7398L3.94092 43.7465L3.95862 43.6251L3.98517 43.6361L4.029 43.521L4.05176 43.5282V43.4861L4.06567 43.4911L4.08674 43.3967L4.13099 43.382L4.15165 43.2909L4.19969 43.2753L4.19295 43.2344L4.23678 43.2062V43.1607L4.25575 43.1679V43.1287L4.27893 43.1325V43.092L4.3177 43.0844L4.3687 42.9651L4.38261 42.9702L4.40368 42.9162L4.44751 42.907V42.8648L4.49345 42.8539V42.8155L4.55835 42.7856L4.57943 42.7064L4.64475 42.6874V42.6431L4.7046 42.6149V42.5744L4.80828 42.5167V42.4758L4.91617 42.4147V42.3776L4.99836 42.3334V42.2895L5.13575 42.239V42.1977L5.282 42.1079L5.30476 42.0712L5.3469 42.0767L5.39284 42.0464L5.38736 42.0063L5.60188 41.9022V41.8672L5.773 41.7985L5.79238 41.7631L5.8379 41.7703L5.88215 41.7189L5.92388 41.7315L5.96813 41.6751L6.01196 41.6822L6.02966 41.6489L6.0933 41.6384V41.6211L6.13714 41.6291L6.16032 41.5903L6.20246 41.6034L6.22522 41.5663L6.26905 41.5731L6.82158 41.1967L7.14231 40.8621H7.16844L7.31427 40.7145L7.33534 40.7162V40.677L7.41963 40.6138L7.48369 40.6067L7.63668 40.4768L8.25791 40.0314V39.9943L8.29331 39.9437L8.34052 39.9117V39.8695L8.36159 39.8712V39.8333L8.40374 39.8219V39.7852L8.44799 39.7481L8.44251 39.7111L8.48466 39.7005V39.6584L8.53017 39.6478V39.6074L8.57316 39.5564L8.61699 39.542L8.72404 39.4262L8.8488 39.2892V39.2504L8.89431 39.2555L9.00895 39.199L9.02497 39.2011V39.164L9.10757 39.1164V39.097L9.15014 39.0865V39.0494L9.28163 38.9689L9.53156 38.7029L9.57413 38.7046L9.70815 38.59L9.75029 38.6009L9.78696 38.4863L9.83079 38.4968L9.91888 38.4109L9.96271 38.4197L9.98378 38.3843L10.028 38.3877L10.0685 38.3367L10.2497 38.2119L10.2906 38.182L10.3167 38.1677L10.4908 37.9831L10.5064 37.9055L10.5275 37.9089L10.5506 37.8545L10.5932 37.844V37.8035L10.6337 37.793V37.7525L10.7268 37.7049L10.7424 37.6295L10.7833 37.6189L10.8056 37.5658L10.9165 37.5043V37.4655L11.0206 37.4057V37.3652L11.2317 37.2261L11.2528 37.1718L12.0708 36.3289L12.1155 36.3183L12.1577 36.2075L12.2036 36.1948L12.2441 36.0789L12.2613 36.0844L12.2841 36.0279L12.3284 36.0178L12.3477 35.9415L12.4126 35.9137L12.4337 35.8395L12.4953 35.81V35.7696L12.5606 35.7447V35.7009L12.6044 35.6899V35.6499L12.7136 35.5913L12.7081 35.5525L12.8177 35.4914V35.4543L13.7432 34.1415L13.7697 34.0993L13.8136 34.0905L13.8368 34.0075L13.8802 34.0028L13.9017 33.9215L13.9455 33.9126V33.8705L13.9893 33.8583L13.9838 33.8174L14.0264 33.809V33.7668L14.0702 33.7563V33.7192L14.1322 33.6872V33.6522L14.1988 33.6185L14.1954 33.5818L14.3063 33.5253V33.4794L14.4116 33.425V33.385L14.5014 33.3407L14.4963 33.2986L14.5444 33.2665L14.5844 33.2775" fill="#00B0A9"/>
<path fill-rule="evenodd" clip-rule="evenodd" d="M30.8675 32.3443L30.9311 32.1154L30.9699 32.1247L31.0365 31.8592L31.077 31.8398L31.098 31.7888L31.1212 31.7905L31.144 31.7357L31.1861 31.7387L31.2746 31.5979L31.3185 31.6072L31.3994 31.4398L31.4432 31.4487L31.5292 31.2624L31.5734 31.2713L31.6615 31.1246V31.0635L31.7054 31.0563L31.7003 30.9969L31.7403 30.9826L31.7635 30.8839L31.7867 30.8928V30.8502L31.8301 30.8384L31.8516 30.72L31.895 30.7288L31.9165 30.5936L31.9553 30.5796L31.9785 30.4224L32.0206 30.4106L32.0417 30.2522L32.0876 30.2416V30.1409L32.1032 30.1464V30.0676L32.1525 30.0516L32.1681 29.8139L32.2119 29.8016L32.2056 29.6415L32.2267 29.6449V29.585L32.2511 29.5905L32.2722 29.4952L32.2933 29.499L32.3371 29.4847L32.3582 29.3899L32.4218 29.3831L32.418 29.3245L32.4619 29.3283L32.4884 29.231L32.5554 29.2247L32.5478 29.161L32.5925 29.1732L32.6364 29.0413L32.6789 29.0489L32.7051 28.9322L32.7455 28.941L32.8951 28.6051L32.9352 28.6131L32.9583 28.4976L33.0009 28.5044L33.0237 28.3687L33.0641 28.3796L33.0852 28.2001L33.1252 28.2102L33.1906 27.9379L33.2133 27.9413L33.2344 27.7424L33.2749 27.7352L33.2913 27.4575L33.3385 27.4453V27.3648H33.3617L33.4215 27.2379L33.4654 27.2463L33.5282 27.1987L33.639 26.9774L33.6765 26.9855L33.7646 26.7958L33.8084 26.8059L34.3997 25.131L34.4229 25.1331L34.4402 25.0906H34.4608V25.1331L34.484 25.1348V25.1787L34.5051 25.1803V25.2191L34.5245 25.2229V25.263L34.5489 25.2684V25.3089L34.57 25.3123V25.3544L34.5915 25.3582V25.3966L34.613 25.3987L34.6585 25.5251L34.6817 25.5323L35.077 26.2184V26.2643L35.163 26.3381V26.3769L35.2283 26.4262V26.4666L35.2941 26.5197V26.5636L35.3375 26.5884V26.6285L35.3838 26.6567L35.4049 26.722H35.4256V26.7642L35.4753 26.808V26.8485L35.4947 26.8523V26.8978L35.5398 26.9227L35.563 27.0069L35.579 27.0124L35.6262 27.141L35.651 27.1435V27.2063H35.6704L35.6911 27.2885L35.7143 27.294L36.091 27.8187V27.8587L36.1968 27.959V27.9978L36.2858 28.0749V28.1141L36.3515 28.1647V28.2039L36.397 28.2334V28.2764L36.4607 28.327V28.3687L36.5045 28.3935L36.5256 28.4799L36.5711 28.5065L36.6137 28.6329L36.6592 28.665L36.679 28.7438L36.7 28.7497L36.7279 28.8335L36.7489 28.8357V28.8968H36.7717L36.7945 28.9848L36.8143 28.9886L36.8353 29.0923L36.8602 29.0944L37.2294 29.6221V29.663L37.3386 29.7629L37.3419 29.7995L37.4073 29.8543V29.8931L37.4671 29.9462V29.9862L37.513 30.0111L37.5413 30.076L37.5624 30.0815V30.1181L37.6062 30.1464L37.6273 30.2324L37.6639 30.2572L37.7132 30.3896L37.7347 30.3908V30.4283L37.7575 30.4338V30.4755H37.784V30.5198L37.803 30.5236L37.8439 30.6496L37.8679 30.6534V30.7132L37.8894 30.7187V30.7571L37.9088 30.7605L37.916 30.8203L37.9366 30.8224V30.8658L37.9598 30.8717V30.9265L37.9809 30.9332V30.9893L38.004 30.9969V31.0563L38.0234 31.0597L38.1553 31.2624L38.2645 31.4221L38.2856 31.4276L38.3083 31.4913L38.3737 31.5444V31.5793L38.423 31.6126V31.6497L38.4824 31.7024V31.7387L38.5266 31.7694L38.5511 31.8343H38.5701L38.597 31.9203L38.6409 31.954V31.989L38.6847 32.0383V32.0788L38.7079 32.0805V32.1209L38.7222 32.1247L38.7268 32.1669L38.7711 32.1917V32.2516L38.7926 32.2545V32.2954L38.8149 32.3021L38.8364 32.3835L38.8575 32.3881V32.4484L38.8807 32.4505V32.491L38.9013 32.4939L38.9279 32.5997H38.9506V32.6612L38.9734 32.6667L39.2322 33.1333L39.3186 33.2049V33.2504L39.3885 33.3002V33.3406L39.4307 33.3672V33.4059L39.5828 33.6559L39.6262 33.682V33.7241L39.6755 33.7735V33.8089L39.697 33.816V33.8544L39.7198 33.8582V33.902H39.7409V33.9387L39.7603 33.9425L39.8058 34.071L39.829 34.0799L40.1986 34.6041L40.2424 34.6745L40.2635 34.6762V34.715L40.3583 34.7875V34.833L40.4165 34.884V34.9228L40.4869 34.9759V35.0125L40.5294 35.0458V35.0829L40.5749 35.1095L40.5977 35.1744L40.6192 35.1782L40.6398 35.2642L40.6841 35.2907L40.7035 35.375L40.8143 35.5912H40.8459L40.8405 35.6123L40.7755 35.6388V35.6578L40.7389 35.6548V35.6759L40.6875 35.6637L40.6508 35.7185L40.6242 35.7109V35.7551L40.6087 35.7518L40.5783 35.7834L40.5412 35.7779L40.5185 35.8344L40.4531 35.8837L40.427 35.8786V35.901L40.3882 35.8904V35.9098L40.3233 35.9414V35.9785L40.2829 35.9929V36.0333L40.1931 36.0771L40.0839 36.1581V36.1973L40.0612 36.1947V36.2339L39.9975 36.2655V36.2816L39.952 36.2761L39.9309 36.3144L39.8445 36.3182L39.6262 36.3781L39.5596 36.424V36.4447L39.5188 36.4362V36.4556L39.4749 36.4468L39.4307 36.499L39.3885 36.4944L39.3641 36.5277L39.3186 36.5239L39.19 36.6352L39.1496 36.6318L39.0826 36.7005L39.016 36.7072L38.9928 36.7633L38.9279 36.7721V36.8113L38.8626 36.8619L38.847 36.8552V36.8762L38.7766 36.8863L38.761 36.9167L38.6902 36.9074L38.6729 36.9487L38.6286 36.9373V36.9605L38.5814 36.9517V36.9677L38.4934 36.9538V36.9715L38.3606 36.9892V37.0115L38.2957 36.9972L38.2995 37.0221L38.259 37.0115L38.2329 37.0465L38.1448 37.052L37.916 37.2012L37.6167 37.344L37.1224 37.5885L37.0553 37.6327L36.7945 37.8704L36.7333 37.9164L36.5361 37.9408L36.4944 37.9935L36.2933 38.0167L36.2756 38.0555H36.1859L36.1454 38.1115L36.1016 38.1048L36.0805 38.1377L35.9853 38.1452L35.9469 38.1962L35.8605 38.2401L35.8167 38.2312V38.2713L35.7758 38.2628L35.7299 38.3193L35.6805 38.3088L35.6881 38.3282L35.6422 38.3193V38.3387L35.5946 38.3564L35.6 38.3914L35.5558 38.407V38.4251L35.4698 38.4314L35.4487 38.4618L34.9999 38.5018L34.7466 38.1819L34.6817 38.1305L34.6585 38.0711L34.5671 37.9918V37.9552L34.5051 37.897V37.8654L34.433 37.8089V37.768L34.3905 37.7406V37.6981L34.3449 37.6736L34.3239 37.5923L34.2817 37.559L34.259 37.4781L34.2396 37.476L34.2164 37.3921L34.1953 37.3828V37.3457L34.1709 37.3403L34.1342 37.2947L34.1182 37.293L33.9172 37.0221L33.757 36.8307V36.8042L33.666 36.7317V36.6967L33.4531 36.4733V36.4341L33.4 36.362V36.322L33.3562 36.295V36.2567L33.3048 36.2247V36.1918L33.2631 36.1581V36.121L33.2205 36.0944V36.0544L33.1767 36.024V35.9823L33.1539 35.9802L33.1307 35.8959L33.089 35.8694L33.0641 35.7834H33.0447L32.9617 35.6498L32.939 35.6443V35.5828L32.9251 35.5811L32.8985 35.4947L32.8741 35.4913L32.4619 34.9173V34.8773L32.3527 34.782V34.7399L32.2878 34.6872V34.6463L32.2212 34.597V34.5565L32.1786 34.5317V34.4861L32.1348 34.4613L32.1066 34.3964L32.091 34.3909L32.0417 34.2611L32.0012 34.2362L31.5629 33.462L31.5363 33.3933L31.3623 33.2264V33.1851L31.2746 33.1101V33.0713L31.1861 32.9959V32.9516L31.144 32.9238L31.1212 32.8585H31.098V32.8197L31.0576 32.7902V32.751L31.0121 32.7228V32.681L30.9699 32.6511V32.617L30.8586 32.4572V32.4429L30.8713 32.4467L30.8675 32.3443Z" fill="#B9C125"/>
<path fill-rule="evenodd" clip-rule="evenodd" d="M30.7548 32.2653V32.2055L30.7337 32.2025V32.1583L30.7109 32.1545V32.1157L30.6688 32.0896V32.0504L30.5541 31.945V31.9256L30.4892 31.894V31.8519L30.4454 31.8485L30.426 31.7865L30.2697 31.634V31.5897L30.1837 31.516V31.4755L30.0918 31.3996V31.3592L30.0265 31.3027V31.2622H30.0041L29.9827 31.1973L29.9123 31.148L29.8752 31.0195L29.8276 30.9896L29.8242 30.9491L29.7816 30.9019V30.8576L29.761 30.8555V30.8121L29.7378 30.81V30.7712L29.715 30.7696V30.7278L29.6923 30.724V30.6836L29.6729 30.6781L29.6269 30.5479L29.6076 30.5445V30.4859L29.5831 30.4825V30.4421L29.5566 30.4337L29.3121 30.0923V30.0514L29.275 30.0219V30.0008L29.2316 29.9915L29.2046 29.9515L29.1397 29.8984V29.8541L29.0462 29.7804V29.7366L28.9585 29.6641V29.6223L28.9197 29.5954L28.8936 29.5111L28.8494 29.4828V29.4407L28.8051 29.4125L28.7646 29.2843L28.7191 29.2557L28.6921 29.1731L28.6466 29.1436V29.0837L28.6272 29.0799V29.0416L28.6045 29.0361V28.994L28.5838 28.9889V28.9501L28.5644 28.9425L28.5164 28.8161L28.4936 28.8144V28.755L28.4747 28.7495V28.709L28.446 28.7057L28.1156 28.1405V28.1034L28.0047 28.0035V27.9589L27.915 27.8851L27.8952 27.8185L27.8509 27.7903L27.8248 27.7094L27.7599 27.655L27.7139 27.5226L27.6735 27.4978V27.4598L27.628 27.4067V27.3713L27.5997 27.3646V27.322L27.5858 27.3208V27.2816L27.5647 27.2765V27.2356L27.5437 27.2327L27.4944 27.1037L27.4712 27.0982L27.4484 26.9735L27.4269 26.9701L27.4063 26.9259L27.3852 26.8593L27.2478 26.5938L27.1774 26.4808L27.137 26.4774V26.4564L27.0721 26.4037V26.3611L27.0228 26.3312V26.2924L26.9574 26.2376V26.2026L26.917 26.1942L26.8925 26.1285L26.871 26.1255L26.8516 26.0619L26.8061 26.0319L26.7796 25.946L26.718 25.8946L26.6755 25.7677L26.6266 25.7382V25.6994L26.5806 25.6484V25.6118L26.5617 25.608V25.5641L26.5402 25.5624V25.522L26.5153 25.5144L26.5124 25.4727H26.4947V25.4322L26.4753 25.4301L26.4243 25.3003L26.4032 25.2965V25.2383L26.38 25.232V25.1696L26.3606 25.168V25.1064L26.3345 25.1026V25.0394H26.3151V24.98L26.2941 24.9741V24.9151L26.2747 24.9075L26.2679 24.8477L26.2502 24.8426L26.2431 24.765L26.2237 24.7583V24.6786L26.2022 24.6753L26.1971 24.5965L26.1798 24.5927L26.1533 24.3482L26.1284 24.3427L26.104 23.9327H26.0884L26.0989 23.4716L26.125 23.4766L26.1588 23.0826L26.3699 22.4614H26.391L26.4348 22.3492L26.4597 22.3539V22.3155L26.4803 22.3206V22.2751L26.5018 22.2822V22.2451L26.5246 22.2481V22.2102H26.5457V22.1697L26.5895 22.1377L26.5806 22.0955L26.6266 22.0778L26.6755 21.972L26.7357 21.9438L26.7534 21.8684L26.8011 21.8561L26.8221 21.7997L26.8449 21.8018L26.866 21.747L26.9119 21.7575L26.9536 21.6838L26.9701 21.6871V21.6433L27.0784 21.5464L27.1226 21.5552V21.5325L27.1669 21.5198V21.481L27.2322 21.4777V21.4338L27.3186 21.4107L27.4269 21.3087L27.464 21.3158V21.2986L27.5803 21.256L27.5753 21.2172L27.6385 21.2067V21.1911L27.7106 21.1801L27.7249 21.1468L27.8142 21.1401L27.8602 21.0904L27.9887 21.0727L28.0115 21.0347L28.0536 21.0448L28.0975 21.0128L28.1421 21.0217V20.9993L28.186 21.0061V20.9867L28.2281 20.9938L28.2513 20.9622L28.3373 20.953V20.9395L28.462 20.918V20.899L28.5324 20.9125L29.8402 20.8918L30.5402 21.0448V21.0604L30.7796 21.127L31.285 21.3635L31.4148 21.4052V21.4263L31.459 21.4338V21.4532L31.6546 21.5518L31.6756 21.5957L31.7195 21.6041L31.7637 21.6534L31.8109 21.6627V21.6838L31.8518 21.6871L31.8796 21.7314L31.9201 21.7394V21.7613L31.9601 21.7681L32.0115 21.8191L32.052 21.8245V21.8456L32.1173 21.8738L32.1397 21.9227L32.2724 21.9843L32.2931 22.0323L32.3635 22.0618V22.0778L32.4216 22.1149V22.1516L32.5325 22.2363V22.254L32.5818 22.2624L32.6909 22.4036L32.779 22.4614V22.5001L32.8207 22.5102L32.8439 22.5722L33.0007 22.7235V22.764L33.0639 22.815V22.8554L33.1309 22.9068V22.9473L33.1769 22.9772L33.198 23.0421L33.2856 23.1142V23.1584L33.3564 23.2116L33.3998 23.3393L33.4424 23.3662V23.4079L33.4862 23.456V23.496L33.5056 23.4977V23.5403L33.5284 23.5458V23.5841L33.5566 23.5896V23.628L33.5726 23.6334V23.6739H33.6009L33.6658 23.8096L34.064 24.5067V24.5455L34.0847 24.5505L34.1344 24.6188L34.1993 24.6702V24.7136L34.2432 24.7419V24.784L34.3085 24.8299L34.3308 24.9176L34.3962 24.969L34.4172 25.0204V25.0272L34.44 25.0554V25.0908L34.4227 25.133L34.3995 25.1309L33.8082 26.8062L33.7648 26.7956L33.6767 26.9857L33.6392 26.9773L33.5284 27.199L33.2747 27.7355L33.2346 27.7426L33.2135 27.9412L33.1904 27.9378L33.1255 28.2105L33.085 28.1999L33.0639 28.3795L33.0239 28.3689L33.0007 28.5042L32.9586 28.4979L32.9354 28.6134L32.8949 28.6049L32.7457 28.9409L32.7053 28.9324L32.6787 29.0487L32.6366 29.0416L32.5923 29.1731L32.5552 29.2245L32.4621 29.3282L32.4216 29.383L32.2122 29.8015L32.1523 30.0514L32.103 30.0674V30.1466L32.0874 30.1412V30.2415L32.0419 30.2524L32.0208 30.4109L31.9783 30.4227L31.9555 30.5795L31.9167 30.5934L31.8952 30.7287L31.8518 30.7202L31.8303 30.8383L31.7865 30.8505V30.8926L31.7637 30.8842L31.7406 30.9824L31.7001 30.9967L31.7056 31.0566L31.6613 31.0633V31.1248L31.5732 31.2715L31.5294 31.2622L31.4434 31.4489L31.3992 31.4401L31.3187 31.607L30.9701 32.1245L30.8677 32.3441L30.8711 32.447L30.8589 32.4432V32.436L30.8433 32.4326L30.7796 32.2708L30.7548 32.2653Z" fill="#008D93"/>
<path fill-rule="evenodd" clip-rule="evenodd" d="M48.2282 40.913L48.2071 40.8308L48.1422 40.7777L48.119 40.6723L48.0979 40.6685L48.0069 40.5295L47.7232 40.3377V40.2935L47.6562 40.2639L47.6352 40.2193L47.5859 40.2113L47.5205 40.1194L47.475 40.1105L47.3696 39.9879L47.3187 39.9175L47.2816 39.9116L47.2095 39.7957L47.1686 39.7902L47.0578 39.6301L47.0316 39.6238V39.5829L46.8976 39.4577V39.4193L46.8626 39.3894V39.3469L46.8133 39.3186V39.2803L46.7269 39.2415L46.5672 38.8929L46.5263 38.8841L46.34 38.469L46.2941 38.4352V38.3986L46.2747 38.3914L46.2524 38.2667L46.2309 38.2629V38.2026L46.2098 38.2001V38.1377L46.1849 38.1343V38.0749L46.1643 38.0711L46.1605 37.9902L46.1432 37.9868L46.1145 37.8595L46.0939 37.8545V37.8136L46.0728 37.809V37.7293L46.0496 37.7276L46.0458 37.6045L46.0265 37.6016L46.0235 37.4975L46.0041 37.4941L46.0003 37.3323L45.9793 37.3285L45.6568 36.2217L45.6362 36.0157L45.613 36.0123V35.9697L45.5932 35.9684L45.5865 35.8273L45.5426 35.794V35.5756L45.4954 35.5508L45.4866 34.9173L45.5325 34.9123V34.6813L45.5747 34.6923L45.5932 34.4967H45.613V34.4196L45.6362 34.4246V34.3189L45.6779 34.3087V34.2274L45.7222 34.219L45.7432 34.0799L45.7892 34.0904L45.8473 33.8759L45.8912 33.8827V33.8266L45.9354 33.8317L46.1095 33.5628L46.1529 33.5729L46.2182 33.441L46.2625 33.4498V33.406L46.305 33.4127L46.4121 33.2736L46.4526 33.2808V33.2404L46.5263 33.2559L46.5895 33.2049L46.5811 33.1645L46.6266 33.1738V33.135L46.6709 33.14L46.7164 33.0895L46.7573 33.0941L46.7817 33.0608L46.8454 33.0503V33.0098L46.9545 32.9517L47.1492 32.9255V32.888L47.3696 32.8707V32.8265L47.5648 32.8003L47.6352 32.8176V32.7966L47.6773 32.8003V32.781L47.7599 32.7966L47.7865 32.7616L48.0225 32.7864L48.0419 32.751L48.2438 32.7864L48.2669 32.751L48.6155 32.8176L48.6648 32.8003L49.251 32.9356V32.9748L49.7378 33.1257V33.1645L49.8491 33.1851V33.2264L50.2061 33.3356L51.0688 33.7996L51.2146 33.8827V33.902L51.3023 33.9193L51.3242 33.9602L51.4119 33.9787V34.0028L51.4772 34.015V34.0306L51.5455 34.0445V34.0677L51.6348 34.0816V34.1027L51.9446 34.2363V34.2805L52.3799 34.5233V34.5604L52.4571 34.597L52.5397 34.6978V34.7112L52.5839 34.7226L52.605 34.8259L52.6311 34.828V34.9123L52.6467 34.9173V34.951L52.6754 34.9578V35.0197L52.6965 35.0227V35.1091H52.7192V35.1479L52.7403 35.1517V35.2532L52.7845 35.2802L52.7896 35.426L52.8338 35.4543V35.6389L52.8756 35.6578L52.8811 36.0047L52.9304 36.2816L52.9093 36.2685V36.3537L52.8865 36.3482V36.6967L52.8444 36.7073L52.8478 36.8881L52.8052 36.8973V37.0411L52.7614 37.0541V37.1557L52.7403 37.1527V37.1894L52.7192 37.1877V37.2674L52.7015 37.2653V37.3053L52.6804 37.3003L52.6543 37.4393L52.6349 37.4322L52.6155 37.5291L52.57 37.5253V37.6029L52.5291 37.5978V37.6766L52.4853 37.6682L52.4465 37.8035L52.3972 37.7929L52.3589 37.9055L52.2919 37.9358V37.9969L52.2059 38.101L52.1578 38.0939L52.1633 38.1305L52.1186 38.1259V38.1676L52.0807 38.1592L51.9222 38.3493L51.8797 38.3455V38.3842L51.6828 38.469V38.5077L51.5509 38.5461V38.5861L51.1868 38.863L51.1392 38.8504L51.1442 38.914L51.0991 38.9246V38.9671L51.0296 38.9945V39.0299L50.9626 39.0632V39.1024L50.8821 39.1467L50.8378 39.1989V39.2415L50.7961 39.2326L50.708 39.3169L50.6869 39.3131V39.3523L50.6195 39.3806L50.5972 39.4172L50.5563 39.4105L49.8596 39.9243L49.8419 39.9209L49.8192 39.9769L49.777 39.9908V40.0296L49.7349 40.0423V40.0827L49.6894 40.0949V40.135L49.6219 40.1636V40.2075L49.5583 40.2323L49.5355 40.2897L49.4495 40.3343L49.3176 40.4325L49.3231 40.4713L49.251 40.4823L49.1254 40.6003L49.0816 40.5876L49.0572 40.6264L49.0129 40.6159L48.9552 40.6862L48.8831 40.6934L48.8599 40.7301L48.8233 40.7229L48.795 40.7549L48.7579 40.7512L48.7352 40.7882L48.693 40.7777V40.8005L48.6294 40.8059L48.6049 40.8447L48.5607 40.8371L48.5169 40.8885L48.4747 40.8797L48.3584 40.9994L48.3656 41.0399H48.3584L48.3445 41.0205V41.0028L48.3124 41.0066L48.2564 40.9189L48.2282 40.913Z" fill="#5FAD4D"/>
<path fill-rule="evenodd" clip-rule="evenodd" d="M35.4701 38.4316L35.5561 38.4249V38.4068L35.6004 38.3912L35.5949 38.3562L35.6425 38.3385V38.3191L35.6884 38.3284L35.6809 38.309L35.7302 38.3191L35.7761 38.2631L35.817 38.2715V38.231L35.8608 38.2403L35.9472 38.196L35.9856 38.145L36.0808 38.1379L36.1019 38.105L36.1461 38.1113L36.1862 38.0553H36.276L36.2937 38.0169L36.4947 37.9937L36.5364 37.9411L36.7337 37.9162L36.7952 37.8707L37.0556 37.6326L37.1227 37.5887L37.5134 37.3569L37.5837 37.3691V37.3325L37.883 37.1858L38.1451 37.0522L38.2332 37.0467L38.2593 37.0117L38.2998 37.0219L38.296 36.9974L38.3609 37.0117V36.989L38.4937 36.9713V36.9536L38.5817 36.9675V36.9515L38.629 36.9607V36.9376L38.6732 36.9485L38.6905 36.9076L38.7613 36.9165L38.7769 36.8866L38.8473 36.8765V36.8554L38.8629 36.8617L38.9282 36.8111V36.7719L38.9931 36.7635L39.0163 36.707L39.0829 36.7007L39.1499 36.6316L39.1903 36.635L39.3189 36.5241L39.3644 36.5275L39.3888 36.4942L39.431 36.4993L39.4752 36.447L39.5191 36.4558V36.4365L39.56 36.4449V36.4238L39.6265 36.3783L39.8449 36.318L40.1934 36.0774L40.2832 36.0335V35.9931L40.3236 35.9788V35.9417L40.3885 35.9101V35.8907L40.4273 35.9012V35.8784L40.4534 35.8839L40.5188 35.8346L40.5415 35.7781L40.5786 35.7836L40.609 35.752L40.6246 35.755V35.7111L40.6511 35.7187L40.6878 35.6639L40.7392 35.6761V35.6551L40.7759 35.658V35.6391L40.8408 35.6125L40.8462 35.5914H40.8639V35.5931V35.6391L40.9554 35.6955V35.7343L41.1299 35.8696V35.9084L41.1771 35.9168V35.9577L41.2209 35.9682V36.0049L41.2635 36.0158L41.2669 36.0542L41.3111 36.0651L41.4182 36.2447L41.4624 36.2514L41.5117 36.3589L41.5572 36.3728V36.4095L41.5977 36.4171L41.7545 36.667L42.0693 37.0117V37.0522L42.1536 37.0859V37.126L42.2632 37.1879V37.2263L42.307 37.2351V37.2777L42.3508 37.2827L42.3546 37.3287L42.4655 37.4429L42.511 37.4551V37.4939L42.5536 37.5044V37.5398L42.5974 37.5499L42.7538 37.8037L42.798 37.8087V37.8547L42.8418 37.8597V37.9179L42.8823 37.9272L43.4597 38.58V38.62L43.5052 38.6276L43.5722 38.7397L43.6161 38.7486L43.6199 38.7924L43.6637 38.7996L43.7307 38.9104L43.7728 38.9159V38.9618L43.815 38.9673L43.8875 39.1237L43.933 39.1287V39.1764L43.9751 39.1793L44.0401 39.3298L44.0826 39.3416V39.4001L44.1269 39.4103L44.153 39.4718L44.172 39.4756L44.1968 39.5826L44.2411 39.6092V39.6526L44.2853 39.6813V39.7411L44.3338 39.7672L44.3536 39.8962L44.3996 39.9206V40.007L44.4185 40.0087L44.4434 40.1124L44.4893 40.1196L44.5142 40.3274L44.5353 40.3345V40.3729L44.5563 40.3746V40.4976L44.6019 40.5263L44.7148 40.9132L44.7603 40.9187L44.8042 41.0894L44.8446 41.0944L44.8762 41.2407L44.9167 41.2508L44.9445 41.4573L44.9854 41.4678L45.0591 42.1839L45.036 42.1805L45.0435 42.5025L45.0204 42.4987V42.6433L44.9976 42.6378V42.7609L44.9609 42.7697L44.9415 42.9282L44.8956 42.9193L44.7915 43.2413L44.7422 43.2329L44.5753 43.5283L44.5298 43.5368L44.5032 43.5351L44.5083 43.5937L44.4649 43.5878V43.6092L44.3768 43.6552L44.3127 43.699L44.3182 43.761L44.1597 43.8099V43.8453L44.1496 43.8415L44.1425 43.8516H44.1387L44.0986 43.8714H44.0826L44.0476 43.8996L44.0017 43.8963V43.9119L43.9579 43.9064V43.9279L43.9136 43.9178L43.8925 43.9578L43.7627 43.9717L43.7396 44.0071L43.7004 43.9983L43.6814 44.0349L43.5668 44.0986L43.5052 44.0969V44.1352L43.115 44.1639V44.2022L42.6926 44.1673V44.1883L42.6522 44.1778V44.1989L42.3669 44.1479L41.5783 43.9178V43.8765L41.4021 43.828L41.3811 43.7837L41.3322 43.7732V43.7517L41.2209 43.7323V43.7096L41.1556 43.699V43.6796L40.9398 43.6446L40.9187 43.5991L40.6743 43.5498L40.6511 43.5094L40.4977 43.4756V43.4579L40.4117 43.4424V43.4213L40.3481 43.4069V43.3859L40.2322 43.3703L40.209 43.3222L40.0998 43.2999V43.2641L40.0122 43.2451L39.9928 43.2025L39.8415 43.1532V43.1128L39.7462 43.0972V43.055L39.6586 43.0217V43.0023L39.5932 42.9825V42.9653L39.4841 42.9088V42.865L39.4137 42.854V42.8152L39.0652 42.5025L39.023 42.497V42.4549L38.9067 42.3335L38.8629 42.3284V42.2863L38.8224 42.277V42.2387L38.4001 41.899L38.3086 41.837L38.2909 41.7982L38.2488 41.7877L38.2454 41.7704L38.1995 41.7616V41.7418L38.1101 41.6667L37.8227 41.4695V41.4303L37.7843 41.4223V41.378L37.7135 41.3675V41.3249L37.6642 41.3199V41.2794L37.4274 41.0139L37.3814 41.0046V40.9646L36.9549 40.5242V40.4837L36.8761 40.4664V40.4272L36.804 40.3923V40.3729L36.7615 40.364L36.7391 40.324L36.6738 40.308L36.651 40.2641L36.4993 40.1739V40.1335L36.4555 40.1234V40.0842L36.3425 40.0243V39.9843L36.2987 39.975L36.2937 39.9333L36.1192 39.7993V39.7588L36.072 39.7554L35.9666 39.5721L35.9202 39.5603V39.5228L35.8785 39.5144L35.8292 39.4031L35.785 39.3947V39.3559L35.7428 39.3454V39.2889L35.7007 39.259V39.2185L35.6779 39.2151L35.632 39.1043L35.5843 39.0971V39.036L35.5401 39.0267L35.4756 38.9564L35.4524 38.9104V38.8931L35.3892 38.878V38.8367L35.2097 38.7237V38.687L35.0335 38.569V38.5319L34.9968 38.5096H35.0086L35.0002 38.502L35.4491 38.4616L35.4701 38.4316Z" fill="#669D25"/>
</svg>
