<svg width="68" height="68" viewBox="0 0 68 68" fill="none" xmlns="http://www.w3.org/2000/svg">
<path fill-rule="evenodd" clip-rule="evenodd" d="M3.86108 40.4899C3.86108 50.4521 11.9378 58.5328 21.9039 58.5328C25.0936 58.5328 28.0899 57.696 30.6943 56.2501V44.5998C29.1677 46.5964 26.7645 47.89 24.0555 47.89C19.4465 47.89 15.7127 44.1522 15.7127 39.5432C15.7127 37.3665 16.5535 35.3738 17.9265 33.8842C16.4899 31.2401 15.673 28.2199 15.673 24.9972C15.673 24.5112 15.6955 24.0094 15.7312 23.5275C8.80907 26.0458 3.86108 32.6886 3.86108 40.4899Z" fill="url(#paint0_linear_5_25)"/>
<path fill-rule="evenodd" clip-rule="evenodd" d="M15.673 24.9972C15.673 28.22 16.4899 31.2401 17.9265 33.8843C19.4505 32.2305 21.6299 31.2004 24.0555 31.2004C24.9943 31.2004 25.9026 31.358 26.7473 31.6479C25.8099 30.2259 25.2631 28.5192 25.2631 26.696C25.2631 21.7281 29.2909 17.7004 34.2587 17.7004C37.884 17.7004 41.0074 19.844 42.4321 22.933C43.7733 22.6113 45.1742 22.4445 46.6108 22.4445C48.7796 22.4445 50.8597 22.8231 52.7835 23.5275C52.0275 13.956 44.0249 6.42078 34.2547 6.42078C23.9893 6.42078 15.673 14.7424 15.673 24.9972Z" fill="url(#paint1_linear_5_25)"/>
<path fill-rule="evenodd" clip-rule="evenodd" d="M42.4321 22.933C42.9565 24.077 43.2557 25.3507 43.2557 26.6959C43.2557 28.5191 42.7062 30.2259 41.7688 31.6439C42.6149 31.3579 43.5165 31.2004 44.4606 31.2004C49.0656 31.2004 52.8034 34.9368 52.8034 39.5432C52.8034 44.1522 49.0656 47.89 44.4606 47.89C41.7556 47.89 39.3498 46.6031 37.8231 44.6037V56.2501C40.4236 57.696 43.4199 58.5328 46.6109 58.5328C56.5757 58.5328 64.6564 50.4521 64.6564 40.4899C64.6564 30.5224 56.5757 22.4444 46.6109 22.4444C45.1743 22.4444 43.7734 22.6112 42.4321 22.933Z" fill="url(#paint2_linear_5_25)"/>
<defs>
<linearGradient id="paint0_linear_5_25" x1="2.29689" y1="30.5033" x2="18.1784" y2="54.2547" gradientUnits="userSpaceOnUse">
<stop stop-color="#0070BC"/>
<stop offset="1" stop-color="#53C3F2"/>
</linearGradient>
<linearGradient id="paint1_linear_5_25" x1="54.8446" y1="12.6105" x2="37.6535" y2="0.102137" gradientUnits="userSpaceOnUse">
<stop stop-color="#0070BC"/>
<stop offset="1" stop-color="#53C3F2"/>
</linearGradient>
<linearGradient id="paint2_linear_5_25" x1="56.4229" y1="31.1536" x2="36.6545" y2="41.6224" gradientUnits="userSpaceOnUse">
<stop stop-color="#53C3F2"/>
<stop offset="1" stop-color="#0070BC"/>
</linearGradient>
</defs>
</svg>
