<svg width="68" height="68" viewBox="0 0 68 68" fill="none" xmlns="http://www.w3.org/2000/svg">
<path fill-rule="evenodd" clip-rule="evenodd" d="M57.4385 42.815C59.598 42.9573 58.9125 41.9606 58.3851 41.2566C55.2737 37.0299 60.5578 34.7571 64.6052 34.2086C64.331 55.7877 42.4196 58.762 34.1639 58.4772C23.6091 59.1812 4.7985 51.8353 3.30347 37.5836C8.18145 42.6726 16.4266 43.6587 20.6269 42.2481C20.7522 42.1955 20.9086 42.1526 21.0707 42.1081C21.796 41.9091 22.6356 41.6788 21.3124 40.4182C16.155 33.502 31.9965 32.2311 39.0208 32.798C41.1962 32.9351 40.5211 31.9489 39.978 31.2502C36.9969 27.0973 42.4971 25.6877 45.2019 24.9944L45.2019 24.9944C45.8081 24.8391 46.2739 24.7197 46.4723 24.6135C47.4241 24.3393 49.4571 23.2107 46.8863 22.3564C41.6075 20.9458 32.1442 19.1001 24.8272 22.6359C19.82 25.4678 20.6269 29.1302 24.553 30.8204C14.8181 28.2812 7.78066 29.2674 3.44321 33.3701C7.23749 18.6861 24.2841 14.3117 33.7526 14.4647C44.7162 14.3117 57.9764 18.5595 64.1991 31.9489C57.8393 30.1164 50.8097 30.2588 44.173 32.3734C38.0822 35.6114 39.4348 38.1505 42.8257 40.8427C36.8613 39.8565 28.4607 39.1525 23.3322 42.3852C19.0417 45.4621 20.1925 46.9006 21.0585 47.9831C21.1484 48.0954 21.2351 48.2039 21.3124 48.3099C25.6367 52.2703 31.9965 52.5472 39.0208 52.4074C40.7927 51.9908 41.0643 51.5663 39.5772 50.2928C35.2397 43.5137 50.3958 42.2481 57.4385 42.815ZM28.6112 26.7282C29.418 26.4513 29.6922 25.4678 29.418 24.7533C29.1543 24.0572 28.3396 23.6221 27.5275 23.9148C26.8551 24.3393 26.449 25.1936 26.8551 25.8923C27.1161 26.5832 27.9414 27.0235 28.6112 26.7282ZM9.94511 35.6115C10.752 35.1922 11.0235 34.3458 10.752 33.6471C10.5015 32.9352 9.65771 32.5106 8.85086 32.798C8.18113 33.0802 7.78034 33.9318 8.18113 34.7571C8.45799 35.477 9.26483 35.8962 9.94511 35.6115ZM45.1246 35.6114C45.3883 36.4736 46.0633 37.03 47.0204 36.8876C47.8246 36.7505 48.3704 35.8962 48.2254 35.0471C48.1015 34.2087 47.2867 33.647 46.3401 33.7841C45.6704 33.9318 44.9743 34.7571 45.1246 35.6114ZM26.449 44.7925C26.1748 44.0832 26.5888 43.0866 27.2717 42.815C28.0732 42.5302 28.7483 42.815 29.1543 43.6587C29.418 44.3654 29.1543 45.2091 28.3396 45.6337C27.6751 45.9184 26.8551 45.4886 26.449 44.7925Z" fill="#044DA1"/>
</svg>
