<svg width="68" height="67" viewBox="0 0 68 67" fill="none" xmlns="http://www.w3.org/2000/svg">
<path fill-rule="evenodd" clip-rule="evenodd" d="M23.5351 40.2307L22.1316 40.478C21.3843 40.478 21.3476 40.1508 21.3476 39.2099V33.237H23.1083V31.4425H21.3476V28.1741L21.0421 28.3574L19.1931 29.4995V31.4425H17.9128V33.237H19.1931V39.1093C19.1931 40.8784 19.1931 42.5554 21.8289 42.5554L23.7729 42.233L23.802 42.0111L23.5351 40.2307ZM11.0704 38.3064L11.0892 38.1072L13.3283 38.4756L13.2916 38.6815C12.6261 42.5516 9.16307 42.6578 8.45336 42.6578C4.46581 42.6578 3.04639 39.708 3.04639 36.9462C3.04639 31.6135 7.18246 31.199 8.45336 31.199C9.274 31.199 11.3825 31.3193 12.4785 32.9342C12.9254 33.5948 13.0113 34.019 13.0887 34.4007L13.1036 34.474L13.1403 34.6827L10.967 35.2392L10.92 35.0615C10.5844 33.7568 9.65564 33.2078 8.42892 33.2078C5.75457 33.2078 5.21407 35.4732 5.21407 36.903C5.21407 38.3497 5.71885 40.6499 8.2992 40.6499C10.3353 40.6499 10.9538 39.2333 11.0704 38.3064ZM14.2812 31.4424H16.2411H16.4404V42.4115H14.2812V31.4424ZM25.9415 31.4424H27.8996H28.0998V42.4115H25.9415V31.4424ZM31.9788 40.0268C31.7231 39.632 31.4909 39.0492 31.4909 37.4662C31.4909 35.26 32.5973 33.723 34.1916 33.723C35.8282 33.723 36.8453 35.1791 36.8453 37.5179C36.8453 40.3483 35.3864 41.3513 34.1409 41.3513C33.2845 41.3513 32.5616 40.9057 31.9788 40.0268ZM30.4435 30.1651V42.029H31.5029V40.3718L31.9033 40.9452C32.6253 42.0817 33.6941 42.2509 34.2618 42.2509C35.6653 42.2509 38.0482 41.2281 38.0482 37.3919C38.0482 34.6198 36.5903 32.8234 34.3342 32.8234C32.8885 32.8234 32.1938 33.7287 32.0114 34.0013L31.643 34.5625L31.6072 33.8913V29.4478L30.4435 30.1651ZM42.4973 37.9165C41.5601 38.0575 40.1482 38.2718 40.1482 39.7129C40.1482 40.4931 40.6831 41.403 42.1993 41.403C42.6496 41.403 43.7795 41.3118 44.5616 40.4517C45.2544 39.6894 45.3145 38.8706 45.3145 38.1017V37.2228L45.0429 37.329C44.4695 37.5508 43.3546 37.7839 42.4973 37.9165ZM39.4031 35.3786L39.1865 35.3502C39.3952 34.4563 39.9686 32.8234 43.1026 32.8234C46.4754 32.8234 46.4754 34.5192 46.4754 36.1567V38.3C46.4754 40.463 46.498 41.2225 46.8683 42.029H45.6736C45.5119 41.6718 45.4574 41.3475 45.4282 41.1285L45.3652 40.6801L45.0908 40.9217C43.7381 42.0939 42.6796 42.2509 41.8214 42.2509C40.0071 42.2509 38.8754 41.2911 38.8754 39.7476C38.8754 37.4512 41.278 37.1428 42.3327 37.0131L42.5132 36.9877L42.6056 36.9753C43.176 36.8987 44.4426 36.7285 45.1763 36.4585L45.306 36.4134L45.3145 36.2733L45.3149 36.257C45.3309 35.6821 45.3528 34.8957 44.8351 34.3491C44.4365 33.9308 43.7935 33.723 42.8723 33.723C40.9124 33.723 40.5251 34.7354 40.3258 35.495C40.1461 35.4764 39.7154 35.4197 39.4034 35.3787L39.4033 35.3787L39.4031 35.3786ZM49.8244 34.2767L49.4531 34.8454L49.4173 34.1658V33.0406H48.4125V42.029H49.5847V37.1015C49.5847 36.4905 49.6082 35.7892 49.9193 35.0955C50.284 34.3275 51.2381 33.7945 52.2355 33.7945C54.3552 33.7945 54.3552 35.7074 54.3552 36.5205V42.029H55.5162V36.4472C55.5162 35.4734 55.5162 34.8294 55.1326 34.0934C54.6429 33.1553 53.4359 32.8234 52.556 32.8234C51.7345 32.8234 50.5905 33.0763 49.8244 34.2767ZM57.0936 42.029V30.1651L58.2592 29.4478V37.1428C58.2592 37.1428 62.1264 33.1628 62.2383 33.0406H63.6906C63.1181 33.6131 60.4062 36.2921 60.4062 36.2921C60.4062 36.2921 63.7949 41.4631 64.1663 42.029H62.7299C62.6171 41.8523 59.5968 37.1109 59.5968 37.1109L58.2592 38.4081V42.029H57.0936Z" fill="#25247B"/>
<path fill-rule="evenodd" clip-rule="evenodd" d="M15.4516 30.1819C16.2516 28.6158 18.5556 27.1927 21.0767 27.1927C23.6053 27.1927 25.9704 28.6158 26.7788 30.1819H29.3573C28.468 27.5715 25.1188 25.1321 21.1068 25.1321C17.0976 25.1321 13.7427 27.5715 12.8572 30.1819H15.4516Z" fill="#EC1D24"/>
</svg>
