<svg width="67" height="68" viewBox="0 0 67 68" fill="none" xmlns="http://www.w3.org/2000/svg">
<path fill-rule="evenodd" clip-rule="evenodd" d="M33.4864 34.2266L43.5789 40.1287V40.1457L43.4892 40.0943C39.8802 42.9455 36.4357 43.8886 33.4563 43.8893C30.4771 43.8886 27.0326 42.9455 23.4234 40.0943L23.3337 40.1457V40.1287L33.4864 34.2266ZM28.358 13.5392H28.4136L28.358 25.6505L18.2347 31.3196L18.2204 31.3025C16.1569 16.8586 28.358 13.5392 28.358 13.5392ZM48.6929 31.3025L48.6785 31.3196L38.5552 25.6505L38.4998 13.5392H38.5552C38.5552 13.5392 50.7563 16.8586 48.6929 31.3025ZM58.2795 37.8189C55.5683 44.5582 51.0252 46.4639 51.0252 46.4639C64.3926 32.9173 56.2286 17.3071 56.2286 17.3071C54.2549 13.8082 56.7669 12.2831 56.7669 12.2831C51.0252 13.7185 52.8195 18.4733 52.8195 18.4733C55.7047 25.3451 55.1237 30.9276 54.1439 34.38L52.2518 33.3205L52.2812 33.2761C52.2812 33.2761 56.764 15.6126 38.4807 9.41763L38.4653 6.09283H34.6076V27.983L52.5504 38.2102C52.2234 38.8743 51.8771 39.4992 51.516 40.0904L33.4942 29.6506L15.3968 40.0904C15.0358 39.4992 14.6893 38.8743 14.3624 38.2102L32.3052 27.983V6.09283H28.4475L28.4322 9.41763C10.1487 15.6126 14.6315 33.2761 14.6315 33.2761L14.6611 33.3205L12.7691 34.38C11.7892 30.9276 11.2081 25.3451 14.0933 18.4733C14.0933 18.4733 15.8875 13.7185 10.1458 12.2831C10.1458 12.2831 12.6578 13.8082 10.6841 17.3071C10.6841 17.3071 2.52017 32.9173 15.8875 46.4639C15.8875 46.4639 11.3444 44.5582 8.63345 37.8189C8.63345 37.8189 7.09557 34.5321 2.78931 35.2498C2.78931 35.2498 4.41438 35.986 5.36894 38.9644C5.36894 38.9644 9.2487 51.3084 24.2309 53.1924V60.0107H31.5875V49.9627C31.5875 49.9627 23.7832 49.9007 17.8252 43.3445L19.6742 42.2653C20.0187 42.5911 25.6836 47.8335 33.4115 47.9709V47.974C33.4266 47.9736 33.4413 47.9725 33.4564 47.9722C33.4714 47.9725 33.4862 47.9736 33.5012 47.974V47.9709C41.2294 47.8335 46.8943 42.5911 47.2388 42.2653L49.0876 43.3445C43.1297 49.9007 35.3253 49.9627 35.3253 49.9627V60.0107H42.6818V53.1924C57.664 51.3084 61.5438 38.9644 61.5438 38.9644C62.4984 35.986 64.1234 35.2498 64.1234 35.2498C59.8172 34.5321 58.2795 37.8189 58.2795 37.8189Z" fill="#AB924B"/>
</svg>
