<svg width="67" height="68" viewBox="0 0 67 68" fill="none" xmlns="http://www.w3.org/2000/svg">
<path fill-rule="evenodd" clip-rule="evenodd" d="M31.8218 3.49932C15.2788 4.24858 2.47645 18.2624 3.22641 34.8061C3.97217 51.3443 17.9895 64.1466 34.5311 63.3967C51.0679 62.6474 63.8709 48.6322 63.1203 32.094C62.3961 16.0146 49.1336 3.46859 33.2023 3.4679C32.7442 3.4679 32.2841 3.47837 31.8218 3.49932Z" fill="url(#paint0_radial_5_18)"/>
<path fill-rule="evenodd" clip-rule="evenodd" d="M31.8023 3.07781C15.5302 3.81101 2.82981 17.2139 2.78931 33.3309V33.479C2.79 33.9196 2.80048 34.3609 2.82073 34.805C3.57976 51.5666 17.7828 64.5386 34.5486 63.7831C51.3102 63.0268 64.2885 48.8209 63.5267 32.0559C62.7907 15.7635 49.3473 3.04639 33.2016 3.04639C32.7373 3.04639 32.2708 3.05686 31.8023 3.07781ZM35.4189 60.156C35.3896 59.4703 36.3958 59.2965 36.3958 59.2965C45.3827 57.5284 42.7558 51.6321 39.573 48.626C38.2365 47.3586 25.7295 36.5687 25.7295 36.5687C13.7994 26.2963 14.7567 18.28 14.7567 18.28C15.3293 8.40907 23.9706 5.96158 30.5079 6.52859C31.2697 6.59563 31.6936 7.06138 31.5595 7.69612C31.415 8.3937 30.4025 8.44608 30.4025 8.44608C28.3244 8.56618 26.4634 8.78125 25.0501 9.73162C19.7795 13.274 21.3387 19.303 28.3586 26.0121C29.2391 26.8549 30.1804 27.7431 31.1426 28.6432C31.1426 28.6432 32.5567 29.8904 35.3596 32.5585C40.7643 37.538 43.7236 40.2229 43.7236 40.2229C53.2412 48.1505 49.9949 55.3965 46.3498 57.916C43.5784 59.8369 40.5045 60.7412 36.4726 60.9549C36.4384 60.9598 36.4007 60.9626 36.3616 60.9626C35.9915 60.9626 35.4475 60.7363 35.4189 60.156ZM37.644 30.8905C34.559 30.2425 33.9306 27.4389 33.9306 27.4389C33.6799 26.4571 33.6177 25.2155 33.8244 23.6318C34.2469 20.315 35.1379 18.7543 36.156 16.1846C37.5295 12.7316 34.191 10.7115 34.7462 9.44202C35.494 7.72214 37.8752 9.90777 40.5342 10.0656C42.8267 10.1934 44.1988 10.0775 45.9773 10.3177C48.348 10.6319 51.1747 11.4314 52.4337 12.9125C53.5893 14.2595 51.8248 15.9165 49.6985 14.8802C48.1518 14.1254 46.1994 14.587 47.346 16.2035C48.7202 17.7418 49.3864 17.7879 50.7892 18.1538C54.657 19.174 54.7401 22.8798 52.1181 24.7973C49.1392 26.9794 46.1212 26.0772 44.909 21.7953C44.3078 19.6628 42.796 18.5742 41.2535 19.1866C39.7165 19.7878 40.6243 22.5984 41.7925 25.2009C43.8217 30.3807 39.7117 30.9128 38.1482 30.9128C37.9115 30.9128 37.7334 30.9003 37.644 30.8905ZM26.3212 59.1891C22.968 58.8595 18.9564 57.8023 15.4677 54.7794C12.257 52.001 10.2655 48.1855 9.30329 44.838C8.31173 41.4052 7.90044 37.3887 9.53024 37.7078C10.033 37.8069 10.8996 40.01 11.845 41.6203C12.8192 43.2766 13.6089 44.1914 14.3589 44.7507C14.6954 45.0076 15.8413 42.4568 17.5046 41.0079C18.4725 40.2111 19.5324 39.9353 19.7021 42.32C19.9144 45.2472 19.3851 48.7323 20.2391 48.7323C21.04 48.7323 22.8353 48.1255 26.7953 47.7924C28.2854 47.6639 29.1303 47.9453 27.71 49.9473C27.0027 50.9431 26.0558 52.3529 23.8143 53.9596C27.1745 57.1061 31.2098 56.7339 31.2818 58.069C31.3265 58.8399 29.8182 59.2652 27.835 59.2652C27.3532 59.2652 26.8435 59.2408 26.3212 59.1891Z" fill="url(#paint1_radial_5_18)"/>
<defs>
<radialGradient id="paint0_radial_5_18" cx="0" cy="0" r="1" gradientUnits="userSpaceOnUse" gradientTransform="translate(39.3196 26.1916) rotate(87.3495) scale(28.0311 28.0295)">
<stop offset="0.000554265" stop-color="#FEFDFC"/>
<stop offset="1" stop-color="#D3A243"/>
</radialGradient>
<radialGradient id="paint1_radial_5_18" cx="0" cy="0" r="1" gradientUnits="userSpaceOnUse" gradientTransform="translate(40.6175 32.1759) rotate(65.7559) scale(25.2254 23.6203)">
<stop stop-color="#00A8E2"/>
<stop offset="0.183963" stop-color="#00AFE7"/>
<stop offset="1" stop-color="#005BAC"/>
</radialGradient>
</defs>
</svg>
