<svg width="67" height="68" viewBox="0 0 67 68" fill="none" xmlns="http://www.w3.org/2000/svg">
<path fill-rule="evenodd" clip-rule="evenodd" d="M63.931 32.4961C63.931 48.7364 50.2362 61.8912 33.3665 61.8912C16.4809 61.8912 2.78931 48.7364 2.78931 32.4961C2.78931 16.2619 16.4809 3.09796 33.3665 3.09796C50.2362 3.09796 63.931 16.2619 63.931 32.4961Z" fill="#FEFEFE"/>
<path fill-rule="evenodd" clip-rule="evenodd" d="M33.3667 60.4096C49.4555 60.4096 62.491 47.875 62.491 32.4045C62.491 16.9249 49.4555 4.38416 33.3667 4.38416C17.2716 4.38416 4.23291 16.9249 4.23291 32.4045C4.23291 47.8811 17.2716 60.4096 33.3667 60.4096Z" fill="#0083C9"/>
<mask id="mask0_5_22" style="mask-type:luminance" maskUnits="userSpaceOnUse" x="4" y="4" width="59" height="57">
<path fill-rule="evenodd" clip-rule="evenodd" d="M33.36 4.37805C49.4616 4.37805 62.4811 16.9157 62.4811 32.3954C62.4811 47.875 49.4616 60.4127 33.36 60.4127C17.2585 60.4127 4.23901 47.875 4.23901 32.3954" fill="white"/>
</mask>
<g mask="url(#mask0_5_22)">
<path fill-rule="evenodd" clip-rule="evenodd" d="M33.4884 45.9137C46.2934 45.9137 57.271 49.3598 61.9597 54.2325C63.5439 50.7437 64.4049 46.9097 64.4049 42.8679C64.4049 26.8017 50.5533 13.7875 33.4884 13.7875C16.4331 13.7875 2.55908 26.817 2.55908 42.8832C2.55908 46.9097 3.42641 50.7437 5.02024 54.2325C9.69932 49.3598 20.6833 45.9137 33.4884 45.9137Z" fill="#0083C9"/>
<path fill-rule="evenodd" clip-rule="evenodd" d="M33.4784 45.9564C46.245 45.9564 57.1938 49.3597 61.8825 54.1805C63.4603 50.7375 64.3245 46.931 64.3245 42.9381C64.3245 26.9941 50.5017 14.0379 33.4784 14.0379C16.4647 14.0379 2.6355 26.9941 2.6355 42.9381C2.6355 46.9371 3.50282 50.7375 5.08385 54.1805C9.75333 49.3597 20.7021 45.9564 33.4784 45.9564Z" fill="#0084CB"/>
<path fill-rule="evenodd" clip-rule="evenodd" d="M33.4787 45.9779C46.2101 45.9779 57.1237 49.3597 61.8028 54.1438C63.3742 50.7284 64.2416 46.9616 64.2416 42.9809C64.2416 27.1683 50.4476 14.2793 33.4787 14.2793C16.5034 14.2793 2.71582 27.1775 2.71582 42.9962C2.71582 46.9677 3.57995 50.7284 5.14817 54.1438C9.81445 49.3597 20.7408 45.9779 33.4787 45.9779Z" fill="#0086CC"/>
<path fill-rule="evenodd" clip-rule="evenodd" d="M33.4754 46.0023C46.1812 46.0023 57.0628 49.3597 61.7227 54.1102C63.2941 50.7222 64.1582 46.9829 64.1582 43.042C64.1582 27.3699 50.4026 14.5389 33.4754 14.5389C16.5417 14.5389 2.78931 27.3699 2.78931 43.0603C2.78931 46.9829 3.64383 50.7222 5.21206 54.1102C9.85913 49.3597 20.7727 46.0023 33.4754 46.0023Z" fill="#0088CD"/>
<path fill-rule="evenodd" clip-rule="evenodd" d="M33.4656 46.039C46.1427 46.039 57.0051 49.3597 61.6521 54.0797C63.2204 50.7162 64.0781 47.0013 64.0781 43.0909C64.0781 27.5502 50.3609 14.7864 33.4656 14.7864C16.5768 14.7864 2.86279 27.5502 2.86279 43.1154C2.86279 47.0013 3.73012 50.7162 5.28234 54.0797C9.93582 49.3597 20.8014 46.039 33.4656 46.039Z" fill="#0089CE"/>
<path fill-rule="evenodd" clip-rule="evenodd" d="M33.4659 46.0695C46.1046 46.0695 56.9286 49.3719 61.5724 54.0369C63.1407 50.71 63.9888 47.0134 63.9888 43.1703C63.9888 27.7212 50.31 15.0308 33.4659 15.0308C16.6187 15.0308 2.94312 27.7212 2.94312 43.1703C2.94312 47.0134 3.79444 50.71 5.35627 54.0369C9.98734 49.3719 20.8241 46.0695 33.4659 46.0695Z" fill="#008BCF"/>
<path fill-rule="evenodd" clip-rule="evenodd" d="M33.4595 46.1031C46.0693 46.1031 56.8613 49.3719 61.4988 54.0094C63.0574 50.7039 63.9055 47.044 63.9055 43.2161C63.9055 27.9168 50.2715 15.2722 33.4595 15.2722C16.6603 15.2722 3.00708 27.9168 3.00708 43.2223C3.00708 47.044 3.87441 50.7039 5.42663 54.0094C10.0385 49.3719 20.8497 46.1031 33.4595 46.1031Z" fill="#008DD1"/>
<path fill-rule="evenodd" clip-rule="evenodd" d="M33.459 46.1275C46.0241 46.1275 56.8128 49.378 61.4183 53.9635C62.9673 50.6977 63.8218 47.0776 63.8218 43.2772C63.8218 28.0969 50.2231 15.5195 33.459 15.5195C16.7046 15.5195 3.09302 28.103 3.09302 43.2863C3.09302 47.0776 3.94114 50.7038 5.49017 53.9635C10.102 49.378 20.8844 46.1275 33.459 46.1275Z" fill="#008FD2"/>
<path fill-rule="evenodd" clip-rule="evenodd" d="M33.4562 46.1611C45.9956 46.1611 56.746 49.378 61.3515 53.933C62.8941 50.6825 63.7358 47.0868 63.7358 43.3261C63.7358 28.2894 50.1722 15.767 33.4562 15.767C16.7466 15.767 3.16382 28.2894 3.16382 43.3322C3.16382 47.1021 4.02154 50.6825 5.56737 53.933C10.16 49.378 20.9072 46.1611 33.4562 46.1611Z" fill="#0091D3"/>
<path fill-rule="evenodd" clip-rule="evenodd" d="M33.4435 46.1917C45.9445 46.1917 56.6917 49.378 61.2683 53.9025C62.8078 50.6703 63.6687 47.1143 63.6687 43.3872C63.6687 28.4605 50.1179 16.0328 33.4435 16.0328C16.7755 16.0328 3.24072 28.4666 3.24072 43.3872C3.24072 47.1143 4.09525 50.6703 5.63467 53.9025C10.2209 49.378 20.9489 46.1917 33.4435 46.1917Z" fill="#0093D4"/>
<path fill-rule="evenodd" clip-rule="evenodd" d="M33.4433 46.2315C45.9123 46.2315 56.6179 49.3781 61.1882 53.8628C62.7372 50.6612 63.5693 47.1357 63.5693 43.4361C63.5693 28.65 50.0761 16.2773 33.4433 16.2773C16.8169 16.2773 3.32056 28.65 3.32056 43.4422C3.32056 47.1388 4.15588 50.6612 5.7017 53.8628C10.2752 49.3781 20.9775 46.2315 33.4433 46.2315Z" fill="#0094D6"/>
<path fill-rule="evenodd" clip-rule="evenodd" d="M33.4308 46.2558C45.8871 46.2558 56.5478 49.3841 61.1117 53.823C62.6447 50.6611 63.496 47.1662 63.496 43.491C63.496 28.824 50.0285 16.5277 33.4308 16.5277C16.8684 16.5277 3.40088 28.8363 3.40088 43.491C3.40088 47.1662 4.2362 50.6611 5.77882 53.823C10.3331 49.3841 21.0002 46.2558 33.4308 46.2558Z" fill="#0096D7"/>
<path fill-rule="evenodd" clip-rule="evenodd" d="M33.4305 46.2895C45.8515 46.2895 56.4963 49.3842 61.0281 53.8017C62.5611 50.6489 63.4093 47.1724 63.4093 43.54C63.4093 29.0104 49.9865 16.7722 33.4305 16.7722C16.8969 16.7722 3.47095 29.0257 3.47095 43.5614C3.47095 47.1785 4.30627 50.655 5.83609 53.8017C10.3808 49.3842 21.0255 46.2895 33.4305 46.2895Z" fill="#0098D8"/>
<path fill-rule="evenodd" clip-rule="evenodd" d="M33.4308 46.3077C45.8102 46.3077 56.4165 49.3902 60.9644 53.7558C62.4782 50.6489 63.3232 47.2212 63.3232 43.5979C63.3232 29.2059 49.942 17.0165 33.4308 17.0165C16.9388 17.0165 3.55127 29.2059 3.55127 43.6071C3.55127 47.2212 4.38339 50.6489 5.90681 53.7558C10.4387 49.3902 21.0546 46.3077 33.4308 46.3077Z" fill="#009AD9"/>
<path fill-rule="evenodd" clip-rule="evenodd" d="M33.4305 46.3536C45.7683 46.3536 56.3586 49.3902 60.8905 53.7283C62.3979 50.6336 63.2332 47.2334 63.2332 43.653C63.2332 29.3923 49.8841 17.2579 33.4305 17.2579C16.9801 17.2579 3.62134 29.3923 3.62134 43.653C3.62134 47.2334 4.44386 50.6336 5.97048 53.7283C10.4959 49.3902 21.0831 46.3536 33.4305 46.3536Z" fill="#009CDB"/>
<path fill-rule="evenodd" clip-rule="evenodd" d="M33.4212 46.3872C45.7334 46.3872 56.2885 49.3902 60.798 53.6855C62.3246 50.6336 63.1535 47.2548 63.1535 43.711C63.1535 29.5756 49.8332 17.5175 33.4212 17.5175C17.0316 17.5175 3.69849 29.5756 3.69849 43.7171C3.69849 47.2548 4.53701 50.6336 6.04763 53.6855C10.5507 49.3902 21.1122 46.3872 33.4212 46.3872Z" fill="#009EDC"/>
<path fill-rule="evenodd" clip-rule="evenodd" d="M33.4211 46.4147C45.7077 46.4147 56.2308 49.3903 60.7242 53.6459C62.2445 50.6214 63.0798 47.267 63.0798 43.763C63.0798 29.7558 49.7883 17.762 33.4211 17.762C17.0603 17.762 3.77197 29.762 3.77197 43.763C3.77197 47.267 4.60089 50.6275 6.11791 53.6459C10.6146 49.3903 21.1537 46.4147 33.4211 46.4147Z" fill="#00A0DD"/>
<path fill-rule="evenodd" clip-rule="evenodd" d="M33.4178 46.4513C45.6563 46.4513 56.1731 49.4085 60.6569 53.6152C62.1611 50.6214 62.9964 47.2975 62.9964 43.8301C62.9964 29.9391 49.7497 18.0063 33.4178 18.0063C17.1018 18.0063 3.84546 29.9391 3.84546 43.8301C3.84546 47.2975 4.68078 50.6214 6.1818 53.6152C10.6785 49.4085 21.1856 46.4513 33.4178 46.4513Z" fill="#00A2DE"/>
<path fill-rule="evenodd" clip-rule="evenodd" d="M33.4048 46.4789C45.6242 46.4789 56.0961 49.4086 60.5768 53.5909C62.081 50.6031 62.9067 47.319 62.9067 43.8699C62.9067 30.1255 49.6952 18.263 33.4048 18.263C17.1273 18.263 3.91895 30.1255 3.91895 43.8791C3.91895 47.319 4.75427 50.6031 6.25208 53.5909C10.7263 49.4086 21.2047 46.4789 33.4048 46.4789Z" fill="#00A4E0"/>
<path fill-rule="evenodd" clip-rule="evenodd" d="M33.4051 46.5094C45.5861 46.5094 56.042 49.4085 60.4971 53.5511C62.0077 50.5969 62.8206 47.3434 62.8206 43.934C62.8206 30.324 49.6571 18.5073 33.4051 18.5073C17.1756 18.5073 3.99927 30.324 3.99927 43.934C3.99927 47.3342 4.82819 50.603 6.32921 53.5511C10.7875 49.4085 21.2466 46.5094 33.4051 46.5094Z" fill="#00A6E1"/>
<path fill-rule="evenodd" clip-rule="evenodd" d="M33.4048 46.5338C45.5378 46.5338 55.9649 49.4208 60.4135 53.5053C61.9242 50.5878 62.7531 47.3801 62.7531 43.9829C62.7531 30.4951 49.6056 18.7548 33.4048 18.7548C17.2201 18.7548 4.06616 30.4951 4.06616 43.9829C4.06616 47.3801 4.89828 50.5878 6.3961 53.5053C10.8415 49.4208 21.2751 46.5338 33.4048 46.5338Z" fill="#00A8E2"/>
<path fill-rule="evenodd" clip-rule="evenodd" d="M33.3987 46.5705C45.5061 46.5705 55.9044 49.4208 60.337 53.4686C61.8477 50.5756 62.6574 47.3923 62.6574 44.0471C62.6574 30.6693 49.5515 19.0084 33.3987 19.0084C17.262 19.0084 4.14648 30.6845 4.14648 44.0471C4.14648 47.3862 4.9754 50.5817 6.45722 53.4686C10.8995 49.4208 21.2946 46.5705 33.3987 46.5705Z" fill="#00AAE4"/>
<path fill-rule="evenodd" clip-rule="evenodd" d="M33.3986 46.5981C45.474 46.5981 55.8371 49.4209 60.2665 53.4443C61.7611 50.5757 62.5644 47.4076 62.5644 44.093C62.5644 30.8588 49.513 19.259 33.3986 19.259C17.3003 19.259 4.21997 30.8649 4.21997 44.093C4.21997 47.4076 5.04249 50.5757 6.53711 53.4443C10.9569 49.4209 21.3233 46.5981 33.3986 46.5981Z" fill="#00ADE5"/>
<path fill-rule="evenodd" clip-rule="evenodd" d="M33.3891 46.6254C45.4453 46.6254 55.7828 49.4299 60.193 53.3983C61.6684 50.5725 62.4909 47.4381 62.4909 44.1509C62.4909 31.0358 49.4586 19.5032 33.3891 19.5032C17.342 19.5032 4.29688 31.0511 4.29688 44.1509C4.29688 47.4319 5.11939 50.5755 6.60761 53.3983C11.0114 49.4299 21.3522 46.6254 33.3891 46.6254Z" fill="#00AFE6"/>
<path fill-rule="evenodd" clip-rule="evenodd" d="M33.3891 46.6652C45.3941 46.6652 55.7188 49.43 60.1098 53.3678C61.5852 50.5573 62.3982 47.4442 62.3982 44.2059C62.3982 31.2344 49.4075 19.7446 33.3891 19.7446C17.3804 19.7446 4.38013 31.2344 4.38013 44.2059C4.38013 47.4442 5.18344 50.5725 6.66846 53.3678C11.0691 49.43 21.3874 46.6652 33.3891 46.6652Z" fill="#00B1E8"/>
<path fill-rule="evenodd" clip-rule="evenodd" d="M33.3891 46.6834C45.3684 46.6834 55.6419 49.4329 60.0394 53.3219C61.5212 50.5572 62.3245 47.4777 62.3245 44.2547C62.3245 31.4054 49.3594 19.9951 33.3891 19.9951C17.4188 19.9951 4.44409 31.4054 4.44409 44.2547C4.44409 47.4777 5.25381 50.5572 6.73883 53.3219C11.1299 49.4329 21.413 46.6834 33.3891 46.6834Z" fill="#00B3E9"/>
<path fill-rule="evenodd" clip-rule="evenodd" d="M33.3824 46.7264C45.3169 46.7264 55.5808 49.4331 59.9559 53.3007C61.4345 50.5482 62.2442 47.4962 62.2442 44.3251C62.2442 31.6011 49.3239 20.2518 33.3824 20.2518C17.4633 20.2518 4.53662 31.6011 4.53662 44.3251C4.53662 47.4962 5.33994 50.5573 6.80575 53.3007C11.1904 49.4331 21.4415 46.7264 33.3824 46.7264Z" fill="#00B5EA"/>
<path fill-rule="evenodd" clip-rule="evenodd" d="M33.3664 46.7447C45.2881 46.7447 55.5168 49.4331 59.8854 53.264C61.3576 50.5298 62.1609 47.5207 62.1609 44.371C62.1609 31.7844 49.2759 20.484 33.3664 20.484C17.5081 20.484 4.60059 31.7844 4.60059 44.371C4.60059 47.5207 5.4039 50.5482 6.88252 53.264C11.2383 49.4331 21.4766 46.7447 33.3664 46.7447Z" fill="#00B8EC"/>
<path fill-rule="evenodd" clip-rule="evenodd" d="M33.3664 46.7905C45.2465 46.7905 55.4528 49.433 59.799 53.2273C61.2745 50.5237 62.081 47.5573 62.081 44.4259C62.081 31.9738 49.2343 20.7528 33.3664 20.7528C17.5401 20.7528 4.68384 31.9738 4.68384 44.4259C4.68384 47.5512 5.47435 50.5298 6.94017 53.2273C11.3024 49.433 21.4927 46.7905 33.3664 46.7905Z" fill="#03BAED"/>
<path fill-rule="evenodd" clip-rule="evenodd" d="M33.3668 46.8179C45.2085 46.8179 55.386 49.433 59.7258 53.1753C61.1884 50.5236 61.9886 47.5725 61.9886 44.49C61.9886 32.1601 49.1835 20.9971 33.3668 20.9971C17.5725 20.9971 4.75464 32.1601 4.75464 44.49C4.75464 47.5725 5.55476 50.5236 7.02057 53.1753C11.3572 49.433 21.5187 46.8179 33.3668 46.8179Z" fill="#12BCEF"/>
<path fill-rule="evenodd" clip-rule="evenodd" d="M33.3666 46.8547C45.1699 46.8547 55.3282 49.4392 59.6456 53.1541C61.1114 50.5023 61.9083 47.6031 61.9083 44.542C61.9083 32.3374 49.1321 21.2447 33.3666 21.2447C17.6203 21.2447 4.83765 32.3374 4.83765 44.542C4.83765 47.594 5.62496 50.5237 7.08117 53.1541C11.4178 49.4392 21.5601 46.8547 33.3666 46.8547Z" fill="#1BBFF0"/>
<path fill-rule="evenodd" clip-rule="evenodd" d="M33.3604 46.879C45.1381 46.879 55.2515 49.4452 59.5722 53.1081C61.0284 50.4931 61.8157 47.6244 61.8157 44.5908C61.8157 32.5236 49.0842 21.4982 33.3604 21.4982C17.6493 21.4982 4.90503 32.5236 4.90503 44.5908C4.90503 47.6153 5.69874 50.5022 7.15816 53.1081C11.4724 49.4452 21.5859 46.879 33.3604 46.879Z" fill="#20C3F3"/>
<path fill-rule="evenodd" clip-rule="evenodd" d="M33.36 46.9432C45.1121 46.9432 55.2351 49.5002 59.5462 53.1448C60.9928 50.5572 61.7769 47.6886 61.7769 44.6825C61.7769 32.6825 49.0678 21.7212 33.36 21.7212C17.6777 21.7212 4.95264 32.6825 4.95264 44.6825C4.95264 47.6825 5.74315 50.5572 7.19296 53.1448C11.4944 49.5002 21.6015 46.9432 33.36 46.9432Z" fill="#32C5F3"/>
<path fill-rule="evenodd" clip-rule="evenodd" d="M33.3667 47.0134C45.106 47.0134 55.197 49.5552 59.5017 53.1754C60.9483 50.597 61.7484 47.7558 61.7484 44.7741C61.7484 32.8536 49.0425 21.9503 33.3667 21.9503C17.694 21.9503 4.97534 32.8536 4.97534 44.7741C4.97534 47.7497 5.77866 50.6031 7.22207 53.1754C11.5203 49.5552 21.6178 47.0134 33.3667 47.0134Z" fill="#3FC6F3"/>
<path fill-rule="evenodd" clip-rule="evenodd" d="M33.3663 47.0868C45.08 47.0868 55.171 49.6041 59.4629 53.2059C60.9095 50.6489 61.7096 47.8139 61.7096 44.8505C61.7096 33.0094 49.0229 22.1764 33.3663 22.1764C17.7224 22.1764 5.02295 33.0094 5.02295 44.8505C5.02295 47.8139 5.81346 50.6489 7.25687 53.2059C11.5647 49.6041 21.6366 47.0868 33.3663 47.0868Z" fill="#4AC8F4"/>
<path fill-rule="evenodd" clip-rule="evenodd" d="M33.3665 47.1724C45.077 47.1724 55.1392 49.6653 59.4246 53.2335C60.8777 50.6978 61.6682 47.8903 61.6682 44.9392C61.6682 33.1866 48.9975 22.4025 33.3665 22.4025C17.745 22.4025 5.05835 33.1866 5.05835 44.9392C5.05835 47.8811 5.85206 50.7039 7.28907 53.2335C11.5841 49.6653 21.6464 47.1724 33.3665 47.1724Z" fill="#54C9F4"/>
<path fill-rule="evenodd" clip-rule="evenodd" d="M33.3666 47.2335C45.0611 47.2335 55.1105 49.7111 59.396 53.2732C60.833 50.7375 61.6363 47.9483 61.6363 45.0278C61.6363 33.3485 48.9784 22.6378 33.3666 22.6378C17.7611 22.6378 5.10327 33.3485 5.10327 45.0278C5.10327 47.9483 5.88739 50.7437 7.334 53.2732C11.6226 49.7111 21.6497 47.2335 33.3666 47.2335Z" fill="#5CCBF4"/>
<path fill-rule="evenodd" clip-rule="evenodd" d="M33.3663 47.3068C45.048 47.3068 55.0846 49.7722 59.3604 53.3007C60.7974 50.7803 61.5848 48.0186 61.5848 45.1194C61.5848 33.5166 48.9621 22.8577 33.3663 22.8577C17.7768 22.8577 5.14136 33.5166 5.14136 45.1194C5.14136 48.0186 5.92547 50.7987 7.36248 53.3007C11.6415 49.7722 21.6878 47.3068 33.3663 47.3068Z" fill="#64CDF5"/>
<path fill-rule="evenodd" clip-rule="evenodd" d="M33.3662 47.3862C45.0319 47.3862 55.0622 49.8272 59.322 53.3221C60.7654 50.8323 61.5559 48.0858 61.5559 45.1958C61.5559 33.6724 48.9269 23.0807 33.3662 23.0807C17.8152 23.0807 5.17334 33.6877 5.17334 45.1958C5.17334 48.0858 5.96065 50.8323 7.39446 53.3221C11.6799 49.8272 21.6973 47.3862 33.3662 47.3862Z" fill="#6CCEF5"/>
<path fill-rule="evenodd" clip-rule="evenodd" d="M33.3662 47.4442C45.0191 47.4442 55.027 49.882 59.2964 53.3678C60.7238 50.8871 61.5271 48.1468 61.5271 45.2873C61.5271 33.8403 48.9109 23.3159 33.3662 23.3159C17.8248 23.3159 5.20532 33.8403 5.20532 45.2873C5.20532 48.1468 6.00544 50.8932 7.42965 53.3678C11.7055 49.882 21.7133 47.4442 33.3662 47.4442Z" fill="#73D0F5"/>
<path fill-rule="evenodd" clip-rule="evenodd" d="M33.3665 47.5175C44.9906 47.5175 54.9889 49.931 59.2519 53.3923C60.6953 50.9422 61.4826 48.2202 61.4826 45.3668C61.4826 34.0053 48.8952 23.545 33.3665 23.545C17.8475 23.545 5.25366 34.0053 5.25366 45.3668C5.25366 48.2202 6.04098 50.9422 7.46518 53.3923C11.7346 49.931 21.7233 47.5175 33.3665 47.5175Z" fill="#7AD2F6"/>
<path fill-rule="evenodd" clip-rule="evenodd" d="M33.3663 47.5939C44.9904 47.5939 54.9662 49.9921 59.2133 53.4259C60.6567 50.9727 61.4376 48.2843 61.4376 45.4615C61.4376 34.1764 48.8726 23.7803 33.3663 23.7803C17.8729 23.7803 5.28223 34.1764 5.28223 45.4615C5.28223 48.2843 6.08234 50.9788 7.50335 53.4259C11.76 49.9921 21.7358 47.6031 33.3663 47.5939Z" fill="#81D3F6"/>
<path fill-rule="evenodd" clip-rule="evenodd" d="M33.3664 47.6489C44.9713 47.6489 54.9311 50.0562 59.1909 53.4565C60.6023 51.0247 61.396 48.3516 61.396 45.5471C61.396 34.3353 48.8534 24.0002 33.3664 24.0002C17.8889 24.0002 5.3335 34.3353 5.3335 45.5471C5.3335 48.3516 6.11761 51.0338 7.54182 53.4565C11.7888 50.0562 21.7551 47.655 33.3664 47.6489Z" fill="#87D5F6"/>
<path fill-rule="evenodd" clip-rule="evenodd" d="M33.3664 47.7345C44.9521 47.7345 54.9056 50.096 59.1494 53.4778C60.5768 51.0797 61.3673 48.4218 61.3673 45.6387C61.3673 34.488 48.8279 24.2294 33.3664 24.2294C17.9146 24.2294 5.35596 34.488 5.35596 45.6387C5.35596 48.4218 6.14647 51.0858 7.56748 53.4778C11.8209 50.096 21.7775 47.7345 33.3664 47.7345Z" fill="#8ED7F7"/>
<path fill-rule="evenodd" clip-rule="evenodd" d="M33.3668 47.7986C44.9396 47.7986 54.8739 50.1571 59.1113 53.5145C60.5355 51.1194 61.326 48.4829 61.326 45.7151C61.326 34.6652 48.809 24.4493 33.3668 24.4493C17.9341 24.4493 5.4043 34.6652 5.4043 45.7151C5.4043 48.4829 6.18521 51.1255 7.60302 53.5145C11.85 50.1571 21.7939 47.7986 33.3668 47.7986Z" fill="#94D9F7"/>
<path fill-rule="evenodd" clip-rule="evenodd" d="M33.3669 47.881C44.9206 47.881 54.8484 50.2059 59.073 53.5511C60.4972 51.1682 61.2973 48.547 61.2973 45.8097C61.2973 34.8301 48.7899 24.6967 33.3669 24.6967C17.947 24.6967 5.44922 34.8362 5.44922 45.8097C5.44922 48.547 6.22373 51.1682 7.65114 53.5511C11.8886 50.2059 21.81 47.881 33.3669 47.881Z" fill="#9ADBF7"/>
<path fill-rule="evenodd" clip-rule="evenodd" d="M33.3664 47.9482C44.9137 47.9482 54.8095 50.2639 59.0373 53.5908C60.4552 51.217 61.2457 48.6172 61.2457 45.8861C61.2457 34.9828 48.7542 24.9105 33.3664 24.9105C17.969 24.9105 5.47437 34.9828 5.47437 45.8861C5.47437 48.6264 6.26808 51.2231 7.67308 53.5908C11.9041 50.2639 21.8223 47.9482 33.3664 47.9482Z" fill="#A0DDF8"/>
<path fill-rule="evenodd" clip-rule="evenodd" d="M33.3662 48.0185C44.8879 48.0185 54.7773 50.322 59.018 53.6153C60.4134 51.269 61.1975 48.6845 61.1975 45.9778C61.1975 35.1692 48.7413 25.1428 33.3662 25.1428C17.9912 25.1428 5.52539 35.1723 5.52539 45.9778C5.52539 48.6845 6.2967 51.269 7.70811 53.6153C11.9391 50.322 21.8382 48.0185 33.3662 48.0185Z" fill="#A6DEF8"/>
<path fill-rule="evenodd" clip-rule="evenodd" d="M33.3667 48.0949C44.8756 48.0949 54.7618 50.3709 58.9768 53.6367C60.3883 51.3118 61.1756 48.7487 61.1756 46.0695C61.1756 35.3189 48.7162 25.3597 33.3667 25.3597C18.0109 25.3597 5.55469 35.3189 5.55469 46.0542C5.55469 48.7487 6.3356 51.321 7.75981 53.6367C11.9716 50.3709 21.8547 48.0949 33.3667 48.0949Z" fill="#ACE0F9"/>
<path fill-rule="evenodd" clip-rule="evenodd" d="M33.3664 48.1622C44.856 48.1622 54.7231 50.4259 58.9413 53.6795C60.3367 51.3638 61.124 48.822 61.124 46.1489C61.124 35.4992 48.703 25.6072 33.3664 25.6072C18.0297 25.6072 5.59912 35.4992 5.59912 46.1489C5.59912 48.822 6.38003 51.3699 7.78504 53.6795C11.9969 50.4259 21.8703 48.1622 33.3664 48.1622Z" fill="#B2E2F9"/>
<path fill-rule="evenodd" clip-rule="evenodd" d="M33.3666 48.2447C44.8402 48.2447 54.6944 50.4779 58.8935 53.71C60.3049 51.4096 61.0922 48.8862 61.0922 46.2314C61.0922 35.6459 48.6776 25.8302 33.3666 25.8302C18.0555 25.8302 5.63452 35.655 5.63452 46.2314C5.63452 48.8923 6.40903 51.4096 7.81724 53.71C12.0291 50.4779 21.8769 48.2447 33.3666 48.2447Z" fill="#B8E4F9"/>
<path fill-rule="evenodd" clip-rule="evenodd" d="M33.3667 48.3119C44.8244 48.3119 54.6658 50.5482 58.8616 53.7376C60.2699 51.4616 61.0572 48.9474 61.0572 46.3201C61.0572 35.814 48.665 26.0624 33.3667 26.0624C18.0845 26.0624 5.66992 35.8201 5.66992 46.3201C5.66992 48.9535 6.45404 51.4616 7.85904 53.7376C12.058 50.5482 21.9059 48.3119 33.3667 48.3119Z" fill="#BDE6FA"/>
<path fill-rule="evenodd" clip-rule="evenodd" d="M33.3663 48.376C44.808 48.376 54.6302 50.5969 58.8196 53.7711C60.231 51.5012 61.012 49.0236 61.012 46.4147C61.012 35.988 48.6422 26.2945 33.3663 26.2945C18.0873 26.2945 5.71753 35.988 5.71753 46.4147C5.71753 49.0328 6.48564 51.5012 7.88424 53.7711C12.0865 50.5969 21.9183 48.3912 33.3663 48.376Z" fill="#C3E8FA"/>
<path fill-rule="evenodd" clip-rule="evenodd" d="M33.3665 48.4462C44.7922 48.4462 54.608 50.6489 58.7878 53.8016C60.2024 51.5562 60.9834 49.0878 60.9834 46.5002C60.9834 36.156 48.6168 26.5206 33.3665 26.5206C18.1227 26.5206 5.75293 36.156 5.75293 46.5002C5.75293 49.0939 6.52744 51.5562 7.92605 53.8016C12.1091 50.6489 21.9345 48.4554 33.3665 48.4462Z" fill="#C9EAFA"/>
<path fill-rule="evenodd" clip-rule="evenodd" d="M33.3662 48.5196C44.7759 48.5196 54.5885 50.71 58.7523 53.823C60.1541 51.6051 60.9382 49.155 60.9382 46.5857C60.9382 36.3179 48.594 26.7466 33.3662 26.7466C18.1352 26.7466 5.79102 36.3179 5.79102 46.5857C5.79102 49.1611 6.55913 51.6051 7.95773 53.823C12.1503 50.71 21.9438 48.5196 33.3662 48.5196Z" fill="#CEECFB"/>
<path fill-rule="evenodd" clip-rule="evenodd" d="M33.3666 48.5959C44.7699 48.5959 54.5441 50.7589 58.7271 53.8566C60.1257 51.657 60.9066 49.2192 60.9066 46.6652C60.9066 36.4829 48.5784 26.9697 33.3666 26.9697C18.1548 26.9697 5.82983 36.4829 5.82983 46.6652C5.82983 49.2283 6.60755 51.657 7.99335 53.8566C12.1796 50.7589 21.9698 48.5959 33.3666 48.5959Z" fill="#D4EEFB"/>
<path fill-rule="evenodd" clip-rule="evenodd" d="M33.3662 48.6601C44.7534 48.6601 54.5116 50.8139 58.6947 53.8841C60.0837 51.7029 60.871 49.2833 60.871 46.7568C60.871 36.6509 48.5524 27.1927 33.3662 27.1927C18.1704 27.1927 5.85498 36.6509 5.85498 46.7446C5.85498 49.2894 6.62949 51.7151 8.0345 53.8841C12.2079 50.8139 21.9789 48.6723 33.3662 48.6601Z" fill="#D9F0FB"/>
<path fill-rule="evenodd" clip-rule="evenodd" d="M33.3663 48.7365C44.7375 48.7365 54.4926 50.878 58.6532 53.9269C60.039 51.7456 60.8231 49.3597 60.8231 46.8424C60.8231 36.819 48.5333 27.4157 33.3663 27.4157C18.1929 27.4157 5.8999 36.819 5.8999 46.8332C5.8999 49.3597 6.67441 51.7456 8.06662 53.9269C12.2368 50.878 22.0046 48.7365 33.3663 48.7365Z" fill="#DFF2FC"/>
<path fill-rule="evenodd" clip-rule="evenodd" d="M33.3666 48.8037C44.7155 48.8037 54.4641 50.93 58.6055 53.9483C59.9977 51.7976 60.7754 49.43 60.7754 46.9249C60.7754 36.9779 48.5048 27.6632 33.3666 27.6632C18.2188 27.6632 5.94824 36.9779 5.94824 46.9249C5.94824 49.4331 6.71315 51.7976 8.09255 53.9483C12.2628 50.93 22.0242 48.8037 33.3666 48.8037Z" fill="#E5F4FC"/>
<path fill-rule="evenodd" clip-rule="evenodd" d="M33.3667 48.8861C44.7027 48.8861 54.4289 50.9726 58.5767 53.9849C59.9657 51.8494 60.7499 49.494 60.7499 47.0134C60.7499 37.1397 48.4793 27.8983 33.3667 27.8983C18.2381 27.8983 5.9707 37.1397 5.9707 47.0073C5.9707 49.5001 6.74842 51.8494 8.12782 53.9849C12.298 50.9726 22.037 48.8861 33.3667 48.8861Z" fill="#EAF6FD"/>
<path fill-rule="evenodd" clip-rule="evenodd" d="M33.3663 48.9472C44.6864 48.9472 54.3966 51.0338 58.5476 54.0093C59.9302 51.8861 60.7079 49.5551 60.7079 47.102C60.7079 37.3108 48.4629 28.1152 33.3663 28.1152C18.2569 28.1152 6.01514 37.3108 6.01514 47.102C6.01514 49.5582 6.78325 51.8861 8.16585 54.0093C12.3265 51.0338 22.0495 48.9472 33.3663 48.9472Z" fill="#F0F8FD"/>
<path fill-rule="evenodd" clip-rule="evenodd" d="M33.3662 49.0236C44.6638 49.0236 54.3549 51.0857 58.5123 54.0307C59.8949 51.9442 60.6758 49.6163 60.6758 47.1875C60.6758 37.4666 48.434 28.3413 33.3662 28.3413C18.2792 28.3413 6.05664 37.4666 6.05664 47.1784C6.05664 49.6346 6.82795 51.9442 8.19775 54.0307C12.3584 51.0857 22.0622 49.0327 33.3662 49.0236Z" fill="#F6FBFD"/>
<path fill-rule="evenodd" clip-rule="evenodd" d="M33.3665 49.0939C44.661 49.0939 54.3328 51.1499 58.4774 54.0796C59.8504 51.9808 60.6281 49.6835 60.6281 47.267C60.6281 37.6438 48.4311 28.5704 33.3665 28.5704C18.2988 28.5704 6.10498 37.6438 6.10498 47.267C6.10498 49.6987 6.86669 51.9808 8.23969 54.0796C12.3939 51.1499 22.0689 49.0939 33.3665 49.0939Z" fill="#FEFEFE"/>
</g>
<path fill-rule="evenodd" clip-rule="evenodd" d="M33.3668 39.4677C23.4998 39.4677 14.3208 41.0837 6.74854 43.7935C11.2964 53.6031 21.4931 60.4096 33.3668 60.4096C45.2405 60.4096 55.4468 53.597 59.9851 43.7935C52.4192 41.0837 43.2434 39.4677 33.3668 39.4677Z" fill="#0083C9"/>
</svg>
