<svg width="68" height="67" viewBox="0 0 68 67" fill="none" xmlns="http://www.w3.org/2000/svg">
<path fill-rule="evenodd" clip-rule="evenodd" d="M55.9644 19.525H16.8147C14.631 19.525 13.1029 20.8998 12.7384 22.5998C12.5425 23.5379 12.8971 24.3621 13.6152 24.9324L27.6809 34.2168L27.6907 34.2125L27.6929 34.2168L55.9896 19.6279C56.1023 19.5732 56.0914 19.525 55.9644 19.525ZM56.7023 27.8534H40.0719L37.3705 40.5815H53.9964C54.1223 40.5815 54.1365 40.5289 54.0336 40.4611L44.5763 34.2262L56.7275 27.9596C56.8369 27.9026 56.8249 27.8534 56.7023 27.8534ZM27.6933 34.2168L49.7551 48.7893C49.8613 48.8571 49.8427 48.9119 49.719 48.9119H10.5704C8.38117 48.9119 7.43871 47.5349 7.80321 45.8371C8.00024 44.9067 8.70845 44.0726 9.66514 43.5078L27.6813 34.2168L27.6889 34.2201L27.6933 34.2168Z" fill="#E32313"/>
<path fill-rule="evenodd" clip-rule="evenodd" d="M61.8136 27.8534H59.4263C59.3048 27.8534 59.1121 27.9027 59.0037 27.9596L47.0353 34.1255C46.9248 34.178 46.9215 34.2831 47.0244 34.3521L56.3066 40.4611C56.4106 40.5267 56.6 40.5815 56.7215 40.5815H59.1077C59.2336 40.5815 59.2467 40.5289 59.1449 40.4611L49.6722 34.2262L61.8399 27.9596C61.9482 27.9027 61.9362 27.8534 61.8136 27.8534Z" fill="#EE7D00"/>
<path fill-rule="evenodd" clip-rule="evenodd" d="M66.9192 27.8534H64.5319C64.4082 27.8534 64.2199 27.9027 64.1072 27.9596L52.1431 34.1255C52.0304 34.178 52.0304 34.2831 52.1322 34.3521L61.4144 40.4611C61.5151 40.5267 61.7034 40.5815 61.8282 40.5815H64.2133C64.3381 40.5815 64.3567 40.5289 64.2505 40.4611L54.7778 34.2262L66.9444 27.9596C67.0549 27.9027 67.0451 27.8534 66.9192 27.8534Z" fill="#FAB900"/>
</svg>
