<svg width="67" height="68" viewBox="0 0 67 68" fill="none" xmlns="http://www.w3.org/2000/svg">
<path fill-rule="evenodd" clip-rule="evenodd" d="M33.7697 3.83505L33.6707 57.2762L5.77769 57.5825L5.57861 64.5174L61.3643 64.925L61.2646 57.888L39.6474 57.6838L39.8469 50.2391C39.8469 50.2391 37.7548 50.0349 41.4407 50.137C45.1266 50.2391 55.7074 47.8919 55.8855 36.7766C55.9849 30.5556 51.203 25.966 51.203 25.966C51.203 25.966 54.2913 24.9465 54.1916 18.0108C54.0919 11.0759 48.0154 4.14097 38.1534 3.63083C37.1849 3.58058 36.4297 3.56073 35.8412 3.56073C33.6486 3.56073 33.7697 3.83505 33.7697 3.83505ZM39.7473 44.2219V10.6681C39.7473 10.6681 48.1153 10.566 48.1153 18.0107C48.1153 25.4561 41.839 26.8836 41.839 26.8836C41.839 26.8836 49.8093 27.598 49.7095 36.2663C49.6236 43.7097 42.3413 44.2361 40.2832 44.2361C39.9444 44.2361 39.7473 44.2219 39.7473 44.2219ZM11.7548 17.807C11.2569 24.8444 14.9424 28.7197 18.4289 31.7793C21.9157 34.8389 23.3108 36.9808 23.3108 39.1222C23.3108 44.222 14.4446 50.2392 14.4446 50.2392L22.5133 50.5451C22.5133 50.5451 29.4866 47.0774 29.7858 38.5104C30.0846 29.9434 18.2302 26.0681 18.2302 17.807C18.2302 9.54629 29.1878 10.2602 29.1878 10.2602L29.4866 3.93718C29.4866 3.93718 27.8991 3.63085 27.0961 3.63085C17.3334 3.63085 12.2527 10.77 11.7548 17.807Z" fill="url(#paint0_linear_5_26)"/>
<defs>
<linearGradient id="paint0_linear_5_26" x1="7.42491" y1="7.62258" x2="7.42491" y2="64.925" gradientUnits="userSpaceOnUse">
<stop stop-color="#B3D56F"/>
<stop offset="0.479154" stop-color="#00AD52"/>
<stop offset="1" stop-color="#0079AC"/>
</linearGradient>
</defs>
</svg>
