<svg width="68" height="68" viewBox="0 0 68 68" fill="none" xmlns="http://www.w3.org/2000/svg">
<path fill-rule="evenodd" clip-rule="evenodd" d="M3.04639 64.9001H64.3884V3.55988H3.04639V64.9001Z" fill="#0090D0"/>
<path fill-rule="evenodd" clip-rule="evenodd" d="M3.04639 3.56018L18.3774 18.902L33.7156 3.56018H3.04639Z" fill="#0090D0"/>
<path fill-rule="evenodd" clip-rule="evenodd" d="M3.04639 3.56018V34.2294L18.3774 18.902L3.04639 3.56018Z" fill="#0099D7"/>
<path fill-rule="evenodd" clip-rule="evenodd" d="M3.04761 34.2285H33.715L18.3876 18.8921L3.04761 34.2285Z" fill="#0090D0"/>
<path fill-rule="evenodd" clip-rule="evenodd" d="M33.716 3.56018L18.3867 18.8912L33.716 34.2294V3.56018Z" fill="#0082C8"/>
<path fill-rule="evenodd" clip-rule="evenodd" d="M33.7163 3.56018V34.2294L49.0473 18.902L33.7163 3.56018Z" fill="#0070BA"/>
<path fill-rule="evenodd" clip-rule="evenodd" d="M33.7175 34.2285H64.3867L49.0575 18.8921L33.7175 34.2285Z" fill="#004C97"/>
<path fill-rule="evenodd" clip-rule="evenodd" d="M3.04639 34.2286L18.3774 49.5704L33.7156 34.2286H3.04639Z" fill="#0082C8"/>
<path fill-rule="evenodd" clip-rule="evenodd" d="M3.04639 64.9001L18.3774 49.569L3.04639 34.2291V64.9001Z" fill="#0070BA"/>
<path fill-rule="evenodd" clip-rule="evenodd" d="M3.04761 64.9H33.715L18.3876 49.5582L3.04761 64.9Z" fill="#0066B2"/>
<path fill-rule="evenodd" clip-rule="evenodd" d="M18.3882 49.5585L33.7174 64.9003V34.2311L18.3882 49.5585Z" fill="#00519B"/>
<path fill-rule="evenodd" clip-rule="evenodd" d="M33.7163 34.2286L49.0473 49.5704L64.3855 34.2286H33.7163Z" fill="#1B3281"/>
<path fill-rule="evenodd" clip-rule="evenodd" d="M33.7163 64.9001L49.0473 49.569L33.7163 34.2291V64.9001Z" fill="#004C97"/>
<path fill-rule="evenodd" clip-rule="evenodd" d="M33.7175 64.9H64.3867L49.0575 49.5582L33.7175 64.9Z" fill="#1B3281"/>
<path fill-rule="evenodd" clip-rule="evenodd" d="M49.0581 49.5585L64.3891 64.9003V34.2311L49.0581 49.5585Z" fill="#1B3281"/>
<path fill-rule="evenodd" clip-rule="evenodd" d="M33.7163 3.56018L49.0473 18.902L64.3855 3.56018H33.7163Z" fill="#0066B2"/>
<path fill-rule="evenodd" clip-rule="evenodd" d="M64.3877 3.56018L49.0566 18.8912L64.3877 34.2294V3.56018Z" fill="#00519B"/>
<path fill-rule="evenodd" clip-rule="evenodd" d="M14.9443 53.0763L25.8185 63.9487L44.748 45.3024L64.3871 64.834V41.9046L44.748 23.1974L14.9443 53.0763Z" fill="#FEFEFE"/>
</svg>
