<svg width="68" height="68" viewBox="0 0 68 68" fill="none" xmlns="http://www.w3.org/2000/svg">
<path fill-rule="evenodd" clip-rule="evenodd" d="M52.0288 8.86645L61.448 18.2526C61.448 18.2526 62.0858 19.0749 61.9676 19.6602C61.8359 20.2917 61.2833 20.9822 61.2833 20.9822L56.6921 25.534L41.1231 9.89279C34.5129 2.93351 29.3494 5.70921 29.3494 5.70921C29.3494 5.70921 41.5046 -1.27614 52.0288 8.86645ZM37.4812 9.72276L55.0368 27.2453L48.3799 33.948C48.3799 33.948 47.5316 34.5397 46.9463 34.382C46.3409 34.2176 45.6637 33.6256 45.6637 33.6256L33.0217 20.9769C32.7915 20.7467 32.4297 20.7467 32.2128 20.9769L18.4065 34.7702C18.189 34.9937 18.189 35.3489 18.4065 35.5791L32.2128 49.3787C32.4297 49.5959 32.7915 49.5959 33.0217 49.3787L46.7295 35.6516C46.7295 35.6516 47.0318 35.4147 47.242 35.3292C47.5844 35.1778 48.6565 35.1778 48.6565 35.1778H59.9107C59.9107 35.1778 60.8382 35.0595 61.3049 35.3489C61.6864 35.5921 61.7459 36.125 61.7392 36.3091C61.1405 51.8651 48.3535 64.3888 32.6665 64.3888C16.5977 64.3888 3.56079 51.3519 3.56079 35.2831C3.56079 20.8322 14.098 8.84141 27.9043 6.55885C29.4498 6.30894 33.8372 6.08542 37.4812 9.72276Z" fill="#005BAC"/>
</svg>
