<svg width="68" height="68" viewBox="0 0 68 68" fill="none" xmlns="http://www.w3.org/2000/svg">
<path fill-rule="evenodd" clip-rule="evenodd" d="M33.7285 6.09283C49.1334 6.09283 61.6214 18.5809 61.6214 33.9857C61.6214 49.3905 49.1334 61.8785 33.7285 61.8785C18.3238 61.8785 5.83569 49.3905 5.83569 33.9857C5.83569 18.5809 18.3238 6.09283 33.7285 6.09283ZM33.7285 8.88214C19.8642 8.88214 8.62494 20.1214 8.62494 33.9857C8.62494 47.85 19.8642 59.0893 33.7285 59.0893C47.5928 59.0893 58.8321 47.85 58.8321 33.9857C58.8321 20.1214 47.5928 8.88214 33.7285 8.88214ZM35.1231 20.0393V22.8286H43.491V28.4071H35.1231V39.5643H43.491V45.1429H35.1231V47.9321H46.2803V36.775H37.9124V31.1964H46.2803V20.0393H35.1231ZM32.3339 20.0393V22.8286H23.966V28.4072H32.3339V39.5643H23.966V45.1429H32.3339V47.9322H21.1767V36.775H29.5446V31.1964H21.1767V20.0393H32.3339Z" fill="#B2292E"/>
</svg>
