<svg width="67" height="67" viewBox="0 0 67 67" fill="none" xmlns="http://www.w3.org/2000/svg">
<path fill-rule="evenodd" clip-rule="evenodd" d="M22.9544 39.2094C21.5361 39.2094 20.3826 38.0708 20.3826 36.6713C20.3826 35.2715 21.5361 34.1329 22.9544 34.1329C24.3726 34.1329 25.5262 35.2715 25.5262 36.6713C25.5262 38.0708 24.3726 39.2094 22.9544 39.2094ZM23.3856 31.6879C22.3718 31.6879 21.4335 32.0426 20.7439 32.6866L20.5065 32.908V27.8928H17.8055V36.4636C17.8055 39.6614 19.7425 41.6483 22.8605 41.6483C25.9093 41.6483 28.1221 39.5577 28.1221 36.6774C28.1221 33.7863 26.1299 31.6879 23.3856 31.6879ZM13.493 27.8928L8.25618 33.9809V27.8928H5.57861V41.2661H8.25618V35.2316L13.5994 41.2661H17.0414L11.1297 34.5795L16.8814 27.8928H13.493ZM58.3545 31.9824H61.3645L57.3606 36.6243L61.3645 41.2661H58.3545L54.8963 37.2571V41.2661H52.1942V27.8928H54.8963V35.9915L58.3545 31.9824ZM47.1269 31.7138C45.5066 31.7138 44.5067 32.4761 44.0291 33.0103V32.0298H41.4954V41.2661H44.1204L44.1202 36.2361C44.1202 34.9788 44.9912 34.1005 46.0805 34.1005C47.17 34.1005 48.0409 34.9788 48.0409 36.2361V41.2661H50.6656V35.444C50.6656 33.2827 49.1072 31.7138 47.1269 31.7138ZM31.9494 36.6843C31.9494 38.0802 33.0884 39.2158 34.4889 39.2158C35.8893 39.2158 37.0283 38.0802 37.0283 36.6843C37.0283 35.2882 35.8893 34.1526 34.4889 34.1526C33.0884 34.1526 31.9494 35.2882 31.9494 36.6843ZM29.2684 36.6902C29.2684 33.8067 31.4301 31.7138 34.4081 31.7138C37.4079 31.7138 39.585 33.8067 39.585 36.6902V41.337H37.1588V40.0177L37.0075 40.2261C36.9973 40.2402 35.9551 41.6483 34.0046 41.6483C31.2603 41.6483 29.2684 39.563 29.2684 36.6902Z" fill="#0F0060"/>
</svg>
