<svg width="68" height="68" viewBox="0 0 68 68" fill="none" xmlns="http://www.w3.org/2000/svg">
<path fill-rule="evenodd" clip-rule="evenodd" d="M63.3495 14.5472C64.067 14.5205 64.7369 15.0195 64.7369 15.7818C64.7369 16.3943 64.1245 16.9226 63.7041 17.2422C61.3692 19.0585 58.684 20.4599 55.961 21.5811C48.0091 24.8729 39.1737 26.0088 30.6712 27.1019C30.2726 27.1532 29.8747 27.2043 29.4776 27.2556C24.2754 27.9409 19.0634 28.4412 13.8317 28.7748C11.8935 28.8981 9.9497 27.8652 8.32401 26.8912C6.64786 25.899 5.03758 24.5788 4.11823 22.834C3.35163 21.3695 3.25353 19.158 4.60734 17.9961C5.6304 17.1146 7.21125 17.1609 8.47396 17.2506C9.49225 17.3293 10.4961 17.5098 11.5008 17.6906C11.9631 17.7737 12.4257 17.857 12.89 17.9303C13.9421 18.0932 14.9976 18.2785 16.0523 18.4638C17.3564 18.6928 18.6594 18.9215 19.9533 19.1075C33.6386 21.0822 48.2894 20.1432 61.2697 15.2058C61.4307 15.1447 61.5921 15.0767 61.7545 15.0084C62.2694 14.7916 62.7944 14.5706 63.3495 14.5472ZM42.8854 36.6217C43.2273 37.3798 43.4572 38.2025 43.5987 39.0476C43.9757 41.2493 43.7543 43.6346 43.3717 45.7227C43.0984 47.2461 42.6794 48.7415 42.1959 50.2074C40.9065 54.1553 39.0117 57.9785 36.0533 60.9566C35.5628 61.4555 34.9475 61.9138 34.2019 61.6139C34.0226 61.541 33.8656 61.4275 33.7535 61.2691C33.5397 60.941 33.6665 60.5191 33.7742 60.161C33.788 60.1153 33.8014 60.0707 33.8137 60.0274C33.9595 59.5383 34.0954 59.0408 34.2244 58.5419C35.5109 53.704 36.712 48.4906 36.4709 43.4524C36.4162 42.2934 36.2747 41.1175 35.7716 40.0805C35.2642 39.0378 34.3281 38.1535 33.1859 37.9713C32.5342 37.8591 31.8559 37.9923 31.2617 38.281C30.9814 38.4225 30.7151 38.5963 30.4909 38.8149C30.1209 39.1625 29.863 39.6292 29.6864 40.1085C29.116 41.6123 29.3165 43.1188 29.5729 44.659C29.7761 45.8657 29.5827 47.2097 28.484 47.9258C27.6361 48.4724 26.5107 48.513 25.569 48.1473C24.6202 47.7829 23.8452 47.0471 23.3154 46.1838C21.6771 43.5477 21.6421 39.66 22.5502 36.7744C22.7408 36.1816 22.9636 35.5986 23.2481 35.0492C24.0722 33.4207 25.3559 32.0613 26.9214 31.1209C30.3704 29.0243 34.5845 29.0131 38.0728 31.0467C40.3137 32.35 41.8147 34.3022 42.8854 36.6217Z" fill="#009490"/>
<path fill-rule="evenodd" clip-rule="evenodd" d="M27.4944 11.3284C27.4944 14.1523 29.783 16.4367 32.6013 16.4367C35.4196 16.4367 37.7082 14.1523 37.7082 11.3284C37.7082 10.9079 37.6059 10.4847 37.4321 10.1035C36.9991 9.17714 36.5016 8.72447 36.5506 7.61171C36.6151 6.11495 34.6923 6.09253 33.6552 6.09253C32.527 6.09253 31.3358 6.24949 30.3113 6.75962C29.4971 7.17165 28.7977 7.80091 28.303 8.5647C27.7943 9.34952 27.514 10.2759 27.4944 11.2135V11.3284Z" fill="#EC1651"/>
</svg>
