<svg xmlns="http://www.w3.org/2000/svg" width="25" height="24" viewBox="0 0 25 24" fill="none">
<path d="M5.96967 11.4697C5.67678 11.7626 5.67678 12.2374 5.96967 12.5303L10.7426 17.3033C11.0355 17.5962 11.5104 17.5962 11.8033 17.3033C12.0962 17.0104 12.0962 16.5355 11.8033 16.2426L7.56066 12L11.8033 7.75736C12.0962 7.46447 12.0962 6.98959 11.8033 6.6967C11.5104 6.40381 11.0355 6.40381 10.7426 6.6967L5.96967 11.4697ZM18.5 12.75C18.9142 12.75 19.25 12.4142 19.25 12C19.25 11.5858 18.9142 11.25 18.5 11.25V12.75ZM6.5 12.75H18.5V11.25H6.5V12.75Z" fill="#121212"/>
</svg>